<svg width="48" height="48" viewBox="0 0 48 48" fill="none" xmlns="http://www.w3.org/2000/svg">
<rect width="47.0857" height="47.0857" fill="black"/>
<path d="M20.5968 37.5918C23.5626 37.5918 26.2507 36.6422 28.3074 34.8615L28.5444 34.6635V37.3938H37.0456V32.1701H34.5149V14.9148H37.0456V9.69121H28.5444V12.342L28.3074 12.1439C26.2101 10.4428 23.5609 9.49316 20.5968 9.49316C12.8455 9.49316 6.51953 15.7849 6.51953 23.5425C6.51953 31.3001 12.8455 37.5918 20.5968 37.5918ZM20.5968 32.011C15.9315 32.011 12.1345 28.172 12.1345 23.5019C12.1345 18.8317 15.9298 15.0333 20.5968 15.0333C22.811 15.0333 24.9456 15.944 26.5283 17.5267C28.1094 19.15 28.9795 21.2472 28.9795 23.5019C28.9795 28.172 25.2232 32.011 20.5968 32.011Z" fill="white"/>
</svg>
