<svg width="367" height="112" viewBox="0 0 367 112" fill="none" xmlns="http://www.w3.org/2000/svg">
<path d="M73.0674 33.1538C73.1156 33.146 73.1639 33.1391 73.2125 33.1333C85.6623 31.6585 96.6686 41.1844 98.2045 53.4423C98.901 59.3667 97.2433 65.3276 93.5879 70.0433C90.2585 74.3092 85.5607 77.2095 80.2618 78.4286C78.5157 78.8304 76.9316 78.808 75.2009 79.0213C75.0668 76.4127 75.1135 72.6902 75.2214 70.068C72.5716 69.9768 69.5872 70.0188 66.9006 69.9926C66.5029 71.6065 66.6371 75.1562 66.645 76.9135C64.4024 76.9528 62.0024 76.818 59.7771 76.9658C59.738 74.7062 59.7678 72.3573 59.7646 70.0904C57.98 70.0393 55.6841 69.9662 53.9384 70.0877C53.8383 68.2322 53.8883 66.1574 53.8988 64.2811L59.8027 64.2982C59.798 66.2358 59.801 67.9679 59.9188 69.8984L66.6747 69.9396C66.3536 68.5726 66.4734 62.8217 66.4772 61.131C68.2949 60.9017 73.5294 60.9598 75.4582 61.0566C75.4651 63.8711 75.5444 67.1443 75.4229 69.9151C87.246 69.916 93.6638 56.1397 86.0485 46.9902C83.6987 44.2008 80.3433 42.4493 76.7099 42.1154C73.0257 41.7629 69.3532 42.8947 66.5076 45.2595C62.887 48.293 61.8179 51.616 61.4308 56.0912C58.4405 56.0995 55.4501 56.0922 52.4597 56.0691C52.3035 48.739 56.1084 41.5444 62.0571 37.3249C65.5686 34.8342 68.8771 33.7776 73.0674 33.1538Z" fill="#0069FE"/>
<path d="M224.791 41.837C232.295 41.1747 238.922 46.7028 239.612 54.2003C240.301 61.6977 234.794 68.3404 227.294 69.0562C219.756 69.7755 213.068 64.2371 212.375 56.7018C211.682 49.1665 217.247 42.5026 224.791 41.837ZM226.451 64.1649C231.237 63.9127 234.924 59.8517 234.711 55.0676C234.498 50.2835 230.465 46.5657 225.675 46.739C220.83 46.9143 217.057 51.0023 217.272 55.8426C217.488 60.683 221.61 64.42 226.451 64.1649Z" fill="#0069FE"/>
<path d="M111.479 42.257C117.776 42.2383 126.372 41.3278 131.035 46.1858C135.557 50.8972 135.084 60.7457 130.421 65.2045C124.924 69.5943 118.059 68.9267 111.434 68.8051C111.556 60.0471 111.235 50.9741 111.479 42.257ZM116.486 64.1016C119.889 64.1152 123.859 64.2649 126.681 61.9168C129.593 58.9456 129.968 52.3844 127.014 49.3458C124.452 46.7108 119.899 46.8119 116.471 46.8234C116.337 50.1024 116.459 53.7755 116.433 57.0917C116.418 58.872 116.336 62.4074 116.486 64.1016Z" fill="#0069FE"/>
<path d="M151.307 49.6386C154.173 49.5042 155.257 49.7462 157.58 51.52C157.496 51.092 157.387 50.4526 157.582 50.0837C158.576 49.9509 161.192 50.0281 162.322 50.0379C162.116 54.1959 162.382 58.5442 162.29 62.7194C162.215 66.1026 162.685 68.9127 160.985 72.0263C157.823 77.8181 148.565 77.4667 144.843 72.464C144.596 72.132 144.683 71.9392 144.757 71.5822C145.781 70.6983 146.8 69.7082 147.788 68.7774L147.963 69.0056C149.838 71.4359 152.595 73.0915 155.768 71.0242C157.141 70.1298 157.351 68.2706 157.532 66.7334C156.827 67.3176 155.948 67.8026 155.047 67.9981C142.884 70.6383 139.166 52.7627 151.307 49.6386ZM154.073 63.8706C154.693 63.6318 155.336 63.3972 155.831 62.9397C159.009 60.001 157.513 53.2746 152.382 53.9902C149.19 54.9197 148.245 57.765 149.058 60.8162C149.711 63.2648 151.713 64.0172 154.073 63.8706Z" fill="#0069FE"/>
<path d="M285.52 49.6581C289.656 49.4451 293.844 50.0823 294.969 54.9351C295.389 56.7462 295.221 58.9654 295.216 60.8447L295.182 68.7784C293.601 68.835 292.019 68.8433 290.437 68.803L290.37 67.2514C289.973 67.5846 289.446 67.9528 288.987 68.2031C287.236 69.14 285.19 69.3633 283.277 68.8262C281.589 68.3335 280.445 67.3483 279.614 65.8393C279.021 64.4899 278.922 62.4951 279.425 61.1197C280.976 56.8777 286.726 56.3602 290.364 57.5947L290.302 55.946C288.987 53.8229 287.154 53.3082 284.864 54.4769C283.815 55.0113 283.303 55.7548 282.594 56.6553C281.554 55.6486 280.522 54.6323 279.501 53.6064C279.533 53.5533 279.567 53.5007 279.6 53.4486C281.025 51.2284 282.983 50.2044 285.52 49.6581ZM288.497 64.5501C289.281 64.2171 289.69 64.0219 290.353 63.4386L290.342 61.7756C288.345 60.9909 287.62 61.0283 285.464 61.1441C281.597 63.4554 285.029 65.3589 288.497 64.5501Z" fill="#0069FE"/>
<path d="M192.743 49.6616C200.609 49.1202 202.735 52.8073 202.319 59.8674C202.176 62.2865 202.219 66.3911 202.393 68.7965C201.442 68.8615 198.472 68.9234 197.617 68.7603C197.176 67.9628 197.989 66.9809 196.688 67.8453C193.651 69.8629 188.696 69.5592 186.845 66.0919C184.772 61.1075 188.084 57.3359 193.039 57.0178C194.805 56.9044 195.794 57.039 197.49 57.5463L197.343 55.6216C195.11 52.4633 191.608 53.9538 189.771 56.6655C188.77 55.6892 187.634 54.5241 186.579 53.6341C188.455 51.2047 189.688 50.3043 192.743 49.6616ZM195.655 64.5132C196.385 64.2322 196.74 64.0036 197.399 63.5996C197.352 62.9249 197.305 62.3337 197.331 61.6538C195.43 61.097 194.649 60.9754 192.652 61.1457C188.769 63.3136 192.148 65.5381 195.655 64.5132Z" fill="#0069FE"/>
<path d="M267.075 49.6599C267.671 49.6079 268.269 49.5865 268.866 49.5959C275.52 49.6612 277.174 55.3164 277.102 60.9092C275.276 61.0378 265.638 60.6876 264.721 61.0183C264.601 61.9238 265.556 63.2887 266.239 63.7891C269.065 65.8639 271.905 64.4285 273.802 62.151C274.116 62.3603 274.602 62.7704 274.915 63.0173C275.61 63.7444 276.341 64.4356 277.067 65.1318C275.365 67.1064 273.876 68.3877 271.202 68.9179C261.658 70.81 256.826 60.7563 261.539 53.2262C262.796 51.2177 264.742 50.1068 267.075 49.6599ZM265.014 56.9524L269.801 56.9298L272.038 56.9467C271.38 54.6399 270.144 53.6558 267.671 53.9825C266.26 54.6155 265.757 54.9524 265.174 56.4849C265.115 56.6384 265.062 56.7944 265.014 56.9524Z" fill="#0069FE"/>
<path d="M305.535 49.6639C314.413 48.9333 314.551 55.1732 314.529 61.9659C314.507 64.2375 314.507 66.5093 314.528 68.781C313.129 68.8849 311.076 68.852 309.634 68.8668C309.661 64.9712 309.878 60.3311 309.448 56.4386C309.38 55.8342 308.873 55.1407 308.495 54.6469C307.502 54.1072 307.046 53.9551 305.954 53.9027C302.821 54.6049 302.675 57.0589 302.69 59.7529C302.708 62.7666 302.728 65.7839 302.752 68.7978C301.405 68.8976 299.38 68.8577 297.982 68.8693L297.975 50.028C298.792 50.0229 301.708 49.9623 302.368 50.069C302.638 50.3653 302.554 50.4229 302.564 50.9021C302.811 50.9017 304.478 49.94 305.535 49.6639Z" fill="#0069FE"/>
<path d="M249.31 49.6587C253.683 49.3669 255.624 50.2782 258.58 53.4657C257.548 54.3991 256.358 55.6281 255.353 56.6209C254.361 55.3584 253.052 54.269 251.42 53.9998C250.364 53.8224 249.282 54.078 248.418 54.7087C244.439 57.6065 246.216 65.853 252.056 64.629C253.83 64.2573 255.073 62.0088 256.047 62.1462L258.833 64.9043C255.924 69.1103 250.063 70.5251 245.747 67.6829C243.596 66.2691 242.099 64.0548 241.589 61.5325C240.436 55.8844 243.601 50.8123 249.31 49.6587Z" fill="#0069FE"/>
<path d="M175.397 44.9004L180.115 44.9113L180.147 50.04L184.469 50.0291C184.419 51.3938 184.472 53.0882 184.48 54.4771C183.249 54.5918 181.42 54.5262 180.142 54.5166L180.1 59.7796C180.079 64.2792 180.156 64.4102 184.468 64.3068L184.451 67.3057C184.487 67.7079 184.56 68.0685 184.385 68.4303C183.68 69.1726 182.701 68.8865 181.854 68.8603C177.278 68.7188 175.376 66.8811 175.409 62.2587C175.427 59.7683 175.417 57.0054 175.418 54.4623C174.514 54.501 173.586 54.5159 172.68 54.5416C172.73 53.091 172.699 51.5026 172.697 50.0389L175.462 50.0418C175.371 48.4466 175.405 46.5221 175.397 44.9004Z" fill="#0069FE"/>
<path d="M205.115 42.2502C206.763 42.2611 208.293 42.2592 209.94 42.1934C210.282 47.9088 209.835 54.0441 210.004 59.8064C210.087 62.6019 210.09 65.9501 209.903 68.7228C208.802 68.9297 206.279 68.8377 205.087 68.8168C205.121 60.027 204.948 51.0132 205.115 42.2502Z" fill="#0069FE"/>
<path d="M136.538 50.0059C138.091 50.062 139.873 50.026 141.444 50.0308L141.45 62.5378C141.452 63.925 141.548 67.5801 141.394 68.8325C139.974 68.921 137.93 68.877 136.463 68.8926L136.46 57.0482C136.458 54.9886 136.37 52.0076 136.538 50.0059Z" fill="#0069FE"/>
<path d="M165.348 50.0273L170.105 50.0369C170.076 56.0657 169.951 62.828 170.143 68.8047C168.564 68.8774 167.012 68.7903 165.382 68.8837C165.188 62.9514 165.353 56.0257 165.348 50.0273Z" fill="#0069FE"/>
<path d="M166.976 41.975C167.87 41.7366 168.824 41.9299 169.554 42.4972C170.285 43.0645 170.708 43.9406 170.697 44.8651C170.682 46.2131 169.756 47.3802 168.446 47.7026C166.87 48.0904 165.276 47.1373 164.873 45.5663C164.47 43.9952 165.408 42.393 166.976 41.975Z" fill="#0069FE"/>
<path d="M138.336 41.9763C139.368 41.7073 140.465 42.0165 141.205 42.7848C141.944 43.5529 142.21 44.6605 141.901 45.6807C141.592 46.7011 140.756 47.475 139.714 47.7044C138.146 48.0498 136.589 47.0768 136.213 45.516C135.838 43.9554 136.781 42.3813 138.336 41.9763Z" fill="#0069FE"/>
</svg>
