<svg xmlns="http://www.w3.org/2000/svg" viewBox="0 0 256 256" role="img" aria-label="Baidu Qianfan icon">
  <rect width="256" height="256" rx="56" fill="#0B3B8F"/>
  <path d="M50 157c34-23 66-36 96-40 23-3 43 0 60 8-14-23-37-40-67-49-31-9-62-5-93 12 18-28 44-45 77-51 47-9 89 11 125 60-21 1-42 7-63 17-26 13-53 35-81 66-19-1-37-8-54-23Z" fill="#FFFFFF"/>
  <path d="M47 167c19 13 39 20 59 20 29-31 56-52 81-64 19-9 38-14 57-15-10 24-29 45-56 62-41 25-88 24-141-3Z" fill="#22D3EE"/>
  <path d="M79 92c35-20 70-25 105-15 23 7 42 19 57 36-26-14-55-19-87-14-30 4-61 17-92 39-4-16 2-31 17-46Z" fill="#60A5FA"/>
</svg>
