<svg xmlns="http://www.w3.org/2000/svg" width="24" height="24" fill="none"><g clip-path="url(#a)"><rect width="24" height="24" fill="red" rx="12"/><mask id="b" width="33" height="24" x="-4" y="0" maskUnits="userSpaceOnUse" style="mask-type:luminance"><path fill="#fff" d="M28.7 0H-3.7v24h32.4V0Z"/></mask><g mask="url(#b)"><path fill="#fff" d="M28.7 0H-3.7v24h32.4V0Z"/><path fill="#F7FCFF" fill-rule="evenodd" d="M-3.7 0h32.4v24H-3.7V0Z" clip-rule="evenodd"/><path fill="#E31D1C" fill-rule="evenodd" d="M-3.7 14.667v2h32.4v-2H-3.7Zm0 3.666v2h32.4v-2H-3.7Zm0-10.999v2h32.4v-2H-3.7ZM-3.7 22v2h32.4v-2H-3.7Zm0-11v2h32.4v-2H-3.7Zm0-11v2h32.4V0H-3.7Zm0 3.667v2h32.4v-2H-3.7Z" clip-rule="evenodd"/><path fill="#2E42A5" d="M16.55 0H-3.7v13h20.25V0Z"/><path fill="#F7FCFF" fill-rule="evenodd" d="m-1.958 2.94-.735.508.248-.906-.653-.573h.853l.286-.74.335.74h.727l-.571.573.221.906-.711-.509Zm4.05 0-.735.508.248-.906-.653-.573h.853l.286-.74.335.74h.727l-.571.573.221.906-.711-.509Zm3.315.508.735-.509.711.51-.221-.907.571-.573h-.727l-.335-.74-.286.74h-.853l.653.573-.248.906Zm4.785-.509-.735.51.248-.907-.653-.573h.853l.286-.74.335.74h.727l-.571.573.221.906-.711-.509ZM-2.693 7.45l.735-.51.711.51-.221-.907.571-.573h-.727l-.335-.74-.286.74h-.853l.653.573-.248.906Zm4.785-.51-.735.51.248-.907-.653-.573h.853l.286-.74.335.74h.727l-.571.573.221.906-.711-.509Zm3.315.51.735-.51.711.51-.221-.907.571-.573h-.727l-.335-.74-.286.74h-.853l.653.573-.248.906Zm4.785-.51-.735.51.248-.907-.653-.573h.853l.286-.74.335.74h.727l-.571.573.221.906-.711-.509Zm-12.885 4.51.735-.51.711.51-.221-.906.571-.574h-.727l-.335-.74-.286.74h-.853l.653.574-.248.905Zm4.785-.51-.735.51.248-.906-.653-.574h.853l.286-.74.335.74h.727l-.571.574.221.905-.711-.509Zm3.315.51.735-.51.711.51-.221-.906.571-.574h-.727l-.335-.74-.286.74h-.853l.653.574-.248.905Zm4.785-.51-.735.51.248-.906-.653-.574h.853l.286-.74.335.74h.727l-.571.574.221.905-.711-.509Zm3.315-7.49.735-.51.711.51-.221-.907.571-.573h-.727l-.335-.74-.286.74h-.853l.653.573-.248.906Zm.735 3.49-.735.51.248-.907-.653-.573h.853l.286-.74.335.74h.727l-.571.573.221.906-.711-.509Zm-.735 4.51.735-.51.711.51-.221-.906.571-.574h-.727l-.335-.74-.286.74h-.853l.653.574-.248.905ZM.067 4.938l-.735.51.248-.907-.653-.573h.853l.286-.74.335.74h.727l-.571.573.221.906-.711-.509Zm3.315.51.735-.51.711.51-.221-.907.571-.573h-.727l-.335-.74-.286.74h-.853l.653.573-.248.906Zm4.785-.51-.735.51.248-.907-.653-.573h.853l.286-.74.335.74h.727l-.571.573.221.906-.711-.509ZM-.668 9.45l.735-.51.711.51-.221-.907.571-.573H.401l-.335-.74-.286.74h-.853l.653.573-.248.906Zm4.785-.51-.735.51.248-.907-.653-.573h.853l.286-.74.335.74h.727l-.571.573.221.906-.711-.509Zm3.315.51.735-.51.711.51-.221-.907.571-.573h-.727l-.335-.74-.286.74h-.853l.653.573-.248.906Zm4.785-4.51-.735.51.248-.907-.653-.573h.853l.286-.74.335.74h.727l-.571.573.221.906-.711-.509Zm-.735 4.51.735-.51.711.51-.221-.907.571-.573h-.727l-.335-.74-.286.74h-.853l.653.573-.248.906Z" clip-rule="evenodd"/></g></g><defs><clipPath id="a"><rect width="24" height="24" fill="#fff" rx="12"/></clipPath></defs></svg>
