<svg xmlns="http://www.w3.org/2000/svg" width="173" height="49" fill="none" viewBox="0 0 173 49"><g clip-path="url(#a)"><path fill="#fff" d="M2.833 19.29A2.837 2.837 0 0 1 0 16.458a2.837 2.837 0 0 1 2.833-2.833 2.837 2.837 0 0 1 2.834 2.833 2.837 2.837 0 0 1-2.834 2.834m0-4.554a1.723 1.723 0 0 0 0 3.445c.95 0 1.723-.772 1.723-1.722s-.772-1.723-1.723-1.723M2.833 27.283A2.837 2.837 0 0 1 0 24.449a2.837 2.837 0 0 1 2.833-2.833 2.837 2.837 0 0 1 2.834 2.833 2.837 2.837 0 0 1-2.834 2.834m0-4.555c-.948 0-1.72.772-1.72 1.721s.772 1.723 1.72 1.723a1.722 1.722 0 1 0 0-3.443M2.833 35.267A2.837 2.837 0 0 1 0 32.434 2.837 2.837 0 0 1 2.833 29.6a2.837 2.837 0 0 1 2.834 2.834 2.837 2.837 0 0 1-2.834 2.833m0-4.554a1.723 1.723 0 0 0 0 3.445 1.724 1.724 0 0 0 0-3.445M24.38 19.29a2.837 2.837 0 0 1-2.833-2.833 2.837 2.837 0 0 1 2.833-2.833 2.837 2.837 0 0 1 2.834 2.833 2.837 2.837 0 0 1-2.834 2.834m0-4.554a1.724 1.724 0 1 0 1.723 1.723c0-.95-.772-1.723-1.723-1.723M24.38 27.283a2.837 2.837 0 0 1-2.833-2.834 2.837 2.837 0 0 1 2.833-2.833 2.837 2.837 0 0 1 2.834 2.833 2.837 2.837 0 0 1-2.834 2.834m0-4.555c-.948 0-1.722.772-1.722 1.721s.772 1.723 1.722 1.723 1.723-.772 1.723-1.723c0-.95-.772-1.72-1.723-1.72M24.38 35.267a2.837 2.837 0 0 1-2.833-2.833A2.837 2.837 0 0 1 24.38 29.6a2.837 2.837 0 0 1 2.834 2.834 2.837 2.837 0 0 1-2.834 2.833m0-4.554c-.948 0-1.722.772-1.722 1.722a1.724 1.724 0 0 0 3.445 0c0-.95-.772-1.722-1.723-1.722M13.607 23.283a2.837 2.837 0 0 1-2.834-2.834 2.837 2.837 0 0 1 2.834-2.833 2.837 2.837 0 0 1 2.833 2.833 2.837 2.837 0 0 1-2.833 2.834m0-4.555a1.724 1.724 0 1 0 1.723 1.723c0-.95-.773-1.723-1.723-1.723M13.607 15.298a2.837 2.837 0 0 1-2.834-2.833 2.837 2.837 0 0 1 2.834-2.834 2.837 2.837 0 0 1 2.833 2.834 2.837 2.837 0 0 1-2.833 2.833m0-4.554a1.724 1.724 0 0 0 0 3.445 1.724 1.724 0 0 0 0-3.445M13.607 31.283a2.837 2.837 0 0 1-2.834-2.834 2.837 2.837 0 0 1 2.834-2.833 2.837 2.837 0 0 1 2.833 2.833 2.837 2.837 0 0 1-2.833 2.834m0-4.555a1.724 1.724 0 1 0 1.723 1.723c0-.95-.773-1.723-1.723-1.723M13.607 39.267a2.837 2.837 0 0 1-2.834-2.833 2.837 2.837 0 0 1 2.834-2.834 2.837 2.837 0 0 1 2.833 2.834 2.837 2.837 0 0 1-2.833 2.833m0-4.554c-.949 0-1.723.772-1.723 1.722s.772 1.723 1.723 1.723a1.724 1.724 0 0 0 0-3.445"/><path fill="#5699db" d="M9.098 19.781a.9.9 0 0 1-.342-.066L6.91 18.98a.925.925 0 1 1 .687-1.72l1.845.736a.926.926 0 0 1-.344 1.785zM9.098 27.617a.9.9 0 0 1-.342-.066l-1.845-.736a.925.925 0 1 1 .687-1.719l1.845.735a.926.926 0 0 1-.344 1.785zM19.918 23.702a.9.9 0 0 1-.342-.065l-1.844-.736a.925.925 0 0 1 .685-1.719l1.845.735a.926.926 0 0 1-.344 1.785M19.918 15.867a.9.9 0 0 1-.342-.066l-1.844-.735a.926.926 0 0 1 .685-1.72l1.845.736a.926.926 0 0 1-.344 1.785M19.918 31.531a.9.9 0 0 1-.342-.066l-1.844-.735a.925.925 0 0 1 .685-1.72l1.845.736a.926.926 0 0 1-.344 1.785M7.302 31.812a.926.926 0 0 1-.344-1.785l1.845-.736a.925.925 0 1 1 .687 1.72l-1.845.735a.9.9 0 0 1-.342.066zM7.302 24.023a.926.926 0 0 1-.344-1.785l1.845-.736a.925.925 0 1 1 .687 1.72l-1.845.735a.9.9 0 0 1-.342.066zM7.302 15.843a.926.926 0 0 1-.344-1.785l1.845-.735a.925.925 0 1 1 .687 1.72l-1.845.734a.9.9 0 0 1-.342.066zM9.098 36.015a.9.9 0 0 1-.342-.066l-1.845-.735a.925.925 0 0 1 .686-1.719l1.844.735a.925.925 0 0 1-.343 1.785M18.075 19.782a.926.926 0 0 1-.343-1.787l1.844-.735a.927.927 0 0 1 .687 1.721l-1.844.735a.9.9 0 0 1-.342.066zM18.075 27.618a.926.926 0 0 1-.343-1.787l1.844-.735a.927.927 0 0 1 .687 1.721l-1.844.735a.9.9 0 0 1-.342.066zM18.075 36.015a.925.925 0 0 1-.344-1.785l1.845-.736a.925.925 0 1 1 .686 1.72l-1.845.735a.9.9 0 0 1-.342.066"/><path fill="#fff" d="M49.146 9.631v23.347h-3.475l-.244-2.072c-1.16 1.8-3.018 2.408-4.847 2.408-4.421 0-7.744-2.927-7.744-7.865 0-5.182 3.262-7.865 7.653-7.865 1.584 0 4.055.854 4.938 2.408V11.67l3.72-2.037zm-12.59 15.816c0 2.622 1.889 4.422 4.268 4.422 2.38 0 4.36-1.709 4.36-4.422s-2.011-4.39-4.36-4.39-4.268 1.677-4.268 4.39M55.889 26.789c.243 1.859 1.858 3.201 4.48 3.201 1.373 0 3.17-.518 4.025-1.403l2.377 2.347c-1.586 1.646-4.177 2.439-6.463 2.439-5.182 0-8.261-3.201-8.261-8.017 0-4.817 3.11-7.865 7.988-7.865s8.17 3.11 7.59 9.298zm8.17-3.079c-.245-1.95-1.768-2.927-3.903-2.927-2.012 0-3.66.976-4.208 2.927h8.11M73.654 26.789c.244 1.859 1.86 3.201 4.48 3.201 1.373 0 3.171-.518 4.025-1.403l2.378 2.347c-1.586 1.646-4.177 2.439-6.463 2.439-5.182 0-8.261-3.201-8.261-8.017 0-4.817 3.11-7.865 7.988-7.865s8.17 3.11 7.59 9.298zm8.17-3.079c-.244-1.95-1.768-2.927-3.903-2.927-2.011 0-3.659.976-4.208 2.927h8.11M88.266 39.26V17.952l3.72 2.073c1.158-1.676 3.17-2.408 4.876-2.408 4.635 0 7.714 3.445 7.714 7.865 0 4.419-2.774 7.866-7.592 7.866-1.584 0-3.933-.488-4.999-2.134v8.048zm12.59-13.78c0-2.347-1.584-4.267-4.268-4.267s-4.269 1.92-4.269 4.267 1.739 4.27 4.269 4.27 4.268-1.92 4.268-4.27M111.367 12.272c0 2.896-4.39 2.896-4.39 0s4.39-2.896 4.39 0M111.032 17.882h-3.72v15.09h3.72zM125.456 32.983v-7.865c0-2.286-1.251-4.024-3.628-4.024s-3.842 1.92-3.842 4.207v7.683h-3.689v-15.06l3.567 2.041c1.525-1.494 3.049-2.255 4.938-2.255 3.537 0 6.372 2.652 6.372 7.378v7.896h-3.72zM133.594 32.978V21.424h-2.805v-3.262h2.805v-1.006c0-4.025 2.713-5.884 5.731-5.884 1.311 0 2.682.427 3.902 1.22l-1.372 2.774c-.793-.518-1.525-.793-2.286-.793-1.281 0-2.256.854-2.256 2.683v1.006h4.421v3.262h-4.421v11.554zM148.071 19.687c1.159-1.86 2.713-2.134 4.238-2.134s3.049.61 3.872 1.434l-1.677 3.232c-.763-.641-1.464-.977-2.683-.977-1.95 0-3.75 1.037-3.75 3.811v7.926h-3.719V17.95l3.719 1.74zM169.385 20.022l3.689-2.073v15.03h-3.506l-.183-2.195c-.854 1.768-3.201 2.622-4.877 2.652-4.451.03-7.742-2.713-7.742-7.986 0-5.274 3.445-7.897 7.834-7.865 2.011 0 3.933.945 4.785 2.438zm-8.901 5.426c0 2.865 1.981 4.573 4.45 4.573 5.853 0 5.853-9.115 0-9.115-2.469 0-4.45 1.676-4.45 4.544"/></g><defs><clipPath id="a"><path fill="#fff" d="M0 .366h173v48H0z"/></clipPath></defs></svg>
