<svg width="236" height="98" viewBox="0 0 236 98" fill="none" xmlns="http://www.w3.org/2000/svg">
<path d="M121.777 0H129.896V8.11842H121.777V0Z" fill="#14CBF3"/>
<path d="M113.658 0H121.777V8.11842H113.658V0Z" fill="#14CBF3"/>
<path d="M97.4219 0H105.54V8.11842H97.4219V0Z" fill="#14CBF3"/>
<path d="M89.3047 0H97.4231V8.11842H89.3047V0Z" fill="#14CBF3"/>
<path d="M113.658 8.11914H121.777V16.2376H113.658V8.11914Z" fill="#14CBF3"/>
<path d="M105.541 8.11914H113.659V16.2376H105.541V8.11914Z" fill="#14CBF3"/>
<path d="M97.4219 8.11914H105.54V16.2376H97.4219V8.11914Z" fill="#14CBF3"/>
<path d="M81.1855 8.11914H89.304V16.2376H81.1855V8.11914Z" fill="white"/>
<path d="M73.0664 8.11914H81.1848V16.2376H73.0664V8.11914Z" fill="white"/>
<path d="M121.777 16.2373H129.896V24.3557H121.777V16.2373Z" fill="#14CBF3"/>
<path d="M113.658 16.2373H121.777V24.3557H113.658V16.2373Z" fill="#14CBF3"/>
<path d="M97.4219 16.2373H105.54V24.3557H97.4219V16.2373Z" fill="#14CBF3"/>
<path d="M81.1855 16.2373H89.304V24.3557H81.1855V16.2373Z" fill="#14CBF3"/>
<path d="M73.0664 16.2373H81.1848V24.3557H73.0664V16.2373Z" fill="#14CBF3"/>
<path d="M121.777 24.3555H129.896V32.4739H121.777V24.3555Z" fill="#14CBF3"/>
<path d="M97.4219 24.3555H105.54V32.4739H97.4219V24.3555Z" fill="#14CBF3"/>
<path d="M121.777 32.4746H129.896V40.593H121.777V32.4746Z" fill="#14CBF3"/>
<path d="M113.658 32.4746H121.777V40.593H113.658V32.4746Z" fill="#14CBF3"/>
<path d="M105.541 32.4746H113.659V40.593H105.541V32.4746Z" fill="#14CBF3"/>
<path d="M81.1855 32.4746H89.304V40.593H81.1855V32.4746Z" fill="#14CBF3"/>
<path d="M73.0664 32.4746H81.1848V40.593H73.0664V32.4746Z" fill="#14CBF3"/>
<path d="M154.252 40.5918H162.37V48.7102H154.252V40.5918Z" fill="#14CBF3"/>
<path d="M105.541 40.5918H113.659V48.7102H105.541V40.5918Z" fill="#14CBF3"/>
<path d="M73.0664 40.5918H81.1848V48.7102H73.0664V40.5918Z" fill="#14CBF3"/>
<path d="M227.316 48.7109H235.435V56.8294H227.316V48.7109Z" fill="#14CBF3"/>
<path d="M162.369 48.7109H170.488V56.8294H162.369V48.7109Z" fill="#14CBF3"/>
<path d="M154.252 48.7109H162.37V56.8294H154.252V48.7109Z" fill="#14CBF3"/>
<path d="M105.541 48.7109H113.659V56.8294H105.541V48.7109Z" fill="#14CBF3"/>
<path d="M97.4219 48.7109H105.54V56.8294H97.4219V48.7109Z" fill="#14CBF3"/>
<path d="M89.3047 48.7109H97.4231V56.8294H89.3047V48.7109Z" fill="#14CBF3"/>
<path d="M81.1855 48.7109H89.304V56.8294H81.1855V48.7109Z" fill="#14CBF3"/>
<path d="M73.0664 48.7109H81.1848V56.8294H73.0664V48.7109Z" fill="#14CBF3"/>
<path d="M162.369 56.8291H170.488V64.9475H162.369V56.8291Z" fill="#14CBF3"/>
<path d="M154.252 56.8291H162.37V64.9475H154.252V56.8291Z" fill="#14CBF3"/>
<path d="M113.658 56.8291H121.777V64.9475H113.658V56.8291Z" fill="#14CBF3"/>
<path d="M105.541 56.8291H113.659V64.9475H105.541V56.8291Z" fill="#14CBF3"/>
<path d="M32.4746 64.9473H40.593V73.0657H32.4746V64.9473Z" fill="#14CBF3"/>
<path d="M24.3574 64.9473H32.4758V73.0657H24.3574V64.9473Z" fill="#14CBF3"/>
<path d="M16.2383 64.9473H24.3567V73.0657H16.2383V64.9473Z" fill="#14CBF3"/>
<path d="M8.11913 64.9473H16.2375V73.0657H8.11913V64.9473Z" fill="#14CBF3"/>
<path d="M-1.23978e-05 64.9473H8.11841V73.0657H-1.23978e-05V64.9473Z" fill="#14CBF3"/>
<path d="M146.133 73.0664H154.251V81.1848H146.133V73.0664Z" fill="#14CBF3"/>
<path d="M24.3574 73.0664H32.4758V81.1848H24.3574V73.0664Z" fill="#14CBF3"/>
<path d="M186.725 81.1846H194.843V89.303H186.725V81.1846Z" fill="#14CBF3"/>
<path d="M154.252 81.1846H162.37V89.303H154.252V81.1846Z" fill="#14CBF3"/>
<path d="M146.133 81.1846H154.251V89.303H146.133V81.1846Z" fill="#14CBF3"/>
<path d="M154.252 89.3027H162.37V97.4212H154.252V89.3027Z" fill="#14CBF3"/>
<path d="M146.133 89.3027H154.251V97.4212H146.133V89.3027Z" fill="#14CBF3"/>
<path d="M8.11913 89.3027H16.2375V97.4212H8.11913V89.3027Z" fill="#14CBF3"/>
<path d="M-1.23978e-05 89.3027H8.11841V97.4212H-1.23978e-05V89.3027Z" fill="#14CBF3"/>
</svg>
