<svg height="188pt" viewBox="-4.8 18.80000000000001 273 149.6" width="356" xmlns="http://www.w3.org/2000/svg"><path d="M63.8 20C30.1 26.1 6 50.3.9 83c-5.7 36.9 17.9 72.8 54.7 83.1 6.1 1.8 10.5 2.3 19.4 2.3 13.8 0 23.4-2.4 35.5-8.7 11.1-5.8 24.4-19.1 30.2-30.2 3.4-6.6 8.3-20.5 8.3-23.7 0-.5-11.6-.8-25.7-.8H97.5l-7.3 9.3-7.4 9.2 19.9.5 19.8.5-8 8c-9.1 9.1-17.3 13.7-28.9 16.2-12.2 2.6-27.4 0-38.6-6.5-10.8-6.2-21-18.7-25.2-31-3.2-9.5-3.2-24.9 0-34.4 6.4-18.7 22.8-33.3 41.7-37.3 3.9-.8 9-1.5 11.5-1.5 12.1 0 27.3 6 36.6 14.3l5 4.6 5.5-7c3-3.8 5.4-7.5 5.4-8.1 0-2.1-11.8-10.8-20-14.8-4.4-2.1-10.8-4.6-14.2-5.5-7.6-1.9-23.1-2.7-29.5-1.5z"/><path d="M139.7 52.7l-27.5 33.8 26.4.3 26.4.2.2 19.3.3 19.2 9.2-11 9.3-11V87h13.9l7.1-8.8 7-8.7-14-.3-14-.3V19h-16.8zM165 60v9h-15.1l7.3-9c4-4.9 7.4-9 7.6-9 .1 0 .2 4 .2 9z"/><path d="M209 27v8h15.3c12.5 0 15.8.3 18.7 1.8 4.6 2.3 6.5 6.2 5 10.5-.6 1.8-11.6 16.2-24.6 32.1-12.9 15.8-23.4 28.9-23.2 29.1.2.1 15.3.5 33.6.8l33.2.6V92h-14.5c-8 0-14.5-.3-14.5-.6s4.6-6.4 10.2-13.5c13.8-17.5 15.5-20.1 16.9-26.7 3.1-15-6-28.8-20.6-31.2-3.3-.5-12.6-1-20.7-1H209z"/></svg>
