<svg width="80" height="80" viewBox="0 0 80 80" fill="none" xmlns="http://www.w3.org/2000/svg">
<g clip-path="url(#clip0_113_1735)">
<path fill-rule="evenodd" clip-rule="evenodd" d="M11.757 41.339C11.5177 41.4903 11.2358 41.5091 11.0216 41.3882C10.7495 41.2346 10.5998 40.8748 10.5998 40.3743V38.8771C10.5998 38.1541 10.314 37.6396 9.83598 37.5007C9.02594 37.2647 8.41674 38.2558 8.18778 38.6281L6.75916 40.9444V38.1132C6.7431 37.4619 6.53155 37.0722 6.12987 36.9548C5.8641 36.8771 5.46644 36.9082 5.08017 37.4994L1.8795 42.6388C1.451 41.8253 1.22763 40.9195 1.22879 40.0001C1.22879 36.9042 3.70979 34.3857 6.75916 34.3857C9.80854 34.3857 12.2892 36.9042 12.2892 40.0001C12.2892 40.0055 12.2905 40.0102 12.2909 40.0152C12.2909 40.0205 12.2899 40.0252 12.2902 40.0306C12.319 40.6301 12.1249 41.1067 11.757 41.339ZM13.518 40.0004V39.9847L13.5177 39.9693C13.5006 36.1989 10.4756 33.1382 6.75883 33.1382C3.0323 33.1382 0 36.2163 0 40.0001C0 43.7835 3.0323 46.862 6.75916 46.862C8.46929 46.862 10.1014 46.212 11.3543 45.0321C11.6033 44.7978 11.6181 44.4031 11.3871 44.1507C11.3328 44.0908 11.267 44.0423 11.1936 44.0081C11.1203 43.9739 11.0409 43.9547 10.96 43.9515C10.8791 43.9484 10.7985 43.9615 10.7227 43.9899C10.647 44.0184 10.5776 44.0617 10.5188 44.1173C9.50329 45.0789 8.15778 45.6148 6.75916 45.6145C5.12636 45.6145 3.65724 44.8918 2.64402 43.7457L5.53038 39.1111V41.2476C5.53038 42.2739 5.92837 42.6056 6.26209 42.7027C6.59615 42.7998 7.10661 42.7335 7.64251 41.8632L9.23013 39.2895C9.281 39.2065 9.32787 39.1348 9.37071 39.0729V40.3743C9.37071 41.3337 9.75498 42.1009 10.4248 42.4788C11.0286 42.8195 11.7878 42.7887 12.4064 42.3984C13.1562 41.9248 13.5602 41.0522 13.518 40.0004ZM22.9282 37.656C23.0905 37.7548 23.2311 37.9743 23.2311 38.1722C23.2311 38.4905 22.9607 38.7539 22.6577 38.7539C22.5821 38.7539 22.5064 38.7322 22.4415 38.7101C22.0844 38.4466 21.6301 38.2709 21.1541 38.2709C20.0295 38.2709 19.2505 39.1931 19.2505 40.3348C19.2505 41.4769 20.0295 42.3881 21.1541 42.3881C21.7165 42.3881 22.2142 42.1574 22.5928 41.8063C22.6906 41.736 22.8078 41.6976 22.9282 41.6965C23.2311 41.6965 23.4691 41.9378 23.4691 42.2455C23.4691 42.443 23.35 42.6187 23.1987 42.7174C22.6577 43.1787 21.9223 43.486 21.1652 43.486C19.4346 43.486 18.0281 42.0587 18.0281 40.302C18.0281 38.5454 19.4343 37.1181 21.1652 37.1181C21.8142 37.1181 22.4305 37.3156 22.9282 37.656ZM26.0927 38.9845C27.2716 38.9845 28.2668 39.9837 28.2668 41.2132C28.2668 42.443 27.2716 43.486 26.0927 43.486C24.8596 43.486 23.832 42.443 23.832 41.2132C23.832 39.9837 24.8596 38.9845 26.0927 38.9845ZM26.0817 42.3881C26.6012 42.3881 27.0444 41.894 27.0444 41.2242C27.0444 40.5548 26.6012 40.1373 26.0817 40.1373C25.5193 40.1373 25.0541 40.5437 25.0541 41.2242C25.0541 41.894 25.5193 42.3881 26.0817 42.3881ZM29.0082 42.8051V39.6654C29.0082 39.325 29.2787 39.0394 29.6141 39.0394C29.9495 39.0394 30.2306 39.325 30.2306 39.6654V42.8051C30.2306 43.1455 29.9495 43.4311 29.6141 43.4311C29.2787 43.4311 29.0082 43.1455 29.0082 42.8051ZM28.9111 37.8538C28.9111 37.4475 29.2244 37.1181 29.6141 37.1181C30.0141 37.1181 30.3387 37.4475 30.3387 37.8538C30.3387 38.2488 30.0141 38.5675 29.6141 38.5675C29.2244 38.5675 28.9111 38.2488 28.9111 37.8538ZM32.5731 41.1034V42.8051C32.5731 43.1455 32.2919 43.4311 31.9562 43.4311C31.6211 43.4311 31.3503 43.1455 31.3503 42.8051V39.5225C31.3503 39.259 31.5669 39.0394 31.8266 39.0394C32.086 39.0394 32.2919 39.259 32.2919 39.5225C32.7893 39.0615 33.2218 38.9845 33.6328 38.9845C34.8552 38.9845 35.3962 39.9067 35.3962 40.9497V42.8051C35.3962 43.1455 35.115 43.4311 34.7796 43.4311C34.4442 43.4311 34.1737 43.1455 34.1737 42.8051V41.1034C34.1737 40.5655 34.1088 40.1153 33.3409 40.1153C32.8 40.1153 32.5731 40.5655 32.5731 41.1034ZM39.3717 41.7514C39.2311 41.7514 39.1341 41.6855 39.0581 41.5974L37.6301 40.0496V42.8051C37.6301 43.1455 37.349 43.4311 37.0136 43.4311C36.6782 43.4311 36.4077 43.1455 36.4077 42.8051V37.3491C36.4252 37.3031 36.4564 37.2636 36.4972 37.2361C36.5379 37.2085 36.5861 37.1942 36.6353 37.1951C36.7431 37.1951 36.8295 37.2831 36.8947 37.3491L39.1662 39.9071C39.2311 39.984 39.3175 40.0279 39.361 40.0279C39.4042 40.0279 39.4905 39.984 39.5555 39.9074L41.8273 37.3491C41.8922 37.2831 41.9786 37.1951 42.0867 37.1951C42.1948 37.1951 42.2815 37.261 42.314 37.3491V42.8051C42.314 43.1455 42.0435 43.4311 41.7081 43.4311C41.3727 43.4311 41.0915 43.1455 41.0915 42.8051V40.0496L39.6639 41.5974C39.588 41.6855 39.4905 41.7514 39.3717 41.7514ZM45.2512 42.3881C45.8028 42.3881 46.2678 41.894 46.2678 41.2242C46.2678 40.5548 45.7921 40.1153 45.2512 40.1153C44.7103 40.1153 44.2775 40.5655 44.2775 41.2242C44.2775 41.8719 44.7103 42.3881 45.2512 42.3881ZM46.5493 42.9481L46.5272 42.8051C46.2895 43.2771 45.532 43.486 45.0454 43.486C43.8986 43.486 43.0551 42.443 43.0551 41.2132C43.0551 39.9837 43.9203 38.9845 45.1103 38.9845C45.3158 38.9845 45.9973 39.0394 46.5272 39.6654L46.549 39.5225C46.549 39.259 46.7545 39.0394 47.0142 39.0394C47.2736 39.0394 47.4899 39.259 47.4899 39.5225V42.9481C47.4899 43.2115 47.2736 43.4311 47.0139 43.4311C46.7545 43.4311 46.5486 43.2115 46.5486 42.9481H46.5493ZM50.8817 40.1153H50.7521C49.9839 40.1594 49.8326 40.5986 49.8326 41.1034V42.8051C49.8326 43.1455 49.5515 43.4311 49.2161 43.4311C48.8807 43.4311 48.6102 43.1455 48.6102 42.8051V39.5225C48.6102 39.259 48.8264 39.0394 49.0862 39.0394C49.3459 39.0394 49.5515 39.259 49.5515 39.5225C50.0057 39.0943 50.3736 39.0066 50.7521 38.9845H50.871C51.1632 38.9845 51.4333 39.2369 51.4333 39.5556C51.4333 39.8518 51.1739 40.1153 50.8817 40.1153ZM55.593 42.5199C55.6472 42.6076 55.6797 42.7064 55.6797 42.8162C55.6797 43.1345 55.3874 43.4311 55.0738 43.4311C54.8576 43.4311 54.6735 43.2664 54.5329 43.0907L53.127 41.4548V42.8051C53.127 43.1455 52.8455 43.4311 52.5101 43.4311C52.1747 43.4311 51.9043 43.1455 51.9043 42.8051V37.821C51.9043 37.4803 52.1747 37.1951 52.5101 37.1951C52.8455 37.1951 53.1267 37.4803 53.1267 37.821V40.928L54.5329 39.3688C54.6735 39.2041 54.8465 39.0394 55.0631 39.0394C55.366 39.0394 55.6472 39.325 55.6472 39.6433C55.6472 39.742 55.6254 39.8408 55.5712 39.9288L54.4572 41.1472L55.593 42.5199ZM57.9896 40.1373C57.6542 40.1373 57.1133 40.3131 57.1133 40.8289H58.8763C58.8763 40.302 58.314 40.1373 57.9893 40.1373H57.9896ZM59.5903 41.6085H57.1133C57.1133 42.3442 57.8162 42.454 58.1299 42.454C58.3575 42.454 58.6818 42.4102 58.9305 42.3C59.0062 42.2455 59.1361 42.2013 59.2442 42.2013C59.5146 42.2013 59.7416 42.4322 59.7416 42.7067C59.7416 42.8932 59.6228 43.0578 59.4715 43.1455C59.0929 43.42 58.6059 43.486 58.1409 43.486C56.9078 43.486 55.8802 42.8165 55.8802 41.2681C55.8802 40.0496 56.5074 38.9845 57.9679 38.9845C59.1468 38.9845 60.0445 39.7531 60.0663 41.1255C60.0663 41.3889 59.85 41.6085 59.5903 41.6085ZM62.9928 43.486H62.6574C61.7269 43.486 61.1863 43.0796 61.1863 41.6195V40.1153H60.8726C60.5804 40.1153 60.321 39.8518 60.321 39.5556C60.321 39.2369 60.5804 38.9845 60.8726 38.9845H61.1863V37.8207C61.1863 37.4803 61.4567 37.1948 61.7921 37.1948C62.1272 37.1948 62.4087 37.4803 62.4087 37.8207V38.9845H62.9168C63.209 38.9845 63.4688 39.2369 63.4688 39.5556C63.4688 39.8518 63.209 40.1153 62.9168 40.1153H62.4087V41.3778C62.4087 42.2123 62.4519 42.3881 62.8197 42.3881H62.9928C63.2847 42.3881 63.5334 42.6297 63.5334 42.937C63.5334 43.2336 63.2847 43.486 62.9928 43.486ZM68.9155 37.656C69.0775 37.7548 69.2184 37.9743 69.2184 38.1722C69.2184 38.4905 68.9479 38.7539 68.645 38.7539C68.5694 38.7539 68.4934 38.7322 68.4288 38.7101C68.0716 38.4466 67.6174 38.2709 67.1414 38.2709C66.0167 38.2709 65.2375 39.1931 65.2375 40.3348C65.2375 41.4769 66.0164 42.3881 67.1414 42.3881C67.7038 42.3881 68.2015 42.1574 68.5801 41.8063C68.6779 41.736 68.795 41.6976 68.9155 41.6965C69.2184 41.6965 69.4561 41.9378 69.4561 42.2455C69.4561 42.443 69.3372 42.6187 69.1859 42.7174C68.645 43.1787 67.9093 43.486 67.1521 43.486C65.4216 43.486 64.0154 42.0587 64.0154 40.302C64.0154 38.5454 65.4213 37.1181 67.1521 37.1181C67.8015 37.1181 68.4177 37.3156 68.9155 37.656ZM72.0151 42.3881C72.5667 42.3881 73.0316 41.894 73.0316 41.2242C73.0316 40.5548 72.5556 40.1153 72.0147 40.1153C71.4741 40.1153 71.0413 40.5655 71.0413 41.2242C71.0413 41.8719 71.4741 42.3881 72.0147 42.3881H72.0151ZM73.3128 42.9481L73.2914 42.8051C73.0534 43.2771 72.2962 43.486 71.8092 43.486C70.6628 43.486 69.8189 42.443 69.8189 41.2132C69.8189 39.9837 70.6845 38.9845 71.8741 38.9845C72.0797 38.9845 72.7612 39.0394 73.2914 39.6654L73.3128 39.5225C73.3128 39.259 73.5183 39.0394 73.7781 39.0394C74.0375 39.0394 74.2541 39.259 74.2541 39.5225V42.9481C74.2541 43.2115 74.0375 43.4311 73.7781 43.4311C73.5183 43.4311 73.3128 43.2115 73.3128 42.9481ZM77.6131 42.3881C78.154 42.3881 78.5864 41.8719 78.5864 41.2242C78.5864 40.5655 78.154 40.1153 77.6131 40.1153C77.0721 40.1153 76.5961 40.5544 76.5961 41.2242C76.5961 41.894 77.0614 42.3881 77.6131 42.3881ZM76.5961 43.1238V44.6826C76.5961 45.023 76.315 45.3086 75.9796 45.3086C75.6445 45.3086 75.3737 45.023 75.3737 44.6826V39.5225C75.3737 39.259 75.5903 39.0394 75.85 39.0394C76.1095 39.0394 76.3153 39.259 76.3153 39.5663C76.7692 39.0943 77.3319 38.9845 77.7536 38.9845C78.9436 38.9845 79.8089 39.9837 79.8089 41.2132C79.8089 42.443 78.9654 43.486 77.8186 43.486C77.4618 43.486 76.9315 43.3762 76.5961 43.1238Z" fill="white"/>
</g>
<defs>
<clipPath id="clip0_113_1735">
<rect width="80" height="13.7238" fill="white" transform="translate(0 33.1382)"/>
</clipPath>
</defs>
</svg>
