<svg width="89" height="25" viewBox="0 0 89 25" fill="none" xmlns="http://www.w3.org/2000/svg">
<g clip-path="url(#clip0_1274_2072)">
<path d="M0 1.20264H3.91486V15.3824H11.1651V18.9952H0V1.20264Z" fill="#0F172B"/>
<path d="M14.2044 0.727051C14.6361 0.727051 15.058 0.855063 15.417 1.09487C15.7759 1.33469 16.0556 1.67553 16.2208 2.07432C16.3859 2.47311 16.4292 2.91191 16.345 3.33526C16.2607 3.75862 16.0529 4.14751 15.7477 4.45273C15.4425 4.75795 15.0536 4.96581 14.6302 5.05002C14.2069 5.13423 13.768 5.09103 13.3692 4.92584C12.9704 4.76066 12.6296 4.48091 12.3898 4.12201C12.15 3.76311 12.022 3.34114 12.022 2.90949C12.0236 2.33117 12.2541 1.777 12.663 1.36806C13.0719 0.959122 13.6261 0.728678 14.2044 0.727051ZM12.3241 6.75039H16.0848V18.945H12.3241V6.75039Z" fill="#0F172B"/>
<path d="M31.1214 17.9471C31.1214 22.5401 28.791 25 24.0685 25C21.9107 25 19.7036 24.6177 17.9465 23.2121L20.0304 20.1295C21.1143 21.1227 22.5246 21.6842 23.9945 21.7078C26.2818 21.7078 27.3607 20.4748 27.3607 18.7239V17.5402H27.3052C26.8969 18.0565 26.3741 18.4706 25.778 18.7499C25.182 19.0292 24.5292 19.1659 23.8712 19.1493C20.2523 19.1493 17.8726 16.5414 17.8726 12.8485C17.8726 9.61181 19.981 6.49843 23.4212 6.49843C24.2177 6.45678 25.0124 6.60891 25.7372 6.94177C26.462 7.27464 27.0952 7.77834 27.5826 8.40964H27.632V6.80052H31.1214V17.9471ZM24.648 15.8139C25.2443 15.8139 25.8272 15.6371 26.3229 15.3059C26.8187 14.9746 27.2051 14.5038 27.4333 13.9529C27.6615 13.402 27.7212 12.7959 27.6049 12.2111C27.4885 11.6263 27.2014 11.0891 26.7798 10.6675C26.3582 10.2458 25.821 9.95869 25.2362 9.84237C24.6514 9.72604 24.0452 9.78577 23.4943 10.014C22.9435 10.2421 22.4726 10.6285 22.1414 11.1243C21.8101 11.6201 21.6333 12.203 21.6333 12.7992C21.6381 13.5973 21.9573 14.3613 22.5216 14.9256C23.086 15.4899 23.85 15.8091 24.648 15.8139Z" fill="#0F172B"/>
<path d="M37.4224 0V8.43389H37.4717C37.8231 7.4783 39.0561 6.47339 40.8872 6.47339C44.7034 6.47339 45.4062 8.98259 45.4062 12.2439V18.9701H41.6393V13.0022C41.6393 11.5966 41.6393 9.79023 39.685 9.79023C37.7306 9.79023 37.4224 11.3192 37.4224 12.8728V18.9454H33.6616V0H37.4224Z" fill="#0F172B"/>
<path d="M55.8807 9.79006H52.5639V13.8529C52.5639 15.1599 52.718 16.1093 54.3456 16.1093C54.8808 16.1462 55.4149 16.0239 55.8807 15.7579V18.8959C55.0293 19.1719 54.1367 19.2991 53.242 19.272C50.7328 19.272 48.8031 18.2425 48.8031 15.573V9.77771H46.3926V6.76296H48.8031V3.19336H52.5639V6.80612H55.8807V9.79006Z" fill="#0F172B"/>
<path d="M77.1504 6.77553H80.7632V8.43395H80.8125C81.1745 7.81483 81.6977 7.3055 82.3263 6.96025C82.9549 6.615 83.6654 6.44677 84.3821 6.47345C88.1922 6.47345 88.895 8.98265 88.895 12.244V18.9702H85.1342V13.0023C85.1342 11.5966 85.1342 9.79029 83.1737 9.79029C81.2132 9.79029 80.9173 11.3192 80.9173 12.8729V18.9455H77.1504V6.77553Z" fill="#0F172B"/>
<path d="M66.2506 19.4264C71.3954 19.4264 75.5661 15.2557 75.5661 10.1109C75.5661 4.96611 71.3954 0.79541 66.2506 0.79541C61.1058 0.79541 56.9351 4.96611 56.9351 10.1109C56.9351 15.2557 61.1058 19.4264 66.2506 19.4264Z" fill="url(#paint0_linear_1274_2072)"/>
<path d="M64.2469 1.96045L66.5219 6.92954C66.5839 7.07127 66.6816 7.19448 66.8055 7.28713C66.9314 7.37912 67.0771 7.44033 67.2309 7.46591C67.3842 7.48931 67.5409 7.47455 67.6872 7.42293C67.8334 7.37132 67.9647 7.28445 68.0693 7.16999L71.6266 3.21812L68.544 8.56332C68.5019 8.63869 68.4798 8.72356 68.4798 8.8099C68.4798 8.89624 68.5019 8.98115 68.544 9.05652C68.5819 9.13364 68.6393 9.19952 68.7105 9.24764C68.7798 9.29727 68.8602 9.32902 68.9448 9.34009L74.6537 10.0984L69.179 10.8383C69.118 10.8438 69.0601 10.8674 69.0126 10.9061C68.9634 10.9462 68.927 10.9997 68.9078 11.0602C68.8893 11.1184 68.8893 11.1808 68.9078 11.239C68.9201 11.2997 68.9501 11.3555 68.9941 11.3993L71.195 13.7358L68.803 12.4412C68.719 12.3928 68.6221 12.3713 68.5255 12.3795C68.4289 12.3827 68.335 12.4126 68.2543 12.4658C68.1759 12.5241 68.1125 12.6002 68.0693 12.6878C68.03 12.7768 68.0151 12.8747 68.0262 12.9714L68.692 18.2549L66.8425 13.853C66.7502 13.628 66.6015 13.4306 66.4109 13.2796C66.2221 13.1253 65.9973 13.0214 65.7574 12.9775C65.518 12.935 65.2718 12.9522 65.0406 13.0274C64.8094 13.1027 64.6004 13.2338 64.4319 13.4091L61.2692 16.7568L64.2531 11.911C64.3325 11.7897 64.3773 11.649 64.3826 11.5041C64.3926 11.3594 64.3649 11.2146 64.3022 11.0839C64.2395 10.9531 64.144 10.8409 64.025 10.7581C63.9092 10.6721 63.7734 10.6169 63.6304 10.5978L57.8599 9.8395L63.6736 9.32779C63.7356 9.32317 63.7953 9.30184 63.8462 9.26611C63.8949 9.2268 63.9331 9.17595 63.9572 9.11816C63.9752 9.05993 63.9752 8.99761 63.9572 8.93938C63.9432 8.87863 63.9158 8.82175 63.877 8.77291L61.6761 6.36853L64.3209 7.67554C64.3749 7.7005 64.4343 7.71111 64.4935 7.70636C64.5532 7.70403 64.6109 7.68477 64.66 7.65085C64.7082 7.61615 64.7465 7.56939 64.771 7.51524C64.7965 7.46149 64.8071 7.40186 64.8018 7.3426L64.2469 1.96045Z" fill="white"/>
</g>
<defs>
<linearGradient id="paint0_linear_1274_2072" x1="58.0338" y1="15.0113" x2="78.6804" y2="0.223837" gradientUnits="userSpaceOnUse">
<stop stop-color="#2EB5D1"/>
<stop offset="1" stop-color="#008BAA"/>
</linearGradient>
<clipPath id="clip0_1274_2072">
<rect width="89" height="25" fill="white"/>
</clipPath>
</defs>
</svg>
