<svg width="987" height="663" viewBox="0 0 987 663" preserveAspectRatio="none" fill="none" xmlns="http://www.w3.org/2000/svg">
<path fill-rule="evenodd" clip-rule="evenodd" d="M518.812 468.439H559.814L559.887 468.328L560.055 468.439H681.234C683.214 468.439 685.161 468.929 686.901 469.861L687.247 470.054L979.947 639.517C990.4 645.568 986.337 661.397 974.504 661.89L973.935 661.901H851.534L851.258 662.318L850.628 661.901H698.401L698.014 662.262L697.678 661.901H549.204L548.733 662.067L548.674 661.901H329.971L329.879 662.117L329.373 661.901H176.984L176.622 662.271L176.265 661.921L176.245 661.901H12.0206C-0.0950386 661.901 -4.57667 645.988 5.75791 639.665L64.6642 603.63H63.8858V602.63H66.2989L163.005 543.472H161.348V542.472H164.64L282.778 470.202L283.135 469.993C284.814 469.044 286.698 468.513 288.626 468.446L289.04 468.439H365.23L365.254 468.415L365.279 468.439H518.091L518.11 468.421L518.477 468.08L518.812 468.439ZM6.28037 640.518C-3.19333 646.314 0.914585 660.901 12.0206 660.901H176.565L232.706 603.63H66.5811L6.28037 640.518ZM177.964 660.901H329.31L353.724 603.63H234.107L177.964 660.901ZM330.398 660.901H439.309V603.63H354.812L330.398 660.901ZM440.309 660.901H548.32L528.095 603.63H440.309V660.901ZM549.381 660.901H696.746L643.391 603.63H529.155L549.381 660.901ZM698.114 660.901H849.116L762.56 603.63H644.759L698.114 660.901ZM811.754 543.472H673.454L762.862 602.63H913.193V603.63H764.373L850.93 660.901H973.935C985.182 660.901 989.18 646.017 979.446 640.382L811.754 543.295V543.472ZM68.2149 602.63H233.687L291.678 543.472H164.921L68.2149 602.63ZM235.086 602.63H354.15L379.368 543.472H293.078L235.086 602.63ZM355.237 602.63H439.309V543.472H380.455L355.237 602.63ZM440.309 602.63H527.741L506.85 543.472H440.309V602.63ZM528.802 602.63H642.459L587.347 543.472H507.909L528.802 602.63ZM643.827 602.63H761.049L671.642 543.472H588.714L643.827 602.63ZM289.04 469.439C287.015 469.44 285.028 469.999 283.3 471.056L166.556 542.472H292.658L364.25 469.439H289.04ZM294.058 542.472H379.794L410.927 469.439H365.65L294.058 542.472ZM380.882 542.472H439.309V469.439H412.014L380.882 542.472ZM440.309 542.472H506.496L480.705 469.439H440.309V542.472ZM507.557 542.472H586.415L518.377 469.439H481.765L507.557 542.472ZM587.782 542.472H670.13L559.754 469.439H519.743L587.782 542.472ZM671.943 542.472H810.333L686.746 470.92C685.071 469.95 683.17 469.439 681.234 469.439H561.567L671.943 542.472ZM137.42 0.420898H289.649L290.01 0.0751953L290.341 0.420898H438.824L439.294 0.25L439.357 0.420898H658.065L658.152 0.219727L658.61 0.420898H811.054L811.412 0.0654297L811.765 0.420898H974.943C987.14 0.421061 991.56 16.5045 981.075 22.7363L923.361 57.0381H924.144V58.0381H921.679L825.019 115.487H826.682V116.487H823.336L705.202 186.699V186.7C703.347 187.802 701.229 188.384 699.071 188.384H622.829L622.77 188.442L622.712 188.384H469.957L469.918 188.421L469.557 188.767L469.19 188.384H428.228L428.148 188.508L427.954 188.384H306.715C304.654 188.384 302.628 187.853 300.832 186.843L9.34482 22.8799C-1.41784 16.8258 2.87915 0.421023 15.2276 0.420898H136.495L136.766 0L137.42 0.420898ZM301.322 185.972C302.969 186.898 304.826 187.384 306.715 187.384H426.4L316.117 116.487H177.796L301.322 185.972ZM428.249 187.384H468.231L400.249 116.487H317.967L428.249 187.384ZM469.615 187.384H506.251L480.481 116.487H401.635L469.615 187.384ZM507.316 187.384H547.72V116.487H481.545L507.316 187.384ZM548.72 187.384H576.033L607.14 116.487H548.72V187.384ZM577.126 187.384H622.417L693.948 116.487H608.233L577.126 187.384ZM623.838 187.384H699.071C701.049 187.384 702.991 186.85 704.692 185.84L821.379 116.487H695.369L623.838 187.384ZM15.2276 1.4209C3.90819 1.42102 -0.0307068 16.4583 9.83505 22.0078L176.275 115.632V115.487H314.562L225.196 58.0381H74.836V57.0381H223.641L137.125 1.4209H15.2276ZM316.411 115.487H399.29L344.203 58.0381H227.046L316.411 115.487ZM400.676 115.487H480.117L459.235 58.0381H345.589L400.676 115.487ZM481.182 115.487H547.72V58.0381H460.3L481.182 115.487ZM548.72 115.487H607.578L632.784 58.0381H548.72V115.487ZM608.671 115.487H694.957L752.921 58.0381H633.877L608.671 115.487ZM696.378 115.487H823.062L919.722 58.0381H754.342L696.378 115.487ZM225.49 57.0381H343.244L289.914 1.4209H138.976L225.49 57.0381ZM344.63 57.0381H458.872L438.656 1.4209H291.3L344.63 57.0381ZM459.936 57.0381H547.72V1.4209H439.72L459.936 57.0381ZM548.72 57.0381H633.223L657.625 1.4209H548.72V57.0381ZM634.316 57.0381H753.93L810.045 1.4209H658.718L634.316 57.0381ZM755.351 57.0381H921.404L980.564 21.877C990.175 16.1646 986.124 1.42106 974.943 1.4209H811.466L755.351 57.0381Z" fill="url(#paint0_radial_54_32902)"/>
<defs>
<radialGradient id="paint0_radial_54_32902" cx="0" cy="0" r="1" gradientTransform="matrix(-8.1353e-05 -370.489 1880.32 10.7071 493.413 331.411)" gradientUnits="userSpaceOnUse">
<stop/>
<stop offset="0.502715"/>
<stop offset="1" stop-color="#444444"/>
</radialGradient>
</defs>
</svg>
