<?xml version="1.0" encoding="UTF-8" standalone="no"?>
<svg enable-background="new 0 0 82.753 23.36" height="102.80428" viewBox="0 0 354.00001 102.80427" width="354" xmlns="http://www.w3.org/2000/svg">
   <g fill="#05d484" transform="matrix(4.2294539 0 0 4.2294539 2 2)">
      <path d="m47.746 8.792c-.78-.761-1.718-1.366-2.788-1.8-1.074-.434-2.25-.654-3.497-.654-1.267 0-2.455.225-3.529.669-1.07.443-2.011 1.06-2.802 1.829-.79.771-1.416 1.679-1.861 2.7-.445 1.021-.671 2.138-.671 3.375 0 1.178.226 2.292.671 3.313.446 1.022 1.067 1.926 1.846 2.684.78.761 1.718 1.365 2.788 1.798 1.066.435 2.242.655 3.499.655 1.269 0 2.456-.225 3.528-.67 1.069-.442 2.012-1.057 2.803-1.828.788-.768 1.414-1.676 1.86-2.699.446-1.023.672-2.139.672-3.37 0-1.174-.226-2.289-.672-3.316-.447-1.026-1.069-1.93-1.847-2.686m-2.449 6.119c0 .556-.089 1.085-.264 1.578-.174.487-.429.919-.758 1.285-.329.365-.732.656-1.198.865-.916.414-2.263.43-3.201-.012-.474-.225-.888-.527-1.232-.899-.348-.376-.618-.813-.803-1.3-.186-.495-.28-1.024-.28-1.636 0-.556.089-1.088.265-1.581.176-.487.432-.921.76-1.288.33-.364.732-.656 1.195-.865.469-.21 1.014-.317 1.62-.317.566 0 1.094.111 1.571.332.476.219.895.521 1.246.9.346.373.616.811.801 1.301.186.494.278 1.025.278 1.637"/>
      <path d="m57.116 22.925h4.349l6.305-16.145h-5.14l-3.308 9.824-3.283-9.824h-5.227l6.239 15.978z"/>
      <path d="m29.016 18.974c-.232-.218-.35-.62-.35-1.196v-17.778h-4.92v18.124c0 1.78.45 3.114 1.34 3.963.884.844 2.195 1.273 3.897 1.273.394 0 .747-.016 1.054-.045.286-.031.585-.074.901-.134l.214-.041v-3.968l-.305.053c-.84.141-1.433.119-1.831-.251"/>
      <path d="m81.21 8.519c-.591-.656-2.309-2.18-5.475-2.18h-.131c-1.89.02-3.95.594-5.954 1.661l-.236.124 1.73 3.383.232-.102c1.545-.662 2.781-.997 3.778-1.022.485-.013.847.01 1.157.067 1.491.28 1.683 1.321 1.683 2.2l.002.25c-.608-.133-1.98-.376-3.859-.376l-.141.002c-3.455 0-5.776 2.252-5.776 5.604 0 3.396 2.845 5.23 5.521 5.23 2.613 0 3.697-.784 4.36-1.176v.74h4.652v-9.479c0-2.348-.419-3.683-1.543-4.926m-3.111 9.883l-.117.121c-.058.049-1.106.897-2.732.915-.882 0-1.539-.215-1.954-.64-.307-.313-.414-.532-.408-.842.005-.261.155-1.567 2.6-1.567 1.474 0 2.313.357 2.6.507l.002.149c.008.597.012 1.092.009 1.357"/>
      <path d="m20.849 3.67l-.188-.188c-.509-.508-1.071-.983-1.675-1.415-.604-.431-1.267-.801-1.971-1.101-.703-.299-1.501-.537-2.371-.709-.869-.17-1.836-.257-2.873-.257-1.731 0-3.335.31-4.766.919-1.436.611-2.685 1.458-3.713 2.519-1.027 1.059-1.841 2.306-2.421 3.709-.578 1.407-.871 2.93-.871 4.595 0 1.6.293 3.131.871 4.55.579 1.412 1.394 2.656 2.423 3.695 1.028 1.04 2.264 1.869 3.679 2.469 1.41.6 2.962.904 4.611.904 1.092 0 2.085-.093 2.952-.274.876-.181 1.698-.452 2.441-.807.734-.351 1.425-.781 2.052-1.278.625-.495 1.229-1.056 1.795-1.665l.186-.201-3.273-3.308-.212.197c-.884.815-1.778 1.465-2.655 1.929-.862.458-1.941.69-3.204.69-.938 0-1.808-.185-2.588-.548-.784-.364-1.46-.866-2.012-1.493-.554-.629-.995-1.373-1.31-2.212-.316-.84-.476-1.748-.476-2.764 0-.947.16-1.851.475-2.68.316-.83.762-1.567 1.326-2.195.564-.625 1.245-1.121 2.026-1.476.785-.354 1.646-.534 2.559-.534 1.111 0 2.125.223 3.015.661.904.448 1.807 1.077 2.68 1.865l.227.204z"/>
   </g>
</svg>
