<?xml version="1.0" standalone="no"?>
<!DOCTYPE svg PUBLIC "-//W3C//DTD SVG 20010904//EN"
 "http://www.w3.org/TR/2001/REC-SVG-20010904/DTD/svg10.dtd">
<svg version="1.0" xmlns="http://www.w3.org/2000/svg"
 width="512.000000pt" height="512.000000pt" viewBox="0 0 512.000000 512.000000"
 preserveAspectRatio="xMidYMid meet">
<metadata>
Created by potrace 1.14, written by Peter Selinger 2001-2017
</metadata>
<g transform="translate(0.000000,512.000000) scale(0.100000,-0.100000)"
fill="#000000" stroke="none">
<path d="M40 2560 l0 -2560 2520 0 2520 0 0 2560 0 2560 -2520 0 -2520 0 0
-2560z m5000 0 l0 -2510 -1105 0 c-1221 0 -1120 -6 -1091 63 32 79 305 367
418 441 76 51 133 66 273 73 146 7 255 -16 332 -69 108 -74 343 -347 343 -399
0 -24 27 -50 45 -43 31 12 -3 138 -59 221 -66 96 -214 221 -336 283 -69 34
-109 47 -202 65 l-73 14 90 -5 c193 -12 290 -46 393 -140 112 -101 190 -230
215 -355 12 -58 15 -64 37 -64 24 0 25 3 25 60 0 88 22 118 120 167 213 108
335 227 420 412 110 237 77 552 -74 716 l-42 45 21 -42 c11 -24 27 -73 36
-110 21 -90 14 -282 -14 -368 -43 -136 -159 -328 -260 -431 -56 -58 -152 -132
-152 -118 0 3 20 28 44 55 98 109 181 266 218 415 20 78 23 114 23 299 0 252
-15 336 -126 735 -108 388 -198 772 -269 1140 -74 384 -101 482 -212 760 -152
381 -325 608 -607 797 -294 196 -721 301 -1072 264 -134 -15 -394 -68 -541
-112 -380 -113 -822 -372 -1056 -620 -87 -92 -139 -167 -208 -303 -123 -240
-169 -414 -168 -636 0 -129 3 -154 27 -226 58 -176 185 -306 354 -365 75 -26
83 -24 46 9 -40 37 -76 94 -108 173 -14 34 -25 65 -25 68 0 3 18 -22 40 -55
38 -59 104 -127 164 -170 l29 -21 -17 -189 c-60 -669 -113 -1031 -166 -1152
-49 -111 -99 -146 -196 -140 -85 5 -137 41 -179 123 -28 54 -30 67 -30 159 0
83 4 110 23 150 12 27 20 51 18 54 -3 2 -27 -27 -55 -65 -73 -98 -86 -143 -86
-293 0 -121 1 -128 33 -192 98 -200 293 -259 496 -150 70 37 174 144 214 220
18 34 35 62 36 62 8 0 -14 -90 -34 -139 -78 -198 -246 -314 -407 -281 -190 40
-317 163 -357 350 l-14 65 -1 -80 c-2 -140 45 -267 132 -362 63 -69 194 -143
303 -172 39 -10 42 -13 46 -54 10 -89 72 -171 158 -209 58 -26 163 -34 229
-18 72 17 158 83 209 160 38 56 41 59 36 29 -31 -162 -111 -326 -209 -427
l-71 -72 -492 0 -492 0 0 2510 0 2510 2480 0 2480 0 0 -2510z m-2684 2260
c165 -42 301 -125 445 -270 214 -216 370 -520 444 -864 l17 -80 -31 -25 c-49
-41 -42 -61 37 -99 38 -18 84 -46 103 -63 40 -36 41 -36 -84 24 -72 35 -100
54 -107 73 -17 43 -12 63 21 80 28 14 31 19 26 51 -9 55 -16 58 -114 44 -104
-15 -133 -30 -133 -69 0 -34 16 -52 47 -52 21 0 23 -5 23 -49 0 -42 -6 -56
-39 -98 -21 -26 -48 -57 -61 -68 l-23 -20 17 33 c10 18 33 51 52 72 44 48 43
79 -3 99 -37 17 -35 11 -64 151 -41 205 -129 427 -226 573 -26 40 -84 110
-128 156 -242 252 -506 359 -800 322 -49 -6 -101 -13 -115 -16 -14 -3 -5 4 20
16 59 27 264 86 343 98 87 14 239 5 333 -19z m1497 -554 c62 -81 114 -175 172
-309 56 -128 128 -334 139 -397 4 -19 -18 35 -47 120 -61 175 -105 287 -143
363 -31 60 -131 217 -139 217 -3 0 -1 -9 5 -20 6 -10 9 -57 8 -104 l-3 -85
-23 27 -22 27 9 -25 c5 -14 27 -61 49 -105 44 -89 74 -157 70 -161 -2 -1 -27
43 -56 99 -29 56 -62 113 -73 127 l-21 25 6 -27 c3 -14 9 -34 12 -45 4 -13 0
-11 -15 7 l-21 25 0 -32 c0 -18 23 -90 51 -160 70 -174 70 -177 0 -35 -60 122
-132 234 -138 215 -2 -5 8 -36 23 -69 43 -98 114 -277 111 -280 -1 -2 -35 69
-76 156 -40 87 -79 167 -86 177 -13 17 -15 16 -44 -11 l-30 -29 -89 37 c-49
20 -94 36 -100 36 -6 0 23 -71 63 -157 133 -288 195 -462 344 -965 49 -166 96
-321 104 -344 47 -131 106 -397 136 -616 31 -218 24 -219 -14 -3 -53 303 -82
423 -150 635 -24 74 -80 259 -124 410 -153 525 -290 886 -358 942 -14 11 -16
11 -11 -2 22 -61 18 -61 -39 -2 -43 44 -69 62 -96 67 -19 4 -41 4 -46 0 -9 -5
-31 32 -31 52 0 3 29 3 65 0 l65 -6 0 33 c0 18 -6 54 -14 79 -8 26 -13 47 -11
47 2 0 20 -26 39 -58 l36 -59 86 -23 86 -22 29 28 c16 15 29 34 29 41 0 8 -18
42 -41 76 l-41 62 46 -50 c42 -46 46 -48 52 -29 5 19 11 21 45 17 35 -5 39 -4
33 13 -4 11 -17 33 -29 49 -71 99 -70 102 6 23 47 -49 88 -88 92 -88 4 0 -11
28 -34 63 -24 34 -36 56 -27 49 9 -7 34 -38 55 -69 l38 -56 3 76 c2 66 -1 83
-23 129 l-27 53 49 -54 c26 -30 65 -77 86 -105z m-1433 19 c19 -25 39 -45 44
-45 6 0 27 13 46 29 29 25 32 31 21 45 -8 10 -9 16 -3 16 17 0 104 -113 148
-190 37 -65 41 -68 73 -67 33 2 35 -1 57 -53 12 -30 21 -56 19 -58 -2 -2 -17
4 -35 13 -17 9 -37 14 -43 12 -7 -2 -24 18 -39 45 -14 26 -48 78 -74 115 l-48
67 -14 -43 c-15 -44 -14 -47 27 -146 2 -5 -8 4 -22 20 -31 35 -35 20 -12 -44
8 -22 13 -41 11 -41 -2 0 -14 17 -27 38 -19 30 -23 34 -27 18 -3 -14 -6 -16
-12 -6 -14 23 -40 3 -40 -32 l-1 -33 -17 28 c-15 24 -23 27 -69 27 -51 0 -53
1 -78 45 l-27 45 33 41 32 41 -17 36 c-16 33 -16 35 0 21 17 -14 62 -14 77 0
4 4 1 27 -8 50 -23 67 -21 67 25 6z m-170 -199 c49 -79 102 -194 116 -251 l7
-30 -33 30 -32 30 6 -75 6 -75 -28 75 -27 75 -5 -70 -5 -70 -29 50 c-54 93
-59 97 -52 40 4 -27 9 -63 11 -80 l5 -30 -11 30 c-37 98 -35 95 -69 83 -28 -9
-31 -14 -28 -40 l5 -29 -21 25 c-25 29 -67 51 -117 60 -34 6 -38 10 -48 53
-14 53 -14 52 62 80 48 17 49 18 44 53 l-5 35 13 -30 c8 -16 14 -36 15 -42 0
-21 25 -15 50 12 23 24 24 49 6 110 -4 11 1 5 9 -12 8 -18 21 -33 29 -33 8 0
19 -12 25 -27 21 -52 4 107 -18 172 l-20 60 45 -50 c25 -27 67 -86 94 -129z
m-971 3 c-32 -72 -79 -188 -103 -259 -44 -128 -44 -128 -51 -87 -4 23 -8 52
-8 65 -2 26 -4 26 -51 7 -21 -9 -41 -26 -46 -40 -8 -20 -16 -25 -45 -25 l-35
0 26 58 c25 56 118 218 148 257 9 11 -9 -29 -39 -89 -65 -129 -68 -145 -23
-119 48 28 89 73 132 143 35 61 146 220 152 220 1 0 -24 -59 -57 -131z m-392
79 c-61 -73 -167 -235 -202 -311 -18 -40 -53 -117 -77 -172 -25 -55 -49 -111
-56 -125 -25 -57 -9 7 27 110 22 60 36 110 31 110 -4 0 -11 -6 -14 -12 -3 -7
-4 0 -1 15 4 18 2 26 -4 22 -12 -7 8 55 34 106 14 27 279 296 294 298 2 1 -13
-18 -32 -41z m702 -180 c0 -84 3 -168 6 -187 l5 -36 -18 37 c-26 54 -36 59
-29 16 7 -48 2 -48 -18 -2 -10 24 -20 34 -29 31 -8 -3 -33 -11 -56 -18 -26 -8
-46 -22 -55 -38 l-14 -26 -1 24 c0 22 -3 23 -47 18 -27 -3 -55 -8 -63 -12 -10
-3 -24 5 -39 25 -22 31 -22 32 -5 83 30 94 27 91 92 57 31 -16 62 -30 68 -30
6 0 21 39 34 86 12 47 24 83 27 81 2 -3 -1 -23 -6 -45 -6 -22 -15 -61 -20 -86
-8 -43 -7 -46 13 -45 11 0 36 6 55 13 31 11 35 18 64 109 17 53 31 97 33 97 1
0 2 -68 3 -152z m-655 110 c-4 -7 -25 -38 -45 -70 -32 -46 -36 -57 -23 -62 28
-11 32 -7 79 59 58 81 76 92 25 15 -9 -14 -31 -51 -49 -83 l-33 -58 44 7 c26
4 50 15 61 28 9 11 -3 -24 -27 -79 -24 -55 -54 -128 -66 -163 -13 -34 -24 -61
-26 -60 -1 2 1 23 6 48 10 54 5 63 -20 33 -24 -30 -30 -29 -30 8 0 20 -4 28
-11 23 -9 -5 -10 3 -5 30 4 20 5 36 2 36 -11 0 -59 -106 -93 -200 -38 -109
-34 -67 6 60 l27 85 -45 3 c-25 2 -47 5 -50 7 -2 3 19 52 47 110 l51 105 38 0
c35 1 42 6 86 65 26 36 50 65 53 65 3 0 2 -6 -2 -12z m946 -228 c10 -46 18
-86 16 -88 -2 -1 -13 13 -24 33 l-21 35 -84 0 c-51 0 -88 5 -95 12 -9 9 -12 7
-13 -12 -1 -37 -49 107 -49 147 0 39 10 41 135 18 44 -8 81 -15 83 -15 1 0 2
10 3 23 1 29 24 -42 49 -153z m-123 -471 c22 -46 58 -115 81 -153 23 -37 42
-72 42 -77 0 -5 -16 -9 -35 -9 -32 0 -37 4 -64 58 -43 85 -86 214 -115 344
-35 156 -32 164 13 32 21 -61 56 -148 78 -195z m2431 66 c0 -16 -2 -15 -8 5
-11 34 -11 60 0 35 5 -11 8 -29 8 -40z m9 -47 c-3 -8 -6 -5 -6 6 -1 11 2 17 5
13 3 -3 4 -12 1 -19z m-2930 -231 c25 -32 68 -76 97 -97 l53 -40 94 25 c52 14
96 25 98 25 3 0 -5 -10 -16 -22 -23 -26 -63 -89 -63 -101 0 -11 65 18 102 46
54 40 228 117 265 117 6 0 21 -16 34 -35 l24 -35 192 0 192 0 3 58 3 57 15
-60 16 -59 75 -12 c123 -19 116 -13 124 -111 14 -167 -11 -402 -81 -768 -48
-246 -90 -514 -105 -672 -10 -107 -10 -149 0 -230 l13 -98 -58 -53 c-51 -46
-60 -50 -69 -36 -104 174 -216 306 -270 320 -15 4 -96 -3 -179 -15 -177 -25
-328 -28 -378 -7 -55 23 -90 68 -171 214 -186 335 -232 465 -231 648 1 143 8
162 36 105 11 -23 40 -59 64 -78 24 -20 48 -50 55 -66 11 -26 10 -35 -11 -73
-27 -53 -23 -100 14 -153 14 -19 22 -38 17 -41 -6 -3 -5 -25 2 -53 8 -35 21
-57 49 -82 21 -19 43 -35 48 -35 15 0 12 20 -2 21 -7 0 6 9 30 19 23 11 42 21
42 23 0 2 -26 1 -58 -1 -69 -5 -92 12 -76 56 12 33 61 45 162 39 79 -4 112
-20 67 -31 -15 -4 -25 -9 -22 -12 3 -3 31 3 61 13 46 15 56 22 54 38 -2 15 -9
19 -30 17 -17 -2 -61 15 -124 48 -86 45 -103 51 -139 46 -37 -6 -43 -4 -63 23
-20 28 -21 31 -6 67 22 52 12 78 -56 151 -62 66 -90 127 -73 157 5 10 32 34
59 55 53 39 108 121 125 186 24 89 -15 174 -104 225 -54 31 -67 35 -67 22 0
-5 27 -23 60 -42 33 -19 60 -38 60 -43 0 -5 -8 -6 -17 -3 -9 4 -38 9 -63 11
l-45 4 55 -14 c30 -8 61 -13 67 -10 14 5 43 -44 43 -71 0 -12 -10 -7 -39 19
-46 41 -99 55 -146 38 -17 -6 -34 -11 -38 -11 -9 0 -47 76 -47 93 0 24 74 50
125 45 51 -6 58 4 18 26 l-28 15 35 14 c19 9 63 21 98 28 34 7 61 16 60 19
-101 200 -145 306 -97 230 12 -19 42 -61 66 -93z m2079 -332 c22 -13 46 -31
53 -39 19 -23 -44 -31 -91 -12 -45 19 -132 20 -173 2 -21 -9 -37 -10 -52 -3
-30 13 -29 21 4 43 76 49 184 53 259 9z m-2226 -128 c0 -19 3 -37 7 -40 3 -4
8 -19 9 -34 2 -15 13 -40 25 -56 17 -24 19 -31 8 -38 -31 -20 -60 -10 -75 26
-17 42 -19 146 -2 163 20 20 28 14 28 -21z m-22 -215 c9 -7 8 -13 -8 -27 -20
-18 -20 -18 -20 8 0 28 6 32 28 19z m2649 -504 c-2 -13 -4 -3 -4 22 0 25 2 35
4 23 2 -13 2 -33 0 -45z m-2533 36 c3 -8 2 -12 -4 -9 -6 3 -10 10 -10 16 0 14
7 11 14 -7z m121 -18 c19 -8 35 -17 35 -20 0 -10 -84 -6 -100 4 -13 9 -13 11
0 20 20 13 25 13 65 -4z m-20 -56 c-3 -5 -12 -10 -18 -10 -7 0 -6 4 3 10 19
12 23 12 15 0z m3070 -185 c97 -260 97 -435 1 -630 -43 -86 -118 -184 -156
-205 -15 -8 -13 2 12 61 60 144 108 402 108 584 0 67 -26 277 -45 365 -8 38
38 -62 80 -175z m-634 -10 l-10 -60 4 70 c3 39 6 97 7 130 l2 60 3 -70 c2 -38
-1 -97 -6 -130z m-796 -112 l7 -83 -32 -17 c-18 -10 -62 -37 -98 -61 -36 -23
-67 -41 -69 -39 -3 3 99 303 155 457 l17 45 6 -110 c3 -60 9 -147 14 -192z
m782 5 c-3 -7 -5 -2 -5 12 0 14 2 19 5 13 2 -7 2 -19 0 -25z m-170 -180 c-3
-8 -6 -5 -6 6 -1 11 2 17 5 13 3 -3 4 -12 1 -19z m-563 -146 c19 -93 18 -99
-49 -152 -88 -70 -173 -57 -209 33 l-20 48 25 23 c33 33 223 146 230 138 3 -4
13 -44 23 -90z m-1764 -369 c-16 -102 -61 -232 -101 -294 -77 -121 -195 -176
-296 -138 -28 10 -83 57 -83 69 0 4 36 10 80 14 119 10 178 35 242 105 60 64
118 172 144 269 10 34 19 60 22 57 3 -2 -1 -39 -8 -82z m1296 -72 c42 -47 177
-147 242 -180 23 -12 42 -23 42 -26 0 -2 -43 -34 -95 -71 -83 -57 -470 -254
-479 -243 -2 2 -10 25 -18 50 -9 25 -59 114 -112 197 -53 83 -96 153 -96 155
0 2 26 7 58 10 78 7 129 35 191 104 29 32 79 82 112 111 l61 53 28 -60 c16
-32 45 -78 66 -100z m755 -227 c-150 -47 -311 -172 -401 -309 -23 -36 -43 -65
-45 -65 -1 0 0 12 3 28 3 19 1 24 -6 17 -24 -23 -65 -122 -85 -206 l-22 -89
-77 0 c-96 0 -96 0 -29 132 87 170 171 282 259 341 120 81 224 124 387 160 46
10 57 4 16 -9z m-434 -155 c-63 -63 -133 -142 -156 -177 -23 -34 -93 -114
-156 -177 l-113 -115 -192 0 -192 0 63 73 c107 121 212 223 217 209 2 -7 -3
-24 -12 -37 -9 -13 -16 -27 -16 -30 0 -8 104 51 213 122 54 35 121 75 150 89
29 15 93 51 144 81 89 52 155 84 161 78 1 -1 -48 -54 -111 -116z m-759 -249
c-25 -43 -178 -218 -191 -219 -22 -2 73 133 149 212 57 58 74 61 42 7z m-308
-136 c0 -3 -15 -23 -32 -44 -31 -38 -36 -40 -92 -40 l-58 0 83 43 c88 46 99
51 99 41z m60 1 c0 -2 -7 -23 -16 -45 -14 -34 -21 -40 -45 -40 -16 0 -29 3
-29 8 0 11 30 55 48 70 16 12 42 17 42 7z"/>
<path d="M1752 3026 c-52 -13 -102 -50 -124 -89 -14 -27 -8 -28 36 -6 l39 19
-19 -23 c-10 -12 -25 -32 -31 -44 -11 -19 -11 -21 3 -16 15 5 14 3 -1 -20 -17
-27 -9 -37 12 -16 9 9 10 7 6 -10 -8 -31 2 -26 25 12 11 19 34 44 52 57 l33
24 -7 -30 c-4 -16 -9 -37 -12 -46 -3 -9 5 -25 17 -37 13 -12 17 -21 11 -21
-20 0 -13 -17 22 -54 29 -31 40 -36 79 -36 38 0 51 6 81 34 37 34 46 61 24 69
-9 3 -7 9 6 19 12 9 17 21 13 32 -8 21 -8 21 47 -10 32 -18 46 -32 46 -46 0
-30 -68 -90 -125 -111 -68 -24 -180 -23 -246 3 -36 13 -57 16 -68 10 -13 -8
-13 -9 6 -10 32 0 53 -10 53 -25 0 -9 8 -11 22 -7 16 4 19 2 13 -8 -6 -10 -4
-12 8 -7 9 3 19 2 21 -2 3 -5 21 -7 41 -4 22 2 35 -1 35 -8 0 -8 4 -8 15 1 8
6 19 9 25 5 6 -4 17 -2 25 5 10 8 19 8 34 0 17 -9 21 -8 21 5 0 13 6 15 30 10
25 -5 29 -4 24 9 -5 13 1 16 27 17 19 0 28 3 22 6 -23 9 -14 23 15 24 23 0 24
1 7 8 -17 7 -13 10 23 20 42 12 57 30 25 32 -10 0 -2 5 17 11 31 9 32 11 15
18 -18 7 -16 10 15 23 19 8 42 17 50 20 8 3 0 6 -17 6 -33 1 -44 15 -20 24 6
3 -2 3 -20 0 -17 -3 -39 0 -50 6 -13 8 -14 11 -3 11 18 0 -119 77 -175 97 -22
8 -69 21 -105 28 l-65 13 52 1 c31 1 75 -7 105 -19 28 -11 54 -18 56 -16 2 2
-23 14 -55 26 -74 28 -144 33 -211 16z"/>
<path d="M1250 2332 c0 -4 16 -20 35 -35 36 -29 52 -15 18 15 -22 18 -53 30
-53 20z"/>
<path d="M1297 1888 c-3 -12 -4 -25 -1 -30 7 -11 33 21 34 40 0 21 -27 13 -33
-10z"/>
<path d="M2349 845 c-56 -38 -60 -72 -7 -60 19 4 29 -5 60 -55 l37 -60 -99 50
c-55 28 -103 50 -107 50 -5 0 -21 -12 -36 -26 -30 -27 -25 -49 10 -49 9 0 35
-30 59 -69 36 -57 41 -71 31 -87 -9 -14 -9 -21 1 -31 13 -13 38 -3 95 35 33
22 24 41 -19 42 -21 0 -32 11 -57 53 l-30 54 102 -51 c83 -42 105 -49 121 -41
11 6 20 14 20 17 0 4 -27 48 -61 99 -33 51 -59 101 -58 111 4 19 -7 43 -19 43
-4 0 -24 -11 -43 -25z"/>
</g>
</svg>
