<svg width="159" height="36" viewBox="0 0 159 36" fill="none" xmlns="http://www.w3.org/2000/svg">
<g clip-path="url(#clip0_573_4154)">
<path d="M2.39062 30.8556V6.95523H10.2777C14.4091 6.95523 18.1308 9.4477 18.1308 14.4327C18.1308 19.5542 14.4091 22.4222 10.2777 22.4222H6.3854V30.8556H2.39062ZM6.3854 18.6664H10.2777C12.0533 18.6664 14.136 17.4032 14.136 14.7058C14.136 11.9743 12.0533 10.711 10.2777 10.711H6.3854V18.6664ZM28.6767 31.3678C23.6918 31.3678 19.8678 27.2705 19.8678 22.2856C19.8678 17.2666 23.6918 13.1693 28.6767 13.1693C31.4424 13.1693 33.5251 14.6375 34.8225 16.6862V13.6815H38.5783V30.8556H34.8225V27.851C33.5251 29.8996 31.4424 31.3678 28.6767 31.3678ZM23.6235 22.2856C23.6235 25.3244 26.0478 27.612 29.2231 27.612C32.3984 27.612 34.8225 25.3586 34.8225 22.2856C34.8225 19.1786 32.3984 16.9251 29.2231 16.9251C26.0478 16.9251 23.6235 19.2128 23.6235 22.2856ZM42.6612 30.8556V13.6815H46.3827V16.4812C47.2705 14.6716 48.8411 13.4424 51.5043 13.4424V17.2324C48.7387 17.0616 46.3827 18.325 46.3827 22.2856V30.8556H42.6612ZM61.8533 31.3678C56.8683 31.3678 53.0442 27.2705 53.0442 22.2856C53.0442 17.2666 56.8683 13.1693 61.8533 13.1693C64.6189 13.1693 66.7016 14.6375 67.9991 16.6862V13.6815H71.7548V30.8556H67.9991V27.851C66.7016 29.8996 64.6189 31.3678 61.8533 31.3678ZM56.8001 22.2856C56.8001 25.3244 59.2242 27.612 62.3995 27.612C65.5748 27.612 67.9991 25.3586 67.9991 22.2856C67.9991 19.1786 65.5748 16.9251 62.3995 16.9251C59.2242 16.9251 56.8001 19.2128 56.8001 22.2856ZM82.3249 31.3678C79.1496 31.3678 75.9059 29.9338 74.8133 27.9192L77.4766 25.7C78.2959 26.7585 80.1055 27.7144 82.3249 27.7144C83.5199 27.7144 85.2612 27.3047 85.2612 25.8365C85.2612 24.3684 83.315 24.3342 81.4029 23.8904C77.2716 22.9685 75.5645 21.4662 75.5645 18.6323C75.5645 15.1155 78.5691 13.1693 81.9834 13.1693C84.8856 13.1693 86.9 14.3302 88.0951 15.252L86.2855 18.1884C85.2954 17.4032 83.315 16.8227 81.9834 16.8227C80.6177 16.8227 79.3544 17.4372 79.3544 18.5298C79.3544 19.6224 80.3446 19.9638 82.0176 20.3736C84.749 21.0224 89.0512 21.432 89.0512 25.6317C89.0512 29.8996 85.3637 31.3678 82.3249 31.3678ZM100.431 31.3678C95.4463 31.3678 91.6223 27.2705 91.6223 22.2856C91.6223 17.2666 95.4463 13.1693 100.431 13.1693C103.197 13.1693 105.28 14.6375 106.577 16.6862V13.6815H110.333V30.8556H106.577V27.851C105.28 29.8996 103.197 31.3678 100.431 31.3678ZM95.378 22.2856C95.378 25.3244 97.8023 27.612 100.978 27.612C104.153 27.612 106.577 25.3586 106.577 22.2856C106.577 19.1786 104.153 16.9251 100.978 16.9251C97.8023 16.9251 95.378 19.2128 95.378 22.2856ZM114.86 30.8556V13.6815H118.581V30.8556H114.86ZM114.416 8.93556C114.416 7.67224 115.44 6.64795 116.703 6.64795C117.967 6.64795 118.991 7.67224 118.991 8.93556C118.991 10.1989 117.967 11.2232 116.703 11.2232C115.44 11.2232 114.416 10.1989 114.416 8.93556ZM123.085 30.8556V6.95523H126.841V30.8556H123.085Z" fill="#021539"/>
<path d="M134.539 22.8633C139.013 22.8633 142.639 26.4898 142.639 30.9632H134.539V22.8633Z" fill="#021539"/>
<path fill-rule="evenodd" clip-rule="evenodd" d="M134.539 14.7459V14.764C143.486 14.7641 150.739 22.0169 150.739 30.9636H150.757L150.739 30.9282C154.051 30.7295 159.552 28.4948 158.186 21.4025C156.375 14.5323 150.965 9.12335 144.093 7.31484C137.006 5.95501 134.773 11.4525 134.575 14.7634L134.539 14.7459Z" fill="#021539"/>
</g>
<defs>
<clipPath id="clip0_573_4154">
<rect width="158.4" height="36" fill="white"/>
</clipPath>
</defs>
</svg>
