<svg xmlns="http://www.w3.org/2000/svg" width="143" height="32" fill="none"><g clip-path="url(#a)"><path fill="#0b318f" d="M23.937 1.436c0 .793-.652 1.436-1.457 1.436a1.446 1.446 0 0 1-1.456-1.436C21.024.643 21.676 0 22.48 0c.805 0 1.456.643 1.456 1.436"/><mask id="b" width="30" height="31" x="0" y="2" maskUnits="userSpaceOnUse" style="mask-type:luminance"><path fill="#fff" d="M5.344 21.633c.826.215 1.669.401 2.524.539.633.101 1.27.176 1.908.237q-.609.603-1.24 1.155a18 18 0 0 1-2.464 1.832c-.839.51-1.701.904-2.486 1.086-.314.072-.61.108-.87.11l2.63-4.96zM11.74 8.17l.67-.03a30 30 0 0 1 1.983.003q1.321.045 2.627.218c1.733.232 3.442.64 4.986 1.273.77.317 1.498.692 2.13 1.127.633.433 1.167.928 1.518 1.443.353.517.527 1.025.517 1.576-.008.544-.22 1.15-.637 1.747-.412.597-1 1.165-1.675 1.668-.674.505-1.434.95-2.238 1.34-1.608.777-3.378 1.336-5.194 1.718a30 30 0 0 1-1.97.336 59 59 0 0 0 1.764-3.764c.89-2.086 1.677-4.2 2.393-6.328a85 85 0 0 1-3.65 5.647 52 52 0 0 1-3.75 4.735l-.378.017a30 30 0 0 1-2.831-.01 27 27 0 0 1-2.82-.314l-.418-.068-.14.338L0 31.72c.16.055.417.11.507.135a4.6 4.6 0 0 0 .665.113c.264.027.512.034.747.032.473-.01.912-.065 1.324-.15a9.2 9.2 0 0 0 2.213-.771c1.317-.655 2.37-1.487 3.3-2.364a22 22 0 0 0 2.439-2.78c.72-.962 1.363-1.95 1.956-2.953.076-.13.147-.264.223-.394h.41c.994-.012 1.995-.07 2.992-.177 1.995-.217 3.993-.623 5.942-1.334.973-.355 1.936-.79 2.866-1.346.926-.559 1.828-1.236 2.613-2.14.39-.451.747-.96 1.034-1.534a6.1 6.1 0 0 0 .65-2.417l.004-.09v-.147a5.899 5.899 0 0 0-.113-1.274c-.13-.667-.37-1.3-.671-1.869-.61-1.143-1.439-2.042-2.314-2.794a16 16 0 0 0-2.784-1.875c-1.932-1.032-3.957-1.726-6.011-2.217a34 34 0 0 0-6.238-.863l-.02 5.659z"/></mask><g mask="url(#b)"><path fill="url(#c)" d="M29.895 2.511H0V32h29.895z"/></g><path fill="#0b318f" d="M37.79 13.632V3.038h5.935q2.589-.001 3.64.409 1.051.409 1.588 1.155.534.747.535 1.883 0 2.183-1.824 3.326-1.822 1.142-4.888 1.143h-1.463v5.927L37.79 13.63zm3.523-4.462h.674q1.98 0 2.91-.718.93-.717.929-1.684a1.8 1.8 0 0 0-.292-.991q-.294-.444-.907-.699-.615-.255-1.963-.256h-1.351V9.17M51.836 16.2V6.538h3.452v1.82q.617-.93 1.691-1.486 1.074-.554 2.39-.554.315 0 .642.054v2.322a5 5 0 0 0-1.365-.203q-1.027 0-1.865.392a4.3 4.3 0 0 0-1.493 1.184V16.2zM72.177 15.733q-2.445.545-4.636.546-2.073 0-3.633-.585-1.558-.584-2.4-1.83a4.73 4.73 0 0 1-.84-2.704q0-1.355.713-2.504.714-1.149 2.074-1.813 1.361-.664 3.356-.665 2.444 0 3.905 1.18t1.46 4.39h-7.87q.115.976.583 1.539t1.265.894q.799.33 2.137.329 1.722 0 3.883-.607v1.83zm-7.93-5.455h4.535q0-1.327-.581-1.9t-1.503-.573c-.67 0-1.216.21-1.647.628q-.645.63-.807 1.845M75.425 16.06V8.026h-1.76V6.401h1.76v-.697q0-2.023 1.23-2.89t3.493-.868q1.525 0 3.147.333v1.76q-1.47-.466-2.635-.466-.549 0-.938.161a1.28 1.28 0 0 0-.618.547q-.228.383-.228 1.324v.793h3.243v1.627h-3.243v8.032h-3.452zM94.588 15.733q-2.444.545-4.635.546-2.074 0-3.633-.585-1.559-.584-2.4-1.83a4.73 4.73 0 0 1-.84-2.704q0-1.355.713-2.504t2.074-1.813 3.355-.665q2.445 0 3.905 1.18t1.461 4.39h-7.87q.114.976.583 1.539.466.562 1.264.894.799.33 2.138.329 1.72 0 3.883-.607v1.83zm-7.93-5.455h4.535q0-1.327-.58-1.9-.581-.573-1.503-.573c-.67 0-1.216.21-1.648.628q-.644.63-.806 1.845M97.473 16.06V6.397h3.451v1.82q.618-.93 1.692-1.486t2.39-.554q.316 0 .642.053v2.323a5 5 0 0 0-1.365-.203 4.4 4.4 0 0 0-1.866.392 4.26 4.26 0 0 0-1.493 1.184v6.132zM107.589 16.06V6.397h3.452v1.82q.617-.93 1.691-1.486 1.073-.555 2.39-.554.316 0 .642.053v2.323a5 5 0 0 0-1.365-.203 4.4 4.4 0 0 0-1.866.392 4.3 4.3 0 0 0-1.492 1.184v6.132zM128.07 15.733q-2.447.545-4.636.546-2.073 0-3.632-.585-1.56-.584-2.4-1.83a4.74 4.74 0 0 1-.841-2.704q0-1.355.713-2.504.714-1.149 2.074-1.813 1.361-.664 3.356-.665 2.445 0 3.905 1.18t1.461 4.39h-7.871q.115.976.583 1.539t1.265.894q.798.33 2.137.329 1.723 0 3.883-.607v1.83zm-7.93-5.455h4.535q0-1.327-.581-1.9t-1.503-.573q-1.002 0-1.647.628-.644.63-.807 1.845M138.894 16.059v-1.83a4.2 4.2 0 0 1-1.686 1.538q-1.03.511-2.447.512-2.323.001-3.603-1.315-1.277-1.315-1.277-3.47 0-2.278 1.426-3.798 1.428-1.516 3.984-1.518.69 0 1.267.109.577.111 1.106.338.528.228 1.232.747V2.168h3.452v13.891h-3.454m0-7.138q-.709-.616-1.336-.834a3.8 3.8 0 0 0-1.277-.22q-1.37 0-2.049 1.016-.68 1.015-.679 2.385c0 .914.211 1.622.632 2.156q.633.805 1.831.805.764 0 1.513-.408.747-.409 1.363-1.076V8.924z"/><path fill="#0b318f" d="m37.79 29.305-.017-14.28L48.94 25.179v-8.895h2.88v13.021h-3.223l-7.925-7.594v7.594zM65.316 28.979q-2.445.544-4.636.546-2.073 0-3.632-.585t-2.4-1.83a4.74 4.74 0 0 1-.84-2.704q0-1.356.712-2.502.713-1.149 2.077-1.813 1.362-.664 3.355-.665 2.445-.001 3.905 1.18 1.46 1.179 1.461 4.39h-7.87q.116.976.583 1.539c.31.377.733.672 1.264.894q.797.33 2.138.331 1.72 0 3.883-.606v1.83zm-7.93-5.456h4.535q0-1.327-.581-1.9t-1.503-.572q-1 0-1.647.628-.645.63-.806 1.844M74.348 29.252q-1.235.272-1.948.273-1.693 0-2.623-.36-.933-.362-1.4-.982t-.465-1.825v-5.085h-1.434v-1.627h1.434l3.45-1.926v1.926h2.741v1.627h-2.74v4.735q0 1.044.49 1.412.489.363 1.434.364.443 0 1.061-.106zM78.503 29.305l-3.567-9.661h3.212l2.52 6.765 2.679-6.765h2.983l2.42 6.801 2.715-6.801h2.407l-3.809 9.66h-3.307l-2.333-6.625-2.613 6.626zM101.109 29.525q-2.077 0-3.562-.612-1.489-.613-2.267-1.798a4.7 4.7 0 0 1-.782-2.64c0-.966.257-1.836.77-2.624q.767-1.183 2.262-1.803 1.493-.622 3.579-.622c1.389 0 2.593.208 3.586.622q1.487.62 2.262 1.803.776 1.182.777 2.625c0 .962-.26 1.846-.782 2.64q-.78 1.186-2.267 1.797-1.485.613-3.574.612m0-1.627q1.47 0 2.211-.971.74-.972.74-2.451c0-.987-.247-1.796-.74-2.447q-.742-.976-2.211-.976c-.981 0-1.704.326-2.199.976q-.74.977-.74 2.447c0 .979.248 1.803.74 2.45q.74.972 2.199.972M109.698 29.305v-9.661h3.451v1.82q.618-.932 1.691-1.487 1.074-.554 2.39-.553.316 0 .64.053V21.8a5 5 0 0 0-1.363-.203q-1.026 0-1.865.391a4.3 4.3 0 0 0-1.493 1.185v6.132zM119.358 29.305V17.534h3.451v6.615h.223l4.56-4.505h2.887l-4.221 4.143 5.508 5.518h-4.187l-4.547-4.832h-.223v4.832zM132.938 28.996v-1.91q2.565.81 4.382.81.967-.001 1.545-.307.577-.309.578-.783-.001-.415-.431-.694-.432-.272-1.319-.537l-1.167-.353c-1.203-.362-2.096-.766-2.669-1.206q-.864-.65-.863-1.699 0-1.258 1.299-2.076 1.298-.82 3.971-.82 1.563 0 3.719.344v1.83q-2.075-.548-3.44-.547-1.073 0-1.61.278-.537.276-.537.718 0 .343.351.607.338.263 1.235.52l1.003.29q2.485.713 3.252 1.382.758.677.758 1.62-.002 1.223-1.392 2.141-1.394.92-4.052.919a21.2 21.2 0 0 1-4.618-.527"/></g><defs><linearGradient id="c" x1="-.025" x2="29.87" y1="17.193" y2="17.193" gradientUnits="userSpaceOnUse"><stop stop-color="#00a0e9"/><stop offset="1" stop-color="#14126f"/></linearGradient><clipPath id="a"><path fill="#fff" d="M0 0h143v32H0z"/></clipPath></defs></svg>
