<svg width="158" height="26" viewBox="0 0 158 26" fill="none" xmlns="http://www.w3.org/2000/svg">
<path d="M7.41311 5.54371C8.38487 5.54371 9.10675 5.71002 9.60651 5.95949V9.14712C8.9124 8.73134 8.32934 8.53731 7.41311 8.53731C4.63667 8.53731 2.99856 9.78465 2.99856 12.5565V20.4563H0V5.54371H2.99856V8.70362C3.69267 6.79104 5.0809 5.54371 7.41311 5.54371Z" fill="white"/>
<path d="M18.6996 17.7399C21.5593 17.7399 22.6699 16.9638 23.0308 15.467H26.0294C25.6407 18.4328 23.0586 20.7335 18.6996 20.7335C13.5909 20.7335 10.9811 17.5181 10.9811 13C10.9811 8.48188 13.5909 5.26652 18.6996 5.26652C23.1974 5.26652 26.2515 7.84435 26.2515 14.1919H14.0629C14.3683 16.6588 15.8121 17.7399 18.6996 17.7399ZM18.6996 8.26013C15.7566 8.26013 14.3406 9.36887 14.0352 11.8913H23.2807C23.0308 8.89765 21.1706 8.26013 18.6996 8.26013Z" fill="white"/>
<path d="M28.7406 14.8294H31.7391C31.7391 16.6311 33.0441 17.7953 36.0149 17.7953C38.6802 17.7953 39.7353 17.2964 39.7353 16.2708C39.7353 15.3006 38.7913 14.8571 36.6534 14.4136L34.7377 14.0533C30.9895 13.3326 29.1015 12.0576 29.1015 9.61834C29.1015 6.8742 31.3782 5.26652 35.5151 5.26652C39.9852 5.26652 42.0397 7.73348 42.0397 11.032H39.0412C39.0412 9.258 38.1527 8.23241 35.5151 8.23241C33.1829 8.23241 32.1001 8.62047 32.1001 9.61834C32.1001 10.6439 32.9052 11.1983 34.7377 11.5032L36.5979 11.8358C40.7071 12.5288 42.7616 13.4989 42.7616 16.2708C42.7616 19.4307 39.8741 20.7335 36.0149 20.7335C31.1005 20.7335 28.7406 18.4051 28.7406 14.8294Z" fill="white"/>
<path d="M53.1935 5.26652C57.1916 5.26652 60.4122 7.95522 60.4122 12.8891C60.4122 17.823 57.1916 20.5117 53.1935 20.5117C51.0834 20.5117 49.362 19.6802 48.2236 18.1557V26H45.2528V5.54371H48.2236V7.51173C49.362 6.04264 51.0834 5.26652 53.1935 5.26652ZM52.9991 17.5458C55.6367 17.5458 57.4414 15.661 57.4414 12.8891C57.4414 10.1173 55.6367 8.26013 52.9991 8.26013C50.5558 8.26013 48.2236 9.23028 48.2236 12.8891C48.2236 16.5203 50.5558 17.5458 52.9991 17.5458Z" fill="white"/>
<path d="M70.3784 17.7399C73.2381 17.7399 74.3487 16.9638 74.7096 15.467H77.7082C77.3195 18.4328 74.7374 20.7335 70.3784 20.7335C65.2697 20.7335 62.6599 17.5181 62.6599 13C62.6599 8.48188 65.2697 5.26652 70.3784 5.26652C74.8762 5.26652 77.9303 7.84435 77.9303 14.1919H65.7417C66.0471 16.6588 67.4909 17.7399 70.3784 17.7399ZM70.3784 8.26013C67.4353 8.26013 66.0194 9.36887 65.7139 11.8913H74.9595C74.7096 8.89765 72.8494 8.26013 70.3784 8.26013Z" fill="white"/>
<path d="M87.5956 17.7399C90.4553 17.7399 91.5659 16.9638 91.9269 15.467H94.9254C94.5367 18.4328 91.9546 20.7335 87.5956 20.7335C82.4869 20.7335 79.8771 17.5181 79.8771 13C79.8771 8.48188 82.4869 5.26652 87.5956 5.26652C92.0934 5.26652 95.1475 7.84435 95.1475 14.1919H82.9589C83.2643 16.6588 84.7081 17.7399 87.5956 17.7399ZM87.5956 8.26013C84.6526 8.26013 83.2366 9.36887 82.9312 11.8913H92.1767C91.9269 8.89765 90.0666 8.26013 87.5956 8.26013Z" fill="white"/>
<path d="M104.702 20.7335C100.01 20.7335 97.0943 17.6013 97.0943 13C97.0943 8.39872 100.01 5.26652 104.702 5.26652C108.839 5.26652 111.143 7.51173 111.726 11.0043H108.617C108.061 9.258 106.729 8.26013 104.702 8.26013C101.981 8.26013 100.093 10.1173 100.093 13C100.093 15.8827 101.981 17.7399 104.702 17.7399C106.701 17.7399 108.061 16.742 108.617 15.0512H111.726C111.115 18.4883 108.839 20.7335 104.702 20.7335Z" fill="white"/>
<path d="M122.532 5.54371C125.808 5.54371 128.14 7.81663 128.14 12.3348V20.4563H125.142V12.3348C125.142 9.84009 124.17 8.50959 121.893 8.50959C119.172 8.50959 117.229 9.5629 117.229 12.3348V20.4563H114.23V0H117.229V8.86994C117.978 6.5693 119.672 5.54371 122.532 5.54371Z" fill="white"/>
<path d="M138.353 17.7399C141.212 17.7399 142.323 16.9638 142.684 15.467H145.682C145.294 18.4328 142.712 20.7335 138.353 20.7335C133.244 20.7335 130.634 17.5181 130.634 13C130.634 8.48188 133.244 5.26652 138.353 5.26652C142.85 5.26652 145.904 7.84435 145.904 14.1919H133.716C134.021 16.6588 135.465 17.7399 138.353 17.7399ZM138.353 8.26013C135.409 8.26013 133.993 9.36887 133.688 11.8913H142.934C142.684 8.89765 140.824 8.26013 138.353 8.26013Z" fill="white"/>
<path d="M155.807 5.54371C156.778 5.54371 157.5 5.71002 158 5.95949V9.14712C157.306 8.73134 156.723 8.53731 155.807 8.53731C153.03 8.53731 151.392 9.78465 151.392 12.5565V20.4563H148.393V5.54371H151.392V8.70362C152.086 6.79104 153.474 5.54371 155.807 5.54371Z" fill="white"/>
</svg>
