<?xml version="1.0" encoding="UTF-8"?>
<svg id="Layer_1" data-name="Layer 1" xmlns="http://www.w3.org/2000/svg" width="159.26" height="34" viewBox="0 0 159.26 34">
  <path d="M.96,10.98l.26-.9c.98-2.3,3.08-3.81,5.51-4.25C7.48,1.49,11.67-1.19,15.95.12c.62.19,1.16.52,1.78.72,4.38-2.67,10.14-.04,10.79,5.06,3.56.38,6.24,3.66,6.11,7.21-.05,1.31-.58,2.47-1.07,3.67.26.6.59,1.17.77,1.82,1.16,4.2-1.5,8.34-5.81,8.96-.69,4.48-5.09,7.16-9.42,5.68-.53-.18-1.02-.47-1.55-.65-4.38,2.69-10.09.04-10.8-5.03-3.1-.43-5.49-2.71-5.99-5.76-.21-1.35.05-2.75.22-3.31.19-.64.56-1.21.73-1.86-.54-.92-.79-1.81-.98-2.85v-.07c-.12-.9-.04-1.82.22-2.7v-.02ZM27.14,7.29c.33-4.88-5.18-7.87-9.08-4.88l-5.33,5.25c-.02.07.04.11.07.15.09.14,1.61,1.66,1.72,1.7.09.05.13.04.2-.04l5.04-5.04c2.93-1.98,6.17,1.53,3.99,4.31l-5.94,5.94-.24.07-5.96-5.93c-1.91-2.17-.11-5.42,2.73-4.92l2.04-2.02C12.46-.21,7.84,2.92,8.16,7.3c-4.89-.44-7.89,5.3-4.77,9.11l5.22,5.19,1.91-1.82-4.97-4.96c-2.21-2.65.79-6.19,3.74-4.47l6.44,6.4-5.94,5.95c-1.68,1.62-4.72.65-4.97-1.7-.04-.3.07-.77-.05-1.02-.06-.12-1.7-1.76-1.87-1.87-.07-.05-.08-.12-.2-.08-1.89,3.92,1.1,8.45,5.46,8.13-.3,4.92,5.33,7.88,9.21,4.76l5.21-5.22-1.66-1.74-.24-.07-4.9,4.88c-2.59,2.27-6.27-.77-4.47-3.74l6.34-6.43,6.02,6.01c1.88,2.34.14,5.24-2.72,4.92l-2.04,2.07c4,1.93,8.47-1.04,8.22-5.44,4.21.3,7.27-3.95,5.55-7.86-.27-.63-.78-1.27-1.23-1.78-1.46-1.64-3.28-3.14-4.78-4.75l-1.89,1.89,5.04,5.05c2.26,3.01-1.59,6.44-4.37,3.95l-5.89-5.9,6.11-6.17c1.57-1.41,4.39-.49,4.77,1.59.07.38-.05,1.04.08,1.3.06.12,1.7,1.75,1.87,1.87.07.05.08.12.2.08,1.87-3.94-1.05-8.5-5.46-8.13v-.04ZM21.17,5.35c-.25.05-.49.21-.67.39l-4.92,4.93,2.07,2.06,5.05-5.04c.83-1.16-.13-2.6-1.53-2.34ZM7.41,11.37c-.95.15-1.41,1.35-.98,2.17l5.19,5.21,2.08-2.06-5.01-5.01c-.39-.28-.8-.39-1.28-.31h-.01ZM23.68,14.6c-.5.66-1.56,1.35-2,1.99-.05.07-.12.11-.04.2l4.85,4.83c1.37,1.17,3.2-.26,2.34-1.85,0,0-5.16-5.17-5.16-5.17ZM17.59,20.71l-5.08,5.1c-.85,1.48.92,3.02,2.25,1.92l4.93-4.91c.07-.09,0-.13-.04-.2-.13-.2-1.64-1.7-1.83-1.83-.08-.06-.12-.09-.24-.07Z" style="fill: #fff;"/>
  <path d="M82.27,30.21h-3.99v-12.4c0-.31-.39-1.25-.56-1.56-1.63-2.91-5.86-3.05-7.66-.21-.17.26-.66,1.36-.66,1.61v12.44l-.12.12h-3.87v-12.15c0-2.14-2.38-4.09-4.44-4.12s-4.52,1.88-4.52,3.95v12.32h-3.99v-12.08c.3-5.42,5.36-9.24,10.69-7.82,1.68.45,3.08,1.42,4.26,2.66,4.92-5.74,14.33-2.57,14.86,4.92v12.32h-.01Z" style="fill: #fff;"/>
  <path d="M102.71,12.08v-1.47h3.99v19.6h-3.99v-1.47c-3.66,2.57-8.25,2.99-12.13.6-5.37-3.3-6.61-10.57-2.69-15.53,3.1-3.91,8.56-5.06,13.03-2.85l1.79,1.1h0ZM95.2,13.89c-3.95.45-6.46,4.65-5.36,8.39,1.31,4.45,6.92,6.19,10.51,3.17,5.05-4.25,1.54-12.32-5.15-11.56Z" style="fill: #fff;"/>
  <path d="M146.68,12.08v-1.47h3.99v19.6h-3.87l-.12-.12v-1.34c-3.08,2.18-6.82,2.84-10.39,1.47-5.88-2.26-8.44-9.29-5.43-14.85s10.65-7.22,15.81-3.28h.01ZM139.18,13.89c-2.92.33-5.38,3.05-5.6,5.95-.47,6.47,7.75,9.7,11.73,4.63,3.7-4.72-.15-11.25-6.12-10.59h-.01Z" style="fill: #fff;"/>
  <path d="M122.57,6.88v3.74h3.67v3.74h-3.67v8.33c0,.21.33,1.03.45,1.27.62,1.23,1.86,2.14,3.22,2.35v3.99c-3.24-.19-6.13-2.52-7.18-5.55-.14-.4-.46-1.44-.46-1.81V6.88h3.99-.01Z" style="fill: #fff;"/>
  <polygon points="158.65 10.62 158.65 30.09 158.54 30.21 154.67 30.21 154.67 10.62 158.65 10.62" style="fill: #fff;"/>
  <polygon points="114.6 10.62 114.6 30.21 110.73 30.21 110.61 30.09 110.61 10.75 110.73 10.62 114.6 10.62" style="fill: #fff;"/>
  <path d="M156.11,2.59c2.62-.4,4.22,2.71,2.31,4.5-1.92,1.79-5.17-.21-4.21-2.83.26-.72,1.14-1.54,1.92-1.67h-.01Z" style="fill: #fff;"/>
  <path d="M112.14,2.59c3.63-.53,4.19,4.79.86,5.17-3.6.41-3.92-4.72-.86-5.17Z" style="fill: #fff;"/>
</svg>
