<?xml version="1.0" encoding="UTF-8"?>
<svg id="_图层_2" data-name="图层 2" xmlns="http://www.w3.org/2000/svg" xmlns:xlink="http://www.w3.org/1999/xlink" viewBox="0 0 158.71 44.64">
  <defs>
    <style>
      .cls-1 {
        fill: url(#_未命名的渐变_91);
      }

      .cls-1, .cls-2, .cls-3, .cls-4, .cls-5, .cls-6, .cls-7, .cls-8, .cls-9, .cls-10, .cls-11, .cls-12, .cls-13, .cls-14, .cls-15, .cls-16, .cls-17, .cls-18, .cls-19, .cls-20, .cls-21, .cls-22, .cls-23, .cls-24, .cls-25, .cls-26, .cls-27, .cls-28 {
        stroke-width: 0px;
      }

      .cls-2 {
        fill: url(#_未命名的渐变_680-2);
      }

      .cls-3 {
        fill: url(#_未命名的渐变_622);
      }

      .cls-4 {
        fill: url(#_未命名的渐变_628);
      }

      .cls-5 {
        fill: url(#_未命名的渐变_637);
      }

      .cls-6 {
        fill: url(#_未命名的渐变_680);
      }

      .cls-7 {
        fill: url(#_未命名的渐变_171);
      }

      .cls-8 {
        fill: url(#_未命名的渐变_381);
      }

      .cls-9 {
        fill: url(#_未命名的渐变_503);
      }

      .cls-10 {
        fill: url(#_未命名的渐变_147);
      }

      .cls-11 {
        fill: url(#_未命名的渐变_121);
      }

      .cls-12 {
        fill: url(#_未命名的渐变_126);
      }

      .cls-13 {
        fill: url(#_未命名的渐变_162);
      }

      .cls-14 {
        fill: url(#_未命名的渐变_155);
      }

      .cls-15 {
        fill: url(#_未命名的渐变_165);
      }

      .cls-16 {
        fill: url(#_未命名的渐变_105);
      }

      .cls-17 {
        fill: url(#_未命名的渐变_203);
      }

      .cls-18 {
        fill: url(#_未命名的渐变_201);
      }

      .cls-19 {
        fill: url(#_未命名的渐变_182);
      }

      .cls-20 {
        fill: url(#_未命名的渐变_181);
      }

      .cls-21 {
        fill: url(#_未命名的渐变_196);
      }

      .cls-22 {
        fill: #231815;
      }

      .cls-23 {
        fill: #c82826;
      }

      .cls-24 {
        fill: #b60005;
      }

      .cls-25 {
        fill: #edc300;
      }

      .cls-26 {
        fill: #e83828;
      }

      .cls-27 {
        fill: #e83820;
      }

      .cls-28 {
        fill: #f5c91f;
      }
    </style>
    <linearGradient id="_未命名的渐变_381" data-name="未命名的渐变 381" x1="35.55" y1="-18.42" x2="82.81" y2="28.84" gradientUnits="userSpaceOnUse">
      <stop offset=".57" stop-color="#e94843" stop-opacity="0"/>
      <stop offset=".61" stop-color="#e54641" stop-opacity=".04"/>
      <stop offset=".67" stop-color="#da413d" stop-opacity=".16"/>
      <stop offset=".74" stop-color="#c83837" stop-opacity=".36"/>
      <stop offset=".82" stop-color="#af2c2e" stop-opacity=".63"/>
      <stop offset=".9" stop-color="#901e22" stop-opacity=".97"/>
      <stop offset=".9" stop-color="#8e1d22"/>
      <stop offset=".93" stop-color="#8e1d22" stop-opacity=".98"/>
      <stop offset=".94" stop-color="#8e1d22" stop-opacity=".91"/>
      <stop offset=".96" stop-color="#8e1d22" stop-opacity=".8"/>
      <stop offset=".97" stop-color="#8e1d22" stop-opacity=".64"/>
      <stop offset=".99" stop-color="#8e1d22" stop-opacity=".43"/>
      <stop offset="1" stop-color="#8e1d22" stop-opacity=".2"/>
    </linearGradient>
    <linearGradient id="_未命名的渐变_162" data-name="未命名的渐变 162" x1="7.1" y1="15.65" x2="30.37" y2="15.65" gradientUnits="userSpaceOnUse">
      <stop offset="0" stop-color="#a01f24"/>
      <stop offset=".3" stop-color="#e7211a"/>
      <stop offset=".36" stop-color="#e72922" stop-opacity=".96"/>
      <stop offset=".47" stop-color="#ea413b" stop-opacity=".86"/>
      <stop offset=".6" stop-color="#ee6762" stop-opacity=".68"/>
      <stop offset=".75" stop-color="#f49c99" stop-opacity=".44"/>
      <stop offset=".92" stop-color="#fbdfde" stop-opacity=".14"/>
      <stop offset="1" stop-color="#fff" stop-opacity="0"/>
    </linearGradient>
    <linearGradient id="_未命名的渐变_155" data-name="未命名的渐变 155" x1="6.38" y1="16.7" x2="29.96" y2="12.54" gradientUnits="userSpaceOnUse">
      <stop offset=".2" stop-color="#8f0108"/>
      <stop offset=".27" stop-color="#980009" stop-opacity=".89"/>
      <stop offset=".51" stop-color="#b9000c" stop-opacity=".51"/>
      <stop offset=".73" stop-color="#d1000f" stop-opacity=".23"/>
      <stop offset=".9" stop-color="#e00011" stop-opacity=".06"/>
      <stop offset="1" stop-color="#e60012" stop-opacity="0"/>
    </linearGradient>
    <linearGradient id="_未命名的渐变_503" data-name="未命名的渐变 503" x1="6.38" y1="16.7" x2="29.96" y2="12.54" gradientUnits="userSpaceOnUse">
      <stop offset="0" stop-color="#fff" stop-opacity=".5"/>
      <stop offset=".24" stop-color="#fff" stop-opacity="0"/>
    </linearGradient>
    <linearGradient id="_未命名的渐变_622" data-name="未命名的渐变 622" x1="48.55" y1="30.7" x2="71.52" y2="34.75" gradientUnits="userSpaceOnUse">
      <stop offset="0" stop-color="#f5c91f"/>
      <stop offset=".12" stop-color="#f0bf1f"/>
      <stop offset=".31" stop-color="#e6a71f"/>
      <stop offset=".56" stop-color="#d47f20"/>
      <stop offset=".85" stop-color="#bc4822"/>
      <stop offset="1" stop-color="#ae2823"/>
    </linearGradient>
    <linearGradient id="_未命名的渐变_165" data-name="未命名的渐变 165" x1="48.55" y1="30.7" x2="71.52" y2="34.75" gradientUnits="userSpaceOnUse">
      <stop offset="0" stop-color="#fdd000"/>
      <stop offset=".15" stop-color="#fbcc00"/>
      <stop offset=".27" stop-color="#f6c201"/>
      <stop offset=".38" stop-color="#eeb102"/>
      <stop offset=".49" stop-color="#e39904"/>
      <stop offset=".59" stop-color="#d47a06"/>
      <stop offset=".69" stop-color="#c25309"/>
      <stop offset=".79" stop-color="#ad270d"/>
      <stop offset=".85" stop-color="#9f0810"/>
    </linearGradient>
    <linearGradient id="_未命名的渐变_628" data-name="未命名的渐变 628" x1="48.55" y1="30.7" x2="71.52" y2="34.75" gradientUnits="userSpaceOnUse">
      <stop offset=".75" stop-color="#fff" stop-opacity="0"/>
      <stop offset=".79" stop-color="#fff" stop-opacity=".1"/>
      <stop offset=".85" stop-color="#fff" stop-opacity=".23"/>
      <stop offset=".9" stop-color="#fff" stop-opacity=".32"/>
      <stop offset=".96" stop-color="#fff" stop-opacity=".38"/>
      <stop offset="1" stop-color="#fff" stop-opacity=".4"/>
    </linearGradient>
    <linearGradient id="_未命名的渐变_147" data-name="未命名的渐变 147" x1="30.56" y1="57.55" x2="73.44" y2="6.44" gradientUnits="userSpaceOnUse">
      <stop offset=".74" stop-color="#e60012" stop-opacity="0"/>
      <stop offset=".77" stop-color="#df0011" stop-opacity=".08"/>
      <stop offset=".84" stop-color="#cd000f" stop-opacity=".28"/>
      <stop offset=".92" stop-color="#b0000b" stop-opacity=".61"/>
      <stop offset="1" stop-color="#8f0108"/>
    </linearGradient>
    <linearGradient id="_未命名的渐变_637" data-name="未命名的渐变 637" x1="16.07" y1="4.26" x2="82.31" y2="22.01" gradientUnits="userSpaceOnUse">
      <stop offset=".88" stop-color="#fff" stop-opacity="0"/>
      <stop offset=".9" stop-color="#fff" stop-opacity=".04"/>
      <stop offset=".93" stop-color="#fff" stop-opacity=".13"/>
      <stop offset=".97" stop-color="#fff" stop-opacity=".28"/>
      <stop offset="1" stop-color="#fff" stop-opacity=".4"/>
    </linearGradient>
    <linearGradient id="_未命名的渐变_203" data-name="未命名的渐变 203" x1="26.1" y1="48.95" x2="56.33" y2="-3.42" gradientUnits="userSpaceOnUse">
      <stop offset="0" stop-color="#7e0000"/>
      <stop offset=".01" stop-color="#840001" stop-opacity=".94"/>
      <stop offset=".07" stop-color="#9e0005" stop-opacity=".69"/>
      <stop offset=".14" stop-color="#b40009" stop-opacity=".47"/>
      <stop offset=".21" stop-color="#c7000c" stop-opacity=".3"/>
      <stop offset=".29" stop-color="#d5000f" stop-opacity=".16"/>
      <stop offset=".4" stop-color="#de0010" stop-opacity=".07"/>
      <stop offset=".55" stop-color="#e40011" stop-opacity=".01"/>
      <stop offset=".96" stop-color="#e60012" stop-opacity="0"/>
    </linearGradient>
    <linearGradient id="_未命名的渐变_680" data-name="未命名的渐变 680" x1="52.16" y1="15.78" x2="75.27" y2="29.12" gradientUnits="userSpaceOnUse">
      <stop offset=".22" stop-color="#fff" stop-opacity="0"/>
      <stop offset=".26" stop-color="#fff" stop-opacity=".11"/>
      <stop offset=".32" stop-color="#fff" stop-opacity=".25"/>
      <stop offset=".38" stop-color="#fff" stop-opacity=".36"/>
      <stop offset=".45" stop-color="#fff" stop-opacity=".44"/>
      <stop offset=".51" stop-color="#fff" stop-opacity=".48"/>
      <stop offset=".58" stop-color="#fff" stop-opacity=".5"/>
      <stop offset=".68" stop-color="#fff" stop-opacity=".49"/>
      <stop offset=".74" stop-color="#fff" stop-opacity=".46"/>
      <stop offset=".79" stop-color="#fff" stop-opacity=".4"/>
      <stop offset=".84" stop-color="#fff" stop-opacity=".32"/>
      <stop offset=".88" stop-color="#fff" stop-opacity=".21"/>
      <stop offset=".92" stop-color="#fff" stop-opacity=".09"/>
      <stop offset=".95" stop-color="#fff" stop-opacity="0"/>
    </linearGradient>
    <linearGradient id="_未命名的渐变_680-2" data-name="未命名的渐变 680" x1="3.68" y1="13.61" x2="24.47" y2="31.06" xlink:href="#_未命名的渐变_680"/>
    <linearGradient id="_未命名的渐变_91" data-name="未命名的渐变 91" x1="40.43" y1="26.96" x2="79.67" y2="26.96" gradientUnits="userSpaceOnUse">
      <stop offset="0" stop-color="#e60012"/>
      <stop offset=".32" stop-color="#d80c18"/>
      <stop offset=".6" stop-color="#c8161d" stop-opacity="0"/>
    </linearGradient>
    <linearGradient id="_未命名的渐变_182" data-name="未命名的渐变 182" x1="58.02" y1="42.23" x2="73.91" y2="14.7" gradientUnits="userSpaceOnUse">
      <stop offset="0" stop-color="#fdd000"/>
      <stop offset=".1" stop-color="#fbc901"/>
      <stop offset=".23" stop-color="#f5b805"/>
      <stop offset=".39" stop-color="#ec9c0b"/>
      <stop offset=".56" stop-color="#e07414"/>
      <stop offset=".73" stop-color="#d04220"/>
      <stop offset=".82" stop-color="#c82826"/>
    </linearGradient>
    <linearGradient id="_未命名的渐变_121" data-name="未命名的渐变 121" x1="40.43" y1="26.96" x2="79.67" y2="26.96" gradientUnits="userSpaceOnUse">
      <stop offset=".78" stop-color="#fdd000" stop-opacity="0"/>
      <stop offset=".85" stop-color="#f3ac0a" stop-opacity=".17"/>
      <stop offset="1" stop-color="#db5425" stop-opacity=".6"/>
    </linearGradient>
    <linearGradient id="_未命名的渐变_126" data-name="未命名的渐变 126" x1="52.57" y1="44.21" x2="78.12" y2="18.66" gradientUnits="userSpaceOnUse">
      <stop offset="0" stop-color="#b79200"/>
      <stop offset=".04" stop-color="#b89300" stop-opacity=".98"/>
      <stop offset=".08" stop-color="#bc9700" stop-opacity=".92"/>
      <stop offset=".12" stop-color="#c49d00" stop-opacity=".81"/>
      <stop offset=".16" stop-color="#cea600" stop-opacity=".67"/>
      <stop offset=".2" stop-color="#dbb200" stop-opacity=".48"/>
      <stop offset=".24" stop-color="#ebc000" stop-opacity=".25"/>
      <stop offset=".27" stop-color="#fdd000" stop-opacity="0"/>
    </linearGradient>
    <linearGradient id="_未命名的渐变_105" data-name="未命名的渐变 105" x1="40.43" y1="22.22" x2="79.67" y2="22.22" gradientUnits="userSpaceOnUse">
      <stop offset="0" stop-color="#fff5d7" stop-opacity=".5"/>
      <stop offset=".1" stop-color="#fff5d8" stop-opacity=".49"/>
      <stop offset=".19" stop-color="#fff6db" stop-opacity=".44"/>
      <stop offset=".27" stop-color="#fff7e1" stop-opacity=".37"/>
      <stop offset=".35" stop-color="#fff9e9" stop-opacity=".27"/>
      <stop offset=".43" stop-color="#fffcf3" stop-opacity=".15"/>
      <stop offset=".5" stop-color="#fff" stop-opacity="0"/>
    </linearGradient>
    <linearGradient id="_未命名的渐变_196" data-name="未命名的渐变 196" x1="10.04" y1="8.44" x2="22.31" y2="29.69" gradientUnits="userSpaceOnUse">
      <stop offset=".46" stop-color="#e60012" stop-opacity="0"/>
      <stop offset=".52" stop-color="#d1000f" stop-opacity=".24"/>
      <stop offset=".63" stop-color="#ad000b" stop-opacity=".65"/>
      <stop offset=".71" stop-color="#970008" stop-opacity=".9"/>
      <stop offset=".76" stop-color="#8f0108"/>
      <stop offset=".86" stop-color="#900008" stop-opacity=".99"/>
      <stop offset=".9" stop-color="#940008" stop-opacity=".94"/>
      <stop offset=".92" stop-color="#9b0009" stop-opacity=".86"/>
      <stop offset=".94" stop-color="#a5000a" stop-opacity=".74"/>
      <stop offset=".96" stop-color="#b3000c" stop-opacity=".58"/>
      <stop offset=".98" stop-color="#c3000e" stop-opacity=".39"/>
      <stop offset=".99" stop-color="#d60010" stop-opacity=".17"/>
      <stop offset="1" stop-color="#e60012" stop-opacity="0"/>
    </linearGradient>
    <linearGradient id="_未命名的渐变_201" data-name="未命名的渐变 201" x1="6.68" y1="10.44" x2="25.18" y2="28.94" gradientUnits="userSpaceOnUse">
      <stop offset=".7" stop-color="#fff" stop-opacity="0"/>
      <stop offset=".83" stop-color="#fff" stop-opacity=".2"/>
      <stop offset=".94" stop-color="#fff" stop-opacity=".35"/>
      <stop offset="1" stop-color="#fff" stop-opacity=".4"/>
    </linearGradient>
    <linearGradient id="_未命名的渐变_181" data-name="未命名的渐变 181" x1=".91" y1="22.73" x2="26.46" y2="7.98" gradientUnits="userSpaceOnUse">
      <stop offset=".21" stop-color="#c8161d" stop-opacity="0"/>
      <stop offset=".28" stop-color="#d23a17" stop-opacity=".2"/>
      <stop offset=".37" stop-color="#dd6111" stop-opacity=".41"/>
      <stop offset=".46" stop-color="#e7830b" stop-opacity=".59"/>
      <stop offset=".55" stop-color="#ef9f07" stop-opacity=".74"/>
      <stop offset=".64" stop-color="#f5b404" stop-opacity=".85"/>
      <stop offset=".73" stop-color="#f9c301" stop-opacity=".93"/>
      <stop offset=".82" stop-color="#fccc00" stop-opacity=".98"/>
      <stop offset=".9" stop-color="#fdd000"/>
    </linearGradient>
    <linearGradient id="_未命名的渐变_171" data-name="未命名的渐变 171" x1="3.78" y1="27.32" x2="23.79" y2="7.32" gradientUnits="userSpaceOnUse">
      <stop offset=".68" stop-color="#fdd108" stop-opacity="0"/>
      <stop offset=".8" stop-color="#fdd007" stop-opacity="0"/>
      <stop offset=".84" stop-color="#fdd007" stop-opacity=".03"/>
      <stop offset=".87" stop-color="#fdd007" stop-opacity=".08"/>
      <stop offset=".9" stop-color="#fdd006" stop-opacity=".15"/>
      <stop offset=".92" stop-color="#fdd006" stop-opacity=".24"/>
      <stop offset=".94" stop-color="#fdd005" stop-opacity=".34"/>
      <stop offset=".95" stop-color="#fdd004" stop-opacity=".47"/>
      <stop offset=".97" stop-color="#fdd003" stop-opacity=".62"/>
      <stop offset=".99" stop-color="#fdd001" stop-opacity=".79"/>
      <stop offset="1" stop-color="#fdd000" stop-opacity=".98"/>
      <stop offset="1" stop-color="#fdd000"/>
    </linearGradient>
  </defs>
  <g id="_图层_1-2" data-name="图层 1">
    <g>
      <g>
        <path class="cls-27" d="m76.83,34.82c2.58-3.64,3.46-8.22,2.39-12.55-.01-.05-.03-.09-.04-.14-.01-.05-.03-.09-.04-.14-.03-.09-.05-.18-.08-.27-.06-.18-.12-.36-.18-.54-.03-.09-.06-.18-.1-.27-.06-.14-.12-.29-.18-.43-.02-.05-.05-.11-.07-.17,0-.02-.02-.04-.03-.05-.03-.07-.06-.14-.09-.21-.01-.04-.03-.07-.05-.1-.01-.04-.03-.07-.05-.1-.05-.1-.09-.19-.14-.28-.02-.04-.04-.09-.07-.13-.04-.07-.07-.14-.11-.2-.05-.1-.11-.2-.17-.3,0,0,0-.02-.01-.02-.09-.16-.19-.31-.29-.47-.03-.04-.05-.08-.09-.13-.1-.14-.19-.29-.3-.43,0-.01-.01-.02-.03-.03-.1-.14-.2-.27-.31-.41-.11-.14-.22-.28-.34-.41-.12-.13-.23-.27-.36-.4-.08-.08-.16-.17-.24-.25-.06-.06-.12-.13-.19-.19-.06-.06-.13-.13-.19-.18-.07-.06-.14-.13-.21-.19-.06-.06-.12-.11-.18-.16-.09-.09-.19-.17-.29-.24-.36-.3-.74-.58-1.14-.84-.19-.13-.38-.24-.57-.35-.21-.13-.43-.25-.65-.36-.1-.06-.21-.11-.32-.16-.1-.05-.21-.1-.32-.15-.22-.1-.43-.19-.65-.28-.11-.04-.22-.09-.33-.13,0,0-.01,0-.02,0-.05-.02-.1-.04-.14-.05-.05-.02-.11-.04-.17-.06-.1-.03-.2-.06-.3-.1-.02,0-.03-.01-.05-.01-.07-.02-.13-.04-.2-.06-.05-.02-.1-.03-.16-.04-.09-.03-.17-.05-.26-.07-.04-.01-.08-.02-.12-.03-.09-.02-.19-.04-.29-.06-.22-.05-.44-.09-.66-.13-.21-.04-.42-.06-.63-.09-.1-.01-.2-.02-.3-.03-.08,0-.16-.01-.23-.02-.03,0-.05,0-.08,0-.07,0-.14-.01-.21-.01-.03,0-.05,0-.07,0h-.03c-.08,0-.17,0-.25-.01-.02,0-.04,0-.06,0-.11,0-.23,0-.34,0-.95,0-1.92.1-2.88.31-.03,0-.05.01-.08.02-.16.04-.31.08-.46.13-.15.04-.3.09-.45.14-.13.04-.26.08-.4.13-.08.03-.16.05-.24.08-.09.03-.18.06-.27.1,0,0-.01,0-.02,0-.1.04-.2.08-.3.12-.05.02-.09.04-.14.06-.07.03-.13.05-.2.08-.06.03-.12.05-.18.08-.15.06-.29.13-.44.19-.15.06-.29.13-.44.21-.01,0-.02.01-.04.02-.13.06-.27.13-.4.2-.14.07-.27.14-.41.22-.08.04-.17.09-.25.14-.08.05-.17.09-.25.14-.11.06-.22.13-.34.2-.08.05-.16.1-.23.14-.11.07-.22.14-.33.22-.09.06-.18.12-.26.18-.13.09-.26.18-.39.27-.13.09-.26.19-.39.29-2.39,1.86-4.59,3.96-6.57,6.25-3.1,3.33-6.26,6.6-9.48,9.8,0,0,0,0,0,0-.48.41-.96.82-1.45,1.23-2.88,2.28-6.03,4.2-9.36,5.74-5.18,2.25-10.92,2.85-16.45,1.73C5.7,38.77.38,32.17,0,24.44c0-4.46,1.68-8.72,4.66-11.96-3.26,3.76-3.97,9.11-1.81,13.6,2.06,4.01,6.3,6.42,10.79,6.15,3.43-.17,6.75-1.24,9.62-3.13,3.08-1.99,5.95-4.28,8.58-6.83.74-.78,1.49-1.56,2.24-2.34,1.88-1.95,3.79-3.87,5.73-5.77,2.74-2.65,5.71-5.04,8.89-7.14,3.97-2.49,8.54-3.85,13.22-3.94,5.18-.14,10.19,1.81,13.91,5.43,3.71,3.61,5.8,8.58,5.8,13.76-.07,4.79-1.85,9.17-4.78,12.55Z"/>
        <path class="cls-8" d="m81.62,22.27c0-5.18-2.08-10.14-5.8-13.76-3.71-3.62-8.73-5.57-13.91-5.43-1.8.04-3.59.26-5.34.67v12.2c.1-.07.19-.15.29-.22.13-.09.26-.18.39-.27.09-.06.18-.12.26-.18.11-.07.22-.14.33-.22.08-.05.15-.1.23-.14.11-.07.22-.13.34-.2.08-.05.17-.1.25-.14.08-.05.17-.1.25-.14.14-.08.27-.15.41-.22.13-.07.26-.13.4-.2.01,0,.02-.01.04-.02.14-.07.29-.14.44-.21.15-.07.29-.13.44-.19.06-.03.12-.05.18-.08.06-.03.13-.05.2-.08.05-.02.09-.04.14-.06.1-.04.2-.08.3-.12,0,0,.01,0,.02,0,.09-.03.18-.06.27-.1.08-.03.16-.06.24-.08.13-.05.26-.09.4-.13.15-.05.3-.09.45-.14.15-.04.31-.09.46-.13.03,0,.05-.01.08-.02.97-.21,1.93-.31,2.88-.31.11,0,.23,0,.34,0,.02,0,.04,0,.06,0,.08,0,.17,0,.25.01h.03s.05,0,.07,0c.07,0,.14,0,.21.01.03,0,.05,0,.08,0,.08,0,.16.01.23.02.1,0,.2.02.3.03.21.03.42.05.63.09.22.04.44.08.66.13.1.02.19.04.29.06.04,0,.08.02.12.03.09.02.18.04.26.07.05.01.11.03.16.04.07.02.14.04.2.06.01,0,.03,0,.05.01.1.03.2.06.3.1.06.02.11.04.17.06.05.01.1.03.14.05,0,0,.01,0,.02,0,.11.04.22.08.33.13.22.08.44.18.65.28.11.05.21.1.32.15.11.05.21.1.32.16.22.11.44.23.65.36.19.11.38.23.57.35.39.26.77.54,1.14.84.1.08.19.16.29.24.06.05.12.1.18.16.07.06.14.13.21.19.06.06.13.12.19.18.06.06.13.12.19.19.08.08.16.16.24.25.12.13.24.26.36.4.12.13.23.27.34.41.11.13.21.27.31.41.01.01.02.02.03.03.1.14.2.28.3.43.03.04.06.08.09.13.1.15.2.31.29.47,0,0,.01.01.01.02.06.1.12.2.17.3.04.07.08.13.11.2.03.04.05.08.07.13.05.09.1.19.14.28.02.03.04.07.05.1.02.03.04.07.05.1.03.07.06.14.09.21,0,.02.02.04.03.05.03.06.05.11.07.17.06.14.12.29.18.43.04.09.07.18.1.27.06.18.13.36.18.54.03.09.06.18.08.27.01.05.03.09.04.14.01.05.03.09.04.14,1.07,4.33.19,8.91-2.39,12.55,2.93-3.38,4.72-7.76,4.78-12.55Z"/>
        <path class="cls-25" d="m30.23,15.22c-.13.12-.32.14-.48.05-.75-.49-1.53-.94-2.32-1.36-1.68-.89-3.45-1.61-5.28-2.14-2.77-.7-5.67-.66-8.42.1-4.36,1.46-7.05,5.85-6.36,10.4-1.22-5.39,1.8-10.83,7.02-12.65,2.72-.78,5.61-.8,8.34-.05,3,.92,5.65,2.73,7.6,5.19.07.16.02.35-.11.47Z"/>
        <path class="cls-13" d="m30.23,15.22c-.13.12-.32.14-.48.05-.75-.49-1.53-.94-2.32-1.36-1.68-.89-3.45-1.61-5.28-2.14-2.77-.7-5.67-.66-8.42.1-4.36,1.46-7.05,5.85-6.36,10.4-1.22-5.39,1.8-10.83,7.02-12.65,2.72-.78,5.61-.8,8.34-.05,3,.92,5.65,2.73,7.6,5.19.07.16.02.35-.11.47Z"/>
        <path class="cls-14" d="m30.23,15.22c-.13.12-.32.14-.48.05-.75-.49-1.53-.94-2.32-1.36-1.68-.89-3.45-1.61-5.28-2.14-2.77-.7-5.67-.66-8.42.1-4.36,1.46-7.05,5.85-6.36,10.4-1.22-5.39,1.8-10.83,7.02-12.65,2.72-.78,5.61-.8,8.34-.05,3,.92,5.65,2.73,7.6,5.19.07.16.02.35-.11.47Z"/>
        <path class="cls-9" d="m30.23,15.22c-.13.12-.32.14-.48.05-.75-.49-1.53-.94-2.32-1.36-1.68-.89-3.45-1.61-5.28-2.14-2.77-.7-5.67-.66-8.42.1-4.36,1.46-7.05,5.85-6.36,10.4-1.22-5.39,1.8-10.83,7.02-12.65,2.72-.78,5.61-.8,8.34-.05,3,.92,5.65,2.73,7.6,5.19.07.16.02.35-.11.47Z"/>
        <path class="cls-28" d="m72.64,28.08c0,.13-.02.25-.03.38,0,.05,0,.09-.01.14-.02.16-.04.31-.07.47-.05.31-.11.61-.18.91-.08.31-.16.62-.27.93-1.44,3.66-4.43,6.48-8.16,7.73-3.85,1.17-8.01.71-11.51-1.26-1.58-.9-3.03-2-4.33-3.26-.12-.17-.09-.4.06-.54.16-.14.39-.14.54,0,2.43,1.77,5.18,3.06,8.1,3.81,3.66.76,7.48.15,10.72-1.71,2.82-1.57,4.73-4.39,5.14-7.6Z"/>
        <path class="cls-3" d="m72.64,28.08c0,.13-.02.25-.03.38,0,.05,0,.09-.01.14-.02.16-.04.31-.07.47-.05.31-.11.61-.18.91-.08.31-.16.62-.27.93-1.44,3.66-4.43,6.48-8.16,7.73-3.85,1.17-8.01.71-11.51-1.26-1.58-.9-3.03-2-4.33-3.26-.12-.17-.09-.4.06-.54.16-.14.39-.14.54,0,2.43,1.77,5.18,3.06,8.1,3.81,3.66.76,7.48.15,10.72-1.71,2.82-1.57,4.73-4.39,5.14-7.6Z"/>
        <path class="cls-15" d="m72.64,28.08c0,.13-.02.25-.03.38,0,.05,0,.09-.01.14-.02.16-.04.31-.07.47-.05.31-.11.61-.18.91-.08.31-.16.62-.27.93-1.44,3.66-4.43,6.48-8.16,7.73-3.85,1.17-8.01.71-11.51-1.26-1.58-.9-3.03-2-4.33-3.26-.12-.17-.09-.4.06-.54.16-.14.39-.14.54,0,2.43,1.77,5.18,3.06,8.1,3.81,3.66.76,7.48.15,10.72-1.71,2.82-1.57,4.73-4.39,5.14-7.6Z"/>
        <path class="cls-4" d="m72.64,28.08c0,.13-.02.25-.03.38,0,.05,0,.09-.01.14-.02.16-.04.31-.07.47-.05.31-.11.61-.18.91-.08.31-.16.62-.27.93-1.44,3.66-4.43,6.48-8.16,7.73-3.85,1.17-8.01.71-11.51-1.26-1.58-.9-3.03-2-4.33-3.26-.12-.17-.09-.4.06-.54.16-.14.39-.14.54,0,2.43,1.77,5.18,3.06,8.1,3.81,3.66.76,7.48.15,10.72-1.71,2.82-1.57,4.73-4.39,5.14-7.6Z"/>
        <path class="cls-10" d="m81.62,22.27c0-5.18-2.08-10.14-5.8-13.76-3.71-3.62-8.73-5.57-13.91-5.43-4.68.09-9.25,1.45-13.22,3.94-3.18,2.1-6.15,4.49-8.89,7.14-.14.14-.27.27-.41.41v18.38c.35-.29.69-.59,1.04-.88,0,0,0,0,0,0,3.22-3.2,6.39-6.47,9.48-9.8,1.98-2.29,4.18-4.39,6.57-6.25.13-.1.26-.19.39-.29.13-.09.26-.18.39-.27.09-.06.18-.12.26-.18.11-.07.22-.14.33-.22.08-.05.15-.1.23-.14.11-.07.22-.13.34-.2.08-.05.17-.1.25-.14.08-.05.17-.1.25-.14.14-.08.27-.15.41-.22.13-.07.26-.13.4-.2.01,0,.02-.01.04-.02.14-.07.29-.14.44-.21.15-.07.29-.13.44-.19.06-.03.12-.05.18-.08.06-.03.13-.05.2-.08.05-.02.09-.04.14-.06.1-.04.2-.08.3-.12,0,0,.01,0,.02,0,.09-.03.18-.06.27-.1.08-.03.16-.06.24-.08.13-.05.26-.09.4-.13.15-.05.3-.09.45-.14.15-.04.31-.09.46-.13.03,0,.05-.01.08-.02.97-.21,1.93-.31,2.88-.31.11,0,.23,0,.34,0,.02,0,.04,0,.06,0,.08,0,.17,0,.25.01h.03s.05,0,.07,0c.07,0,.14,0,.21.01.03,0,.05,0,.08,0,.08,0,.16.01.23.02.1,0,.2.02.3.03.21.03.42.05.63.09.22.04.44.08.66.13.1.02.19.04.29.06.04,0,.08.02.12.03.09.02.18.04.26.07.05.01.11.03.16.04.07.02.14.04.2.06.01,0,.03,0,.05.01.1.03.2.06.3.1.06.02.11.04.17.06.05.01.1.03.14.05,0,0,.01,0,.02,0,.11.04.22.08.33.13.22.08.44.18.65.28.11.05.21.1.32.15.11.05.21.1.32.16.22.11.44.23.65.36.19.11.38.23.57.35.39.26.77.54,1.14.84.1.08.19.16.29.24.06.05.12.1.18.16.07.06.14.13.21.19.06.06.13.12.19.18.06.06.13.12.19.19.08.08.16.16.24.25.12.13.24.26.36.4.12.13.23.27.34.41.11.13.21.27.31.41.01.01.02.02.03.03.1.14.2.28.3.43.03.04.06.08.09.13.1.15.2.31.29.47,0,0,.01.01.01.02.06.1.12.2.17.3.04.07.08.13.11.2.03.04.05.08.07.13.05.09.1.19.14.28.02.03.04.07.05.1.02.03.04.07.05.1.03.07.06.14.09.21,0,.02.02.04.03.05.03.06.05.11.07.17.06.14.12.29.18.43.04.09.07.18.1.27.06.18.13.36.18.54.03.09.06.18.08.27.01.05.03.09.04.14.01.05.03.09.04.14,1.07,4.33.19,8.91-2.39,12.55,2.93-3.38,4.72-7.76,4.78-12.55Z"/>
        <path class="cls-5" d="m81.62,22.27c0-5.18-2.08-10.14-5.8-13.76-3.71-3.62-8.73-5.57-13.91-5.43-3.83.08-7.58,1-11,2.69v15.37c1.71-1.86,3.57-3.57,5.56-5.13.13-.1.26-.19.39-.29.13-.09.26-.18.39-.27.09-.06.18-.12.26-.18.11-.07.22-.14.33-.22.08-.05.15-.1.23-.14.11-.07.22-.13.34-.2.08-.05.17-.1.25-.14.08-.05.17-.1.25-.14.14-.08.27-.15.41-.22.13-.07.26-.13.4-.2.01,0,.02-.01.04-.02.14-.07.29-.14.44-.21.15-.07.29-.13.44-.19.06-.03.12-.05.18-.08.06-.03.13-.05.2-.08.05-.02.09-.04.14-.06.1-.04.2-.08.3-.12,0,0,.01,0,.02,0,.09-.03.18-.06.27-.1.08-.03.16-.06.24-.08.13-.05.26-.09.4-.13.15-.05.3-.09.45-.14.15-.04.31-.09.46-.13.03,0,.05-.01.08-.02.97-.21,1.93-.31,2.88-.31.11,0,.23,0,.34,0,.02,0,.04,0,.06,0,.08,0,.17,0,.25.01h.03s.05,0,.07,0c.07,0,.14,0,.21.01.03,0,.05,0,.08,0,.08,0,.16.01.23.02.1,0,.2.02.3.03.21.03.42.05.63.09.22.04.44.08.66.13.1.02.19.04.29.06.04,0,.08.02.12.03.09.02.18.04.26.07.05.01.11.03.16.04.07.02.14.04.2.06.01,0,.03,0,.05.01.1.03.2.06.3.1.06.02.11.04.17.06.05.01.1.03.14.05,0,0,.01,0,.02,0,.11.04.22.08.33.13.22.08.44.18.65.28.11.05.21.1.32.15.11.05.21.1.32.16.22.11.44.23.65.36.19.11.38.23.57.35.39.26.77.54,1.14.84.1.08.19.16.29.24.06.05.12.1.18.16.07.06.14.13.21.19.06.06.13.12.19.18.06.06.13.12.19.19.08.08.16.16.24.25.12.13.24.26.36.4.12.13.23.27.34.41.11.13.21.27.31.41.01.01.02.02.03.03.1.14.2.28.3.43.03.04.06.08.09.13.1.15.2.31.29.47,0,0,.01.01.01.02.06.1.12.2.17.3.04.07.08.13.11.2.03.04.05.08.07.13.05.09.1.19.14.28.02.03.04.07.05.1.02.03.04.07.05.1.03.07.06.14.09.21,0,.02.02.04.03.05.03.06.05.11.07.17.06.14.12.29.18.43.04.09.07.18.1.27.06.18.13.36.18.54.03.09.06.18.08.27.01.05.03.09.04.14.01.05.03.09.04.14,1.07,4.33.19,8.91-2.39,12.55,2.93-3.38,4.72-7.76,4.78-12.55Z"/>
        <path class="cls-17" d="m76.83,34.82c2.58-3.64,3.46-8.22,2.39-12.55-.01-.05-.03-.09-.04-.14-.01-.05-.03-.09-.04-.14-.03-.09-.05-.18-.08-.27-.06-.18-.12-.36-.18-.54-.03-.09-.06-.18-.1-.27-.06-.14-.12-.29-.18-.43-.02-.05-.05-.11-.07-.17,0-.02-.02-.04-.03-.05-.03-.07-.06-.14-.09-.21-.01-.04-.03-.07-.05-.1-.01-.04-.03-.07-.05-.1-.05-.1-.09-.19-.14-.28-.02-.04-.04-.09-.07-.13-.04-.07-.07-.14-.11-.2-.05-.1-.11-.2-.17-.3,0,0,0-.02-.01-.02-.09-.16-.19-.31-.29-.47-.03-.04-.05-.08-.09-.13-.1-.14-.19-.29-.3-.43,0-.01-.01-.02-.03-.03-.1-.14-.2-.27-.31-.41-.11-.14-.22-.28-.34-.41-.12-.13-.23-.27-.36-.4-.08-.08-.16-.17-.24-.25-.06-.06-.12-.13-.19-.19-.06-.06-.13-.13-.19-.18-.07-.06-.14-.13-.21-.19-.06-.06-.12-.11-.18-.16-.09-.09-.19-.17-.29-.24-.36-.3-.74-.58-1.14-.84-.19-.13-.38-.24-.57-.35-.21-.13-.43-.25-.65-.36-.1-.06-.21-.11-.32-.16-.1-.05-.21-.1-.32-.15-.22-.1-.43-.19-.65-.28-.11-.04-.22-.09-.33-.13,0,0-.01,0-.02,0-.05-.02-.1-.04-.14-.05-.05-.02-.11-.04-.17-.06-.1-.03-.2-.06-.3-.1-.02,0-.03-.01-.05-.01-.07-.02-.13-.04-.2-.06-.05-.02-.1-.03-.16-.04-.09-.03-.17-.05-.26-.07-.04-.01-.08-.02-.12-.03-.09-.02-.19-.04-.29-.06-.22-.05-.44-.09-.66-.13-.21-.04-.42-.06-.63-.09-.1-.01-.2-.02-.3-.03-.08,0-.16-.01-.23-.02-.03,0-.05,0-.08,0-.07,0-.14-.01-.21-.01-.03,0-.05,0-.07,0h-.03c-.08,0-.17,0-.25-.01-.02,0-.04,0-.06,0-.11,0-.23,0-.34,0-.95,0-1.92.1-2.88.31-.03,0-.05.01-.08.02-.16.04-.31.08-.46.13-.15.04-.3.09-.45.14-.13.04-.26.08-.4.13-.08.03-.16.05-.24.08-.09.03-.18.06-.27.1,0,0-.01,0-.02,0-.1.04-.2.08-.3.12-.05.02-.09.04-.14.06-.07.03-.13.05-.2.08-.06.03-.12.05-.18.08-.15.06-.29.13-.44.19-.15.06-.29.13-.44.21-.01,0-.02.01-.04.02-.13.06-.27.13-.4.2-.14.07-.27.14-.41.22-.08.04-.17.09-.25.14-.08.05-.17.09-.25.14-.11.06-.22.13-.34.2-.08.05-.16.1-.23.14-.11.07-.22.14-.33.22-.09.06-.18.12-.26.18-.13.09-.26.18-.39.27-.13.09-.26.19-.39.29-2.39,1.86-4.59,3.96-6.57,6.25-3.1,3.33-6.26,6.6-9.48,9.8,0,0,0,0,0,0-.48.41-.96.82-1.45,1.23-2.88,2.28-6.03,4.2-9.36,5.74-5.18,2.25-10.92,2.85-16.45,1.73C5.7,38.77.38,32.17,0,24.44c0-4.46,1.68-8.72,4.66-11.96-3.26,3.76-3.97,9.11-1.81,13.6,2.06,4.01,6.3,6.42,10.79,6.15,3.43-.17,6.75-1.24,9.62-3.13,3.08-1.99,5.95-4.28,8.58-6.83.74-.78,1.49-1.56,2.24-2.34,1.88-1.95,3.79-3.87,5.73-5.77,2.74-2.65,5.71-5.04,8.89-7.14,3.97-2.49,8.54-3.85,13.22-3.94,5.18-.14,10.19,1.81,13.91,5.43,3.71,3.61,5.8,8.58,5.8,13.76-.07,4.79-1.85,9.17-4.78,12.55Z"/>
        <g>
          <path class="cls-6" d="m79.23,22.27c-.06-.19-.13-.37-.2-.56l-.11-.27-.06-.14s-.04-.09-.06-.13l-.12-.27-.13-.27-.06-.13-.07-.13-.14-.26h0s-.05-.09-.05-.09h0s-.14-.26-.14-.26l-.14-.25-.15-.24-.16-.24-.02-.05s.02.05.03.06l-.03-.04-.17-.25-.08-.12-.04-.06-.04-.06-.37-.49-.02-.03s0,.02.02.03l-.03-.03-.23-.28c-.07-.09-.16-.18-.24-.28l-.12-.14-.06-.07-.06-.06-.26-.27-.06-.06-.07-.06-.13-.13-.26-.25-.14-.13-.13-.11-.28-.24h0s-.23-.19-.23-.19c-.08-.07-.16-.13-.24-.19-.16-.12-.32-.24-.49-.35l-.25-.17c-.08-.05-.17-.11-.25-.16l-.27-.16-.13-.08-.07-.04-.03-.02h0s-.02-.02.02,0h0s0,0,0,0h0s-.02-.01-.02-.01l-.55-.29-.07-.04-.06-.03-.14-.07-.13-.06-.14-.06-.14-.06-.13-.05-.29-.11-.14-.06-.07-.03-.06-.02-.29-.11.05.02h-.02s-.06-.03-.06-.03l-.11-.04h-.03s-.23-.08-.23-.08l-.13-.04-.06-.02h-.02s0,0,0,0c.02,0-.06-.01.06.01h0s0,0,0,0h0s0,0,0,0h0s-.03-.01-.03-.01h-.05c-.11-.04-.22-.08-.34-.11l-.35-.08-.18-.04-.09-.02h-.07s-.37-.08-.37-.08l-.18-.03h-.05s-.01-.01-.01-.01h0s.01,0,.02,0h0s0,0,0,0h0s-.02,0-.02,0h-.09s-.37-.06-.37-.06h-.09s-.07-.02-.07-.02l-.19-.02h-.18s-.09-.02-.09-.02h-.01s0,0,0,0c0,0,.05,0,.03,0h0s0,0,0,0h-.02s-.05,0-.05,0h-.02s-.27-.02-.27-.02h.04s-.25,0-.25,0h-.1s-.11,0-.11,0h-.22s-.23,0-.23,0c-.29,0-.59.02-.88.05-.29.03-.58.06-.87.11-.15.02-.29.05-.43.08l-.22.04-.11.02h-.03s0,0,0,0c-.03,0,.04-.01.03,0h0s0,0,0,0h0s-.01,0-.01,0l-.06.02h-.02s-.44.13-.44.13l-.44.13-.44.14-.45.16-.05.02h-.02s.05,0,.05,0l-.22.08-.09.04-.11.04-.21.08-.21.09-.22.09-.11.05-.1.04-.45.21h.03c-.17.07-.33.15-.5.24l-.26.13-.25.14-.49.28-.11.07-.12.08-.24.15-.24.15-.24.16-.24.16-.12.08-.1.07-.23.17c-.06.04-.15.11-.22.17l-.45.35c-.3.23-.6.47-.89.72-.29.24-.59.49-.88.74-.58.5-1.15,1.01-1.71,1.53-.28.26-.55.53-.83.8-.27.27-.55.54-.81.81-.27.27-.53.55-.79.83l-.1.11c-.05.05-.07.07-.11.11l-.21.2-.41.4c-.55.54-1.1,1.08-1.66,1.61-.56.54-1.12,1.07-1.68,1.59.5-.59.99-1.18,1.5-1.77.5-.59,1.01-1.17,1.52-1.75.25-.29.52-.59.75-.87.25-.3.49-.6.75-.89.51-.59,1.02-1.17,1.57-1.73.54-.56,1.1-1.11,1.66-1.64.28-.27.57-.53.87-.78.29-.26.59-.51.89-.76l.45-.37c.08-.06.14-.12.24-.19l.23-.18.13-.1.12-.08.23-.17.24-.17.25-.17.25-.16.12-.08.13-.08.51-.3.26-.15.26-.14c.17-.09.36-.18.53-.27h.03s.4-.21.4-.21l.12-.05.11-.05.22-.1.22-.1.23-.09.11-.04.12-.05.22-.09.05-.02h.03s-.05,0-.05,0l.45-.16.46-.16.48-.14.48-.13h-.02s.06-.01.06-.01l.06-.02h.03s.12-.03.12-.03l.23-.05c.16-.03.31-.06.47-.08.31-.05.63-.08.95-.11.32-.03.63-.04.95-.04h.23s.24,0,.24,0h.11s.13,0,.13,0h.21s.04.01.04.01l.28.02h-.02s.12,0,.12,0h.09s.19.03.19.03l.19.02.11.02h.09s.37.07.37.07h.09s.07.03.07.03h.05s.18.05.18.05l.37.08.11.02.09.02.18.04.38.1c.12.03.24.07.37.11h-.05s.03,0,.03,0l.07.02h.02s.06.03.06.03l.13.04.27.1h-.03s.18.05.18.05l-.06-.02h.02s.05.02.05.02l.29.11.09.04.07.03.14.06.28.13.16.07.14.07.14.07.15.08.14.07.08.04.07.04.54.31.05.03.03.02.06.04.13.09.26.17c.1.06.18.12.27.18l.26.19c.17.13.34.26.5.4.08.07.16.14.24.21l.25.22h0s.27.25.27.25l.14.14.13.13.26.28.12.14.06.07.07.08.24.28.07.08.06.07.11.15c.08.1.15.19.22.3l.22.31-.03-.03s.05.06.07.1l-.02-.03.33.52.04.07.04.07.08.14.15.27-.03-.04s.05.07.06.11l-.02-.05.13.26.07.13.06.13.12.27.06.13.06.14h0s.05.11.05.11h0s.11.27.11.27l.05.14.05.14.1.28s.03.1.05.14l.04.14s.03.1.04.14l.04.14.08.29c.05.19.09.38.14.58Z"/>
          <path class="cls-2" d="m4.66,12.48s-.11.15-.32.45c-.1.15-.24.32-.37.55-.07.11-.14.23-.22.35-.04.06-.08.13-.12.19-.04.07-.07.14-.11.21-.16.29-.33.61-.48.98-.17.36-.31.77-.47,1.2-.28.87-.5,1.89-.59,3-.08,1.11-.01,2.33.25,3.57.04.15.06.31.11.47.05.15.09.31.14.47.08.32.21.62.32.93.03.08.06.16.09.23l.11.23c.07.15.14.31.21.46l.03.06v.03s.02.01.02.01c0,.01-.02-.04,0-.01l.07.11.13.23c.09.15.17.32.27.45.19.28.37.56.6.83.11.13.21.28.33.41.12.13.24.26.36.39.49.51,1.02.98,1.61,1.39,1.16.85,2.53,1.44,3.95,1.76.36.07.71.15,1.08.19.36.06.72.07,1.09.09.18,0,.36,0,.54,0,.18,0,.36,0,.55-.02.38-.02.74-.05,1.1-.09,1.45-.17,2.87-.49,4.19-.95,1.32-.47,2.55-1.04,3.65-1.71,1.11-.68,2.14-1.35,3.08-2,1.87-1.3,3.37-2.48,4.4-3.33.51-.43.92-.76,1.19-1,.27-.23.42-.36.42-.36,0,0-.13.14-.38.4-.25.26-.61.64-1.09,1.11-.96.94-2.36,2.25-4.18,3.66-.91.71-1.92,1.45-3.02,2.18-1.12.74-2.38,1.4-3.75,1.91-1.37.51-2.85.9-4.38,1.08-.39.04-.78.08-1.15.11-.18.02-.39.02-.59.02-.2,0-.4.02-.6,0-.4-.02-.8-.03-1.19-.09-.4-.04-.79-.12-1.18-.2-1.55-.37-3.04-1.03-4.3-1.97-.32-.22-.62-.48-.92-.73-.15-.13-.28-.27-.42-.4-.14-.14-.28-.27-.4-.42-.13-.14-.25-.29-.38-.43-.12-.14-.23-.3-.35-.45-.24-.29-.43-.63-.64-.94-.11-.16-.18-.31-.27-.47l-.13-.23-.06-.12s-.02-.04-.02-.04v-.02s-.02-.03-.02-.03l-.03-.06c-.07-.17-.14-.33-.21-.5l-.1-.25c-.03-.08-.06-.17-.09-.25-.11-.34-.23-.67-.31-1.01-.04-.17-.08-.34-.13-.5-.04-.17-.06-.34-.09-.5-.24-1.33-.24-2.62-.09-3.79.15-1.16.46-2.2.81-3.08.19-.43.36-.84.57-1.19.19-.36.39-.67.58-.96.05-.07.09-.14.13-.21.05-.06.09-.13.14-.19.09-.12.18-.23.26-.34.15-.21.3-.37.42-.51.24-.27.37-.41.37-.41Z"/>
        </g>
        <path class="cls-23" d="m76.83,34.82s0,0,0,0c-3.31,3.81-8.06,6.33-13.45,6.7-4.26.24-8.46-1.04-11.87-3.6-1.37-1.05-2.54-2.34-3.45-3.81,1.3,1.27,2.76,2.37,4.33,3.26,3.51,1.97,7.66,2.42,11.51,1.26,3.73-1.25,6.71-4.08,8.16-7.73.1-.31.19-.62.27-.93.07-.3.14-.61.18-.91.03-.16.05-.32.07-.47,0-.05.01-.09.01-.14.01-.13.03-.25.03-.38.02-.29.03-.59.03-.88v-.08c-.02-2.78-1.02-5.5-2.89-7.66-.04-.05-.09-.09-.14-.14-.02-.02-.04-.04-.05-.06-.03-.03-.05-.05-.08-.08,0,0-.02-.01-.02-.02t0,0c-.09-.09-.19-.18-.29-.27-2.9-2.6-7.03-3.39-10.71-1.97-2.7,1.31-5.16,3.06-7.27,5.18-3.47,3.46-7.06,6.78-10.78,9.98,3.22-3.2,6.39-6.47,9.48-9.8,1.98-2.3,4.18-4.39,6.57-6.25.13-.1.26-.19.39-.29.13-.09.26-.18.39-.27.09-.06.18-.12.26-.18.11-.07.22-.14.33-.22.08-.05.15-.1.23-.14.11-.07.22-.13.34-.2.08-.05.17-.1.25-.14.08-.05.17-.1.25-.14.14-.08.27-.15.41-.22.13-.07.26-.13.4-.2.01,0,.02-.01.04-.02.14-.07.29-.14.44-.21.15-.07.29-.13.44-.19.06-.03.12-.05.18-.08.06-.03.13-.05.2-.08.05-.02.09-.04.14-.06.1-.04.2-.08.3-.12,0,0,.01,0,.02,0,.09-.03.18-.06.27-.1.08-.03.16-.06.24-.08.13-.05.26-.09.4-.13.15-.05.3-.09.45-.14.15-.04.31-.09.46-.13.03,0,.05-.01.08-.02.97-.21,1.93-.31,2.88-.31.11,0,.23,0,.34,0,.02,0,.04,0,.06,0,.08,0,.17,0,.25.01.03,0,.06,0,.1,0,.07,0,.14,0,.21.01.1,0,.21.01.31.03.1,0,.2.02.3.03.21.03.42.05.63.09.22.04.44.08.66.13.1.02.19.04.29.06.04,0,.08.02.12.03.09.02.18.04.26.07.05.01.11.03.16.04.07.02.14.04.2.06.01,0,.03,0,.05.01.1.03.2.06.3.1.06.02.11.04.17.06.05.01.1.03.14.05,0,0,.01,0,.02,0,.11.04.22.08.33.13.07.03.14.06.21.09.09.04.18.07.26.11.06.03.12.05.18.08.11.05.21.1.32.15.11.05.21.1.32.16.12.06.23.12.35.19.1.06.2.11.3.17.1.06.2.12.3.18.09.05.18.11.27.17.1.06.19.13.29.2,0,0,.02.01.03.02.1.07.19.14.29.21.09.07.19.14.28.21.09.07.17.13.26.2.1.08.19.16.29.24.06.05.12.11.18.16.07.06.14.13.21.19.06.06.13.12.19.18.06.06.13.12.19.19.08.08.16.16.24.25.12.13.24.26.36.4.12.13.23.27.34.41.11.13.21.27.31.41.01.01.02.02.03.03.1.14.2.28.3.43.03.04.06.08.09.13.02.03.04.06.06.1.03.04.05.08.08.12.05.08.1.16.15.25,0,0,.01.01.01.02.06.1.12.2.17.3.04.07.08.13.11.2.02.04.04.09.07.13.05.09.1.19.14.28.02.03.04.07.05.1.02.03.04.07.05.1.03.07.06.14.09.21,0,.02.02.04.03.05.03.06.05.11.07.17.06.14.12.29.18.43.04.09.07.18.1.27.06.18.13.36.18.54.03.09.06.18.08.27.01.05.03.09.04.14.01.05.03.09.04.14,1.07,4.33.19,8.91-2.39,12.55Z"/>
        <path class="cls-1" d="m76.83,34.82s0,0,0,0c-3.31,3.81-8.06,6.33-13.45,6.7-4.26.24-8.46-1.04-11.87-3.6-1.37-1.05-2.54-2.34-3.45-3.81,1.3,1.27,2.76,2.37,4.33,3.26,3.51,1.97,7.66,2.42,11.51,1.26,3.73-1.25,6.71-4.08,8.16-7.73.1-.31.19-.62.27-.93.07-.3.14-.61.18-.91.03-.16.05-.32.07-.47,0-.05.01-.09.01-.14.01-.13.03-.25.03-.38.02-.29.03-.59.03-.88v-.08c-.02-2.78-1.02-5.5-2.89-7.66-.04-.05-.09-.09-.14-.14-.02-.02-.04-.04-.05-.06-.03-.03-.05-.05-.08-.08,0,0-.02-.01-.02-.02t0,0c-.09-.09-.19-.18-.29-.27-2.9-2.6-7.03-3.39-10.71-1.97-2.7,1.31-5.16,3.06-7.27,5.18-3.47,3.46-7.06,6.78-10.78,9.98,3.22-3.2,6.39-6.47,9.48-9.8,1.98-2.3,4.18-4.39,6.57-6.25.13-.1.26-.19.39-.29.13-.09.26-.18.39-.27.09-.06.18-.12.26-.18.11-.07.22-.14.33-.22.08-.05.15-.1.23-.14.11-.07.22-.13.34-.2.08-.05.17-.1.25-.14.08-.05.17-.1.25-.14.14-.08.27-.15.41-.22.13-.07.26-.13.4-.2.01,0,.02-.01.04-.02.14-.07.29-.14.44-.21.15-.07.29-.13.44-.19.06-.03.12-.05.18-.08.06-.03.13-.05.2-.08.05-.02.09-.04.14-.06.1-.04.2-.08.3-.12,0,0,.01,0,.02,0,.09-.03.18-.06.27-.1.08-.03.16-.06.24-.08.13-.05.26-.09.4-.13.15-.05.3-.09.45-.14.15-.04.31-.09.46-.13.03,0,.05-.01.08-.02.97-.21,1.93-.31,2.88-.31.11,0,.23,0,.34,0,.02,0,.04,0,.06,0,.08,0,.17,0,.25.01.03,0,.06,0,.1,0,.07,0,.14,0,.21.01.1,0,.21.01.31.03.1,0,.2.02.3.03.21.03.42.05.63.09.22.04.44.08.66.13.1.02.19.04.29.06.04,0,.08.02.12.03.09.02.18.04.26.07.05.01.11.03.16.04.07.02.14.04.2.06.01,0,.03,0,.05.01.1.03.2.06.3.1.06.02.11.04.17.06.05.01.1.03.14.05,0,0,.01,0,.02,0,.11.04.22.08.33.13.07.03.14.06.21.09.09.04.18.07.26.11.06.03.12.05.18.08.11.05.21.1.32.15.11.05.21.1.32.16.12.06.23.12.35.19.1.06.2.11.3.17.1.06.2.12.3.18.09.05.18.11.27.17.1.06.19.13.29.2,0,0,.02.01.03.02.1.07.19.14.29.21.09.07.19.14.28.21.09.07.17.13.26.2.1.08.19.16.29.24.06.05.12.11.18.16.07.06.14.13.21.19.06.06.13.12.19.18.06.06.13.12.19.19.08.08.16.16.24.25.12.13.24.26.36.4.12.13.23.27.34.41.11.13.21.27.31.41.01.01.02.02.03.03.1.14.2.28.3.43.03.04.06.08.09.13.02.03.04.06.06.1.03.04.05.08.08.12.05.08.1.16.15.25,0,0,.01.01.01.02.06.1.12.2.17.3.04.07.08.13.11.2.02.04.04.09.07.13.05.09.1.19.14.28.02.03.04.07.05.1.02.03.04.07.05.1.03.07.06.14.09.21,0,.02.02.04.03.05.03.06.05.11.07.17.06.14.12.29.18.43.04.09.07.18.1.27.06.18.13.36.18.54.03.09.06.18.08.27.01.05.03.09.04.14.01.05.03.09.04.14,1.07,4.33.19,8.91-2.39,12.55Z"/>
        <path class="cls-19" d="m79.23,22.27s-.03-.09-.04-.14c-.01-.05-.03-.09-.04-.14-.03-.09-.05-.18-.08-.27-.06-.18-.12-.36-.18-.54-.03-.09-.06-.18-.1-.27-.06-.14-.12-.29-.18-.43-.02-.05-.05-.11-.07-.17,0-.02-.02-.04-.03-.05-.03-.07-.06-.14-.09-.21-.01-.04-.03-.07-.05-.1-.01-.04-.03-.07-.05-.1-.05-.1-.09-.19-.14-.28-.02-.04-.04-.09-.07-.13-.04-.07-.07-.14-.11-.2-.06-.1-.12-.2-.17-.3,0,0,0-.02-.01-.02-.05-.08-.1-.16-.15-.25-.03-.04-.05-.08-.08-.12-.02-.03-.04-.06-.06-.1-.03-.04-.05-.08-.09-.13-.1-.14-.19-.29-.3-.43,0-.01-.01-.02-.03-.03-.1-.14-.2-.27-.31-.41-.11-.14-.22-.28-.34-.41-.12-.13-.23-.27-.36-.4-.08-.08-.16-.17-.24-.25-.06-.06-.12-.13-.19-.19-.06-.06-.13-.13-.19-.18-.07-.06-.14-.13-.21-.19-.06-.05-.12-.11-.18-.16-.09-.09-.19-.17-.29-.24-.08-.07-.17-.14-.26-.2-.09-.07-.18-.14-.28-.21-.09-.07-.19-.14-.29-.21,0,0-.02-.01-.03-.02-.1-.07-.19-.13-.29-.2-.09-.06-.18-.12-.27-.17-.1-.06-.2-.12-.3-.18-.1-.06-.2-.12-.3-.17-.12-.06-.23-.13-.35-.19-.1-.05-.21-.11-.32-.16-.1-.05-.21-.1-.32-.15-.06-.03-.12-.05-.18-.08-.09-.04-.18-.08-.26-.11-.07-.03-.14-.06-.21-.09-.11-.04-.22-.09-.33-.13,0,0-.01,0-.02,0-.05-.02-.1-.04-.14-.05-.05-.02-.11-.04-.17-.06-.1-.03-.2-.06-.3-.1-.02,0-.03-.01-.05-.01-.07-.02-.13-.04-.2-.06-.05-.02-.1-.03-.16-.04-.09-.03-.17-.05-.26-.07-.04-.01-.08-.02-.12-.03-.09-.02-.19-.04-.29-.06-.22-.05-.44-.09-.66-.13-.21-.04-.42-.06-.63-.09-.1-.01-.2-.02-.3-.03-.1-.01-.21-.02-.31-.03-.07,0-.14-.01-.21-.01-.03,0-.06,0-.1,0-.08,0-.17,0-.25-.01-.02,0-.04,0-.06,0-.11,0-.23,0-.34,0-.15,0-.31,0-.47.01v4.49c1.23.45,2.39,1.13,3.39,2.03.1.09.19.17.29.27t0,0s.01.01.02.02c.03.03.05.05.08.08.02.02.04.04.05.06.05.04.09.09.14.14,1.88,2.16,2.87,4.88,2.89,7.66v.08c0,.29-.01.59-.03.88,0,.13-.02.25-.03.38,0,.05,0,.09-.01.14-.02.16-.04.31-.07.47-.05.31-.11.61-.18.91-.08.31-.16.62-.27.93-1.44,3.66-4.43,6.48-8.16,7.73-3.85,1.17-8.01.71-11.51-1.26-1.58-.9-3.03-2-4.33-3.26.91,1.47,2.08,2.75,3.45,3.81,3.41,2.56,7.61,3.84,11.87,3.6,5.38-.37,10.14-2.89,13.45-6.7,0,0,0,0,0,0,2.58-3.64,3.46-8.22,2.39-12.55Z"/>
        <path class="cls-11" d="m76.83,34.82s0,0,0,0c-3.31,3.81-8.06,6.33-13.45,6.7-4.26.24-8.46-1.04-11.87-3.6-1.37-1.05-2.54-2.34-3.45-3.81,1.3,1.27,2.76,2.37,4.33,3.26,3.51,1.97,7.66,2.42,11.51,1.26,3.73-1.25,6.71-4.08,8.16-7.73.1-.31.19-.62.27-.93.07-.3.14-.61.18-.91.03-.16.05-.32.07-.47,0-.05.01-.09.01-.14.01-.13.03-.25.03-.38.02-.29.03-.59.03-.88v-.08c-.02-2.78-1.02-5.5-2.89-7.66-.04-.05-.09-.09-.14-.14-.02-.02-.04-.04-.05-.06-.03-.03-.05-.05-.08-.08,0,0-.02-.01-.02-.02t0,0c-.09-.09-.19-.18-.29-.27-2.9-2.6-7.03-3.39-10.71-1.97-2.7,1.31-5.16,3.06-7.27,5.18-3.47,3.46-7.06,6.78-10.78,9.98,3.22-3.2,6.39-6.47,9.48-9.8,1.98-2.3,4.18-4.39,6.57-6.25.13-.1.26-.19.39-.29.13-.09.26-.18.39-.27.09-.06.18-.12.26-.18.11-.07.22-.14.33-.22.08-.05.15-.1.23-.14.11-.07.22-.13.34-.2.08-.05.17-.1.25-.14.08-.05.17-.1.25-.14.14-.08.27-.15.41-.22.13-.07.26-.13.4-.2.01,0,.02-.01.04-.02.14-.07.29-.14.44-.21.15-.07.29-.13.44-.19.06-.03.12-.05.18-.08.06-.03.13-.05.2-.08.05-.02.09-.04.14-.06.1-.04.2-.08.3-.12,0,0,.01,0,.02,0,.09-.03.18-.06.27-.1.08-.03.16-.06.24-.08.13-.05.26-.09.4-.13.15-.05.3-.09.45-.14.15-.04.31-.09.46-.13.03,0,.05-.01.08-.02.97-.21,1.93-.31,2.88-.31.11,0,.23,0,.34,0,.02,0,.04,0,.06,0,.08,0,.17,0,.25.01.03,0,.06,0,.1,0,.07,0,.14,0,.21.01.1,0,.21.01.31.03.1,0,.2.02.3.03.21.03.42.05.63.09.22.04.44.08.66.13.1.02.19.04.29.06.04,0,.08.02.12.03.09.02.18.04.26.07.05.01.11.03.16.04.07.02.14.04.2.06.01,0,.03,0,.05.01.1.03.2.06.3.1.06.02.11.04.17.06.05.01.1.03.14.05,0,0,.01,0,.02,0,.11.04.22.08.33.13.07.03.14.06.21.09.09.04.18.07.26.11.06.03.12.05.18.08.11.05.21.1.32.15.11.05.21.1.32.16.12.06.23.12.35.19.1.06.2.11.3.17.1.06.2.12.3.18.09.05.18.11.27.17.1.06.19.13.29.2,0,0,.02.01.03.02.1.07.19.14.29.21.09.07.19.14.28.21.09.07.17.13.26.2.1.08.19.16.29.24.06.05.12.11.18.16.07.06.14.13.21.19.06.06.13.12.19.18.06.06.13.12.19.19.08.08.16.16.24.25.12.13.24.26.36.4.12.13.23.27.34.41.11.13.21.27.31.41.01.01.02.02.03.03.1.14.2.28.3.43.03.04.06.08.09.13.02.03.04.06.06.1.03.04.05.08.08.12.05.08.1.16.15.25,0,0,.01.01.01.02.06.1.12.2.17.3.04.07.08.13.11.2.02.04.04.09.07.13.05.09.1.19.14.28.02.03.04.07.05.1.02.03.04.07.05.1.03.07.06.14.09.21,0,.02.02.04.03.05.03.06.05.11.07.17.06.14.12.29.18.43.04.09.07.18.1.27.06.18.13.36.18.54.03.09.06.18.08.27.01.05.03.09.04.14.01.05.03.09.04.14,1.07,4.33.19,8.91-2.39,12.55Z"/>
        <path class="cls-12" d="m79.23,22.27s-.03-.09-.04-.14c-.01-.05-.03-.09-.04-.14-.03-.09-.05-.18-.08-.27-.06-.18-.12-.36-.18-.54-.03-.09-.06-.18-.1-.27-.06-.14-.12-.29-.18-.43-.02-.05-.05-.11-.07-.17,0-.02-.02-.04-.03-.05-.03-.07-.06-.14-.09-.21-.01-.04-.03-.07-.05-.1-.01-.04-.03-.07-.05-.1-.05-.1-.09-.19-.14-.28-.02-.04-.04-.09-.07-.13-.04-.07-.07-.14-.11-.2-.06-.1-.12-.2-.17-.3,0,0,0-.02-.01-.02-.05-.08-.1-.16-.15-.25-.03-.04-.05-.08-.08-.12-.02-.03-.04-.06-.06-.1-.03-.04-.05-.08-.09-.13-.1-.14-.19-.29-.3-.43,0-.01-.01-.02-.03-.03-.1-.14-.2-.27-.31-.41-.11-.14-.22-.28-.34-.41-.12-.13-.23-.27-.36-.4-.08-.08-.16-.17-.24-.25-.06-.06-.12-.13-.19-.19-.06-.06-.13-.13-.19-.18-.07-.06-.14-.13-.21-.19-.06-.05-.12-.11-.18-.16-.09-.09-.19-.17-.29-.24-.08-.07-.17-.14-.26-.2-.09-.07-.18-.14-.28-.21-.09-.07-.19-.14-.29-.21,0,0-.02-.01-.03-.02-.1-.07-.19-.13-.29-.2-.09-.06-.18-.12-.27-.17-.1-.06-.2-.12-.3-.18-.1-.06-.2-.12-.3-.17-.12-.06-.23-.13-.35-.19-.1-.05-.21-.11-.32-.16-.1-.05-.21-.1-.32-.15-.06-.03-.12-.05-.18-.08-.09-.04-.18-.08-.26-.11-.07-.03-.14-.06-.21-.09-.11-.04-.22-.09-.33-.13,0,0-.01,0-.02,0-.05-.02-.1-.04-.14-.05-.05-.02-.11-.04-.17-.06-.1-.03-.2-.06-.3-.1-.02,0-.03-.01-.05-.01-.07-.02-.13-.04-.2-.06-.05-.02-.1-.03-.16-.04-.09-.03-.17-.05-.26-.07-.04-.01-.08-.02-.12-.03-.08-.02-.17-.04-.26-.06v6.18s.02.02.04.03c.1.09.19.17.29.27t0,0s.01.01.02.02c.03.03.05.05.08.08.02.02.04.04.05.06.05.04.09.09.14.14,1.88,2.16,2.87,4.88,2.89,7.66v.08c0,.29-.01.59-.03.88,0,.13-.02.25-.03.38,0,.05,0,.09-.01.14-.02.16-.04.31-.07.47-.05.31-.11.61-.18.91-.08.31-.16.62-.27.93-1.44,3.66-4.43,6.48-8.16,7.73-3.85,1.17-8.01.71-11.51-1.26-1.58-.9-3.03-2-4.33-3.26.91,1.47,2.08,2.75,3.45,3.81,3.41,2.56,7.61,3.84,11.87,3.6,5.38-.37,10.14-2.89,13.45-6.7,0,0,0,0,0,0,2.58-3.64,3.46-8.22,2.39-12.55Z"/>
        <path class="cls-16" d="m58.48,16.92c3.68-1.41,7.81-.63,10.71,1.97.1.09.19.17.29.27t0,0s.01.01.02.02c.03.03.05.05.08.08.02.02.04.04.05.06.05.04.09.09.14.14.37.43.71.88,1.01,1.35h7.95c-.04-.11-.09-.22-.13-.33-.02-.05-.05-.11-.07-.17,0-.02-.02-.04-.03-.05-.03-.07-.06-.14-.09-.21-.01-.04-.03-.07-.05-.1-.01-.04-.03-.07-.05-.1-.05-.1-.09-.19-.14-.28-.02-.04-.04-.09-.07-.13-.04-.07-.07-.14-.11-.2-.06-.1-.12-.2-.17-.3,0,0,0-.02-.01-.02-.05-.08-.1-.16-.15-.25-.03-.04-.05-.08-.08-.12-.02-.03-.04-.06-.06-.1-.03-.04-.05-.08-.09-.13-.1-.14-.19-.29-.3-.43,0-.01-.01-.02-.03-.03-.1-.14-.2-.27-.31-.41-.11-.14-.22-.28-.34-.41-.12-.13-.23-.27-.36-.4-.08-.08-.16-.17-.24-.25-.06-.06-.12-.13-.19-.19-.06-.06-.13-.13-.19-.18-.07-.06-.14-.13-.21-.19-.06-.05-.12-.11-.18-.16-.09-.09-.19-.17-.29-.24-.08-.07-.17-.14-.26-.2-.09-.07-.18-.14-.28-.21-.09-.07-.19-.14-.29-.21,0,0-.02-.01-.03-.02-.1-.07-.19-.13-.29-.2-.09-.06-.18-.12-.27-.17-.1-.06-.2-.12-.3-.18-.1-.06-.2-.12-.3-.17-.12-.06-.23-.13-.35-.19-.1-.05-.21-.11-.32-.16-.1-.05-.21-.1-.32-.15-.06-.03-.12-.05-.18-.08-.09-.04-.18-.08-.26-.11-.07-.03-.14-.06-.21-.09-.11-.04-.22-.09-.33-.13,0,0-.01,0-.02,0-.05-.02-.1-.04-.14-.05-.05-.02-.11-.04-.17-.06-.1-.03-.2-.06-.3-.1-.02,0-.03-.01-.05-.01-.07-.02-.13-.04-.2-.06-.05-.02-.1-.03-.16-.04-.09-.03-.17-.05-.26-.07-.04-.01-.08-.02-.12-.03-.09-.02-.19-.04-.29-.06-.22-.05-.44-.09-.66-.13-.21-.04-.42-.06-.63-.09-.1-.01-.2-.02-.3-.03-.1-.01-.21-.02-.31-.03-.07,0-.14-.01-.21-.01-.03,0-.06,0-.1,0-.08,0-.17,0-.25-.01-.02,0-.04,0-.06,0-.11,0-.23,0-.34,0-.95,0-1.92.1-2.88.31-.03,0-.05.01-.08.02-.16.04-.31.08-.46.13-.15.04-.3.09-.45.14-.13.04-.26.08-.4.13-.08.03-.16.05-.24.08-.09.03-.18.06-.27.1,0,0-.01,0-.02,0-.1.04-.2.08-.3.12-.05.02-.09.04-.14.06-.07.03-.13.05-.2.08-.06.03-.12.05-.18.08-.15.06-.29.13-.44.19-.15.07-.29.14-.44.21-.01,0-.02.01-.04.02-.13.06-.26.13-.4.2-.14.07-.27.14-.41.22-.08.04-.17.09-.25.14-.08.05-.17.09-.25.14-.11.06-.22.13-.34.2-.08.05-.16.1-.23.14-.11.07-.22.14-.33.22-.09.06-.18.12-.26.18-.13.09-.26.18-.39.27-.13.09-.26.19-.39.29-2.39,1.86-4.59,3.96-6.57,6.25-3.1,3.33-6.26,6.6-9.48,9.8,3.71-3.19,7.31-6.52,10.78-9.98,2.12-2.12,4.58-3.87,7.27-5.18Z"/>
        <path class="cls-26" d="m34.08,19.94c-.75.78-1.5,1.55-2.24,2.34-2.63,2.55-5.5,4.84-8.58,6.83-2.87,1.88-6.2,2.96-9.62,3.13-4.5.27-8.73-2.14-10.79-6.15-2.17-4.49-1.45-9.83,1.81-13.6h0c.55-.6,1.14-1.16,1.78-1.68,4.86-4.05,11.61-4.93,17.34-2.26,2.16,1.03,4.05,2.55,5.5,4.45.4.55.76,1.14,1.05,1.76-1.95-2.46-4.6-4.27-7.6-5.19-2.73-.75-5.62-.73-8.34.05-5.22,1.82-8.24,7.26-7.02,12.65.66,3.2,2.98,5.81,6.08,6.83,3.03.76,6.23.43,9.05-.93,4.32-2.05,8.23-4.84,11.58-8.24Z"/>
        <path class="cls-21" d="m34.08,19.94c-.75.78-1.5,1.55-2.24,2.34-2.63,2.55-5.5,4.84-8.58,6.83-2.87,1.88-6.2,2.96-9.62,3.13-4.5.27-8.73-2.14-10.79-6.15-2.17-4.49-1.45-9.83,1.81-13.6h0c.55-.6,1.14-1.16,1.78-1.68,4.86-4.05,11.61-4.93,17.34-2.26,2.16,1.03,4.05,2.55,5.5,4.45.4.55.76,1.14,1.05,1.76-1.95-2.46-4.6-4.27-7.6-5.19-2.73-.75-5.62-.73-8.34.05-5.22,1.82-8.24,7.26-7.02,12.65.66,3.2,2.98,5.81,6.08,6.83,3.03.76,6.23.43,9.05-.93,4.32-2.05,8.23-4.84,11.58-8.24Z"/>
        <path class="cls-18" d="m34.08,19.94c-.75.78-1.5,1.55-2.24,2.34-2.63,2.55-5.5,4.84-8.58,6.83-2.87,1.88-6.2,2.96-9.62,3.13-4.5.27-8.73-2.14-10.79-6.15-2.17-4.49-1.45-9.83,1.81-13.6h0c.55-.6,1.14-1.16,1.78-1.68,4.86-4.05,11.61-4.93,17.34-2.26,2.16,1.03,4.05,2.55,5.5,4.45.4.55.76,1.14,1.05,1.76-1.95-2.46-4.6-4.27-7.6-5.19-2.73-.75-5.62-.73-8.34.05-5.22,1.82-8.24,7.26-7.02,12.65.66,3.2,2.98,5.81,6.08,6.83,3.03.76,6.23.43,9.05-.93,4.32-2.05,8.23-4.84,11.58-8.24Z"/>
        <path class="cls-20" d="m2.85,26.08c-2.17-4.49-1.45-9.83,1.81-13.6h0c.55-.6,1.14-1.16,1.78-1.68,4.86-4.05,11.61-4.93,17.34-2.26,2.16,1.03,4.05,2.55,5.5,4.45.4.55.76,1.14,1.05,1.76-1.95-2.46-4.6-4.27-7.6-5.19-2.73-.75-5.62-.73-8.34.05-5.22,1.82-8.24,7.26-7.02,12.65.66,3.2-2.46,7.81-4.53,3.81Z"/>
        <path class="cls-7" d="m2.85,26.08c-2.17-4.49-1.45-9.83,1.81-13.6h0c.55-.6,1.14-1.16,1.78-1.68,4.86-4.05,11.61-4.93,17.34-2.26,2.16,1.03,4.05,2.55,5.5,4.45.4.55.76,1.14,1.05,1.76-1.95-2.46-4.6-4.27-7.6-5.19-2.73-.75-5.62-.73-8.34.05-5.22,1.82-8.24,7.26-7.02,12.65.66,3.2-2.46,7.81-4.53,3.81Z"/>
      </g>
      <g>
        <rect class="cls-22" x="90.86" y="2.92" width="30.83" height="2.43"/>
        <rect class="cls-22" x="138.49" y=".76" width="15.04" height="2.43"/>
        <path class="cls-22" d="m138.49,13.23v-2.43h17.79c1.34,0,2.43,1.09,2.43,2.43h0s-20.21,0-20.21,0Z"/>
        <path class="cls-22" d="m90.86,13.23v-2.43h28.4c1.34,0,2.43,1.09,2.43,2.43h0s-30.83,0-30.83,0Z"/>
        <polygon class="cls-22" points="108.13 0 103.02 0 104.42 4.14 109.53 4.14 108.13 0"/>
        <g>
          <polygon class="cls-22" points="100.55 7.05 95.44 7.05 96.84 11.19 101.95 11.19 100.55 7.05"/>
          <polygon class="cls-22" points="111.99 7.05 117.11 7.05 115.71 11.19 110.59 11.19 111.99 7.05"/>
        </g>
        <polygon class="cls-22" points="135.53 6.48 133.43 .28 128.32 .28 130.42 6.48 135.53 6.48"/>
        <path class="cls-22" d="m152.63.76l-4.19,12.4h5.11l3.11-9.19c.53-1.57-.64-3.2-2.3-3.2h-1.73Z"/>
        <path class="cls-22" d="m133.96,10.8h-5.11l1.9,5.63c.13.37.16.77.11,1.17l-2.01,13.68h5.11l1.97-13.43c.08-.56.03-1.12-.15-1.66l-1.82-5.39Z"/>
        <polygon class="cls-22" points="110.23 17.02 115.34 17.02 113.94 12.88 108.83 12.88 110.23 17.02"/>
        <polygon class="cls-22" points="102.32 17.02 97.21 17.02 98.61 12.88 103.72 12.88 102.32 17.02"/>
        <rect class="cls-22" x="90.86" y="10.8" width="4.54" height="20.47"/>
        <rect class="cls-22" x="97.21" y="18.86" width="4.54" height="9.7"/>
        <rect class="cls-22" x="110.78" y="18.86" width="4.54" height="9.7"/>
        <rect class="cls-22" x="97.21" y="18.86" width="18.12" height="2.43"/>
        <rect class="cls-22" x="97.21" y="26.13" width="18.12" height="2.43"/>
        <path class="cls-22" d="m156.28,10.8h-2.12v14.76c0,3.39-.81,5.71-.81,5.71h4.54s.81-1.7.81-5.71v-12.33c0-1.34-1.09-2.43-2.43-2.43Z"/>
        <path class="cls-22" d="m119.26,10.8h-2.11v14.76c0,3.39-.81,5.71-.81,5.71h4.54s.81-1.7.81-5.71v-12.33c0-1.34-1.09-2.43-2.43-2.43Z"/>
        <path class="cls-22" d="m137.76,30.54s1.01-2.73,1.45-5.71l1.26-8.56h4.69s-.89,5.91-1.26,8.56c-.58,4.18-1.75,5.71-1.75,5.71h-4.39Z"/>
        <path class="cls-22" d="m144.9,30.54s1.01-2.73,1.45-5.71c.44-2.98,1.26-8.56,1.26-8.56h4.69s-.89,5.91-1.26,8.56c-.58,4.18-1.75,5.71-1.75,5.71h-4.39Z"/>
      </g>
      <g>
        <path class="cls-22" d="m99.81,41.38c.2.96.98,1.64,2.1,1.64.77,0,1.49-.35,1.9-.91l1.21,1c-.68.92-1.89,1.52-3.32,1.52-2.23,0-3.77-1.7-3.77-3.8s1.55-3.81,3.77-3.81,3.58,1.64,3.58,3.94c0,.15-.01.3-.01.42h-5.45Zm.01-1.21h3.65c-.07-.84-.52-1.64-1.78-1.64-.99,0-1.7.73-1.87,1.64Z"/>
        <path class="cls-22" d="m113.68,40.42v4.11h-1.89v-4.11c0-1.14-1.05-1.7-1.96-1.7-.66,0-1.21.22-1.63.58v5.22h-1.89v-7.37h1.89v.46c.54-.38,1.22-.6,1.97-.6,2.29,0,3.5,1.25,3.5,3.39Z"/>
        <path class="cls-22" d="m115.31,42.53c.91.39,1.6.6,2.52.6.87,0,1.21-.33,1.21-.71,0-.42-.42-.61-1.56-.85-1.59-.35-2.74-.87-2.74-2.29,0-1.33,1.1-2.25,2.81-2.25,1.15,0,2.08.27,2.88.6l-.62,1.38c-.72-.27-1.56-.48-2.29-.48s-1.09.26-1.09.65.45.6,1.63.84c1.71.35,2.7.95,2.7,2.29s-1.07,2.32-2.96,2.32c-1.28,0-2.1-.18-3.19-.71l.71-1.4Z"/>
        <path class="cls-22" d="m91.56,42.53c.91.39,1.6.6,2.52.6.87,0,1.21-.33,1.21-.71,0-.42-.42-.61-1.56-.85-1.59-.35-2.74-.87-2.74-2.29,0-1.33,1.1-2.25,2.81-2.25,1.15,0,2.08.27,2.88.6l-.62,1.38c-.72-.27-1.56-.48-2.29-.48s-1.09.26-1.09.65.45.6,1.63.84c1.71.35,2.7.95,2.7,2.29s-1.07,2.32-2.96,2.32c-1.28,0-2.1-.18-3.19-.71l.71-1.4Z"/>
        <path class="cls-22" d="m123.44,41.38c.2.96.98,1.64,2.1,1.64.77,0,1.49-.35,1.9-.91l1.21,1c-.68.92-1.89,1.52-3.32,1.52-2.23,0-3.77-1.7-3.77-3.8s1.55-3.81,3.77-3.81,3.58,1.64,3.58,3.94c0,.15-.01.3-.01.42h-5.45Zm.01-1.21h3.65c-.07-.84-.52-1.64-1.78-1.64-.99,0-1.7.73-1.87,1.64Z"/>
      </g>
      <g>
        <g>
          <path class="cls-24" d="m132.86,38.95v2.38c0,1.32.22,1.7,1.17,1.7.33,0,.61-.04.87-.07v1.41c-.08.03-.65.27-1.71.27-1.23,0-2.23-.77-2.23-2.32v-3.37h-1.04v-1.56h1.04v-1.42l1.9-.24v1.65h2.06v1.56h-2.06Z"/>
          <path class="cls-24" d="m150.36,40.42v4.11h-1.89v-4.11c0-.92-.35-1.7-1.35-1.7-.57,0-.9.22-1.29.58.07.2.08.47.08,1.14v4.08h-1.89v-4.11c0-1.06-.47-1.7-1.26-1.7-.56,0-1.05.24-1.31.58v5.22h-1.9v-7.14h1.9v.46c.45-.52,1.09-.83,1.81-.83s1.55.28,2.05.94c.62-.58,1.44-.94,2.31-.94,1.69,0,2.73,1.3,2.73,3.39Z"/>
          <path class="cls-24" d="m153.24,41.38c.2.96.98,1.64,2.1,1.64.77,0,1.49-.35,1.9-.91l1.21,1c-.68.92-1.89,1.52-3.32,1.52-2.23,0-3.77-1.7-3.77-3.8s1.55-3.81,3.77-3.81,3.58,1.64,3.58,3.94c0,.15-.01.3-.01.42h-5.45Zm.01-1.21h3.65c-.07-.84-.52-1.64-1.78-1.64-.99,0-1.7.73-1.87,1.64Z"/>
          <path class="cls-24" d="m136.3,37.39h1.89v7.14h-1.89v-7.14Z"/>
        </g>
        <circle class="cls-24" cx="137.24" cy="35.75" r="1.03"/>
      </g>
    </g>
  </g>
</svg>
