<svg width="92" height="19" viewBox="0 0 92 19" fill="none" xmlns="http://www.w3.org/2000/svg">
<g clip-path="url(#clip0_6332_56277)">
<path d="M28.0645 5.0791H23.7275L28.1353 18.605L28.1462 18.6351H32.2905L34.4635 10.2665L36.7383 18.605L36.7474 18.6351H40.8626L45.2395 5.13749L45.2595 5.0791H41.0243L38.6587 13.545L36.4857 5.11803L36.4748 5.0791H32.5631L30.4191 13.5556L28.0735 5.10918L28.0626 5.0791H28.0645Z" fill="white"/>
<path d="M52.4799 4.72589C50.3468 4.72589 48.5372 5.40528 47.2527 6.68445C45.9681 7.96362 45.2922 9.75588 45.2922 11.8719C45.2922 13.9879 45.9699 15.7501 47.2436 17.031C48.5281 18.3208 50.3377 19.0002 52.4817 19.0002C54.6256 19.0002 56.3934 18.3297 57.6889 17.07C59.0025 15.7908 59.6911 13.9985 59.6911 11.8719C59.702 7.53016 56.8604 4.72412 52.4835 4.72412L52.4799 4.72589ZM52.4799 15.8899C50.4976 15.8899 49.3966 14.4621 49.3966 11.8737C49.3966 9.28525 50.4795 7.82739 52.449 7.82739C55.1779 7.82739 55.5831 10.3574 55.5831 11.8737C55.5831 14.4621 54.4802 15.8899 52.4799 15.8899Z" fill="white"/>
<path d="M69.6569 4.72656C67.9781 4.72656 66.3611 5.63242 65.4926 7.04074V5.09103H61.5699V18.647H65.6743V12.5237C65.6743 9.84501 66.848 8.47738 69.1518 8.47738C69.6169 8.47738 70.0512 8.5163 70.4455 8.60476L70.678 8.6543V4.9141L70.5163 4.86456C70.3237 4.80441 70.0421 4.72656 69.6569 4.72656Z" fill="white"/>
<path d="M76.1072 0.0302734L72.0029 2.02776V18.6357H76.1072V0.0302734Z" fill="white"/>
<path d="M87.8947 2.0468V6.35847C87.0244 5.33407 85.589 4.72368 84.032 4.72368C82.1315 4.72368 80.5345 5.45261 79.4225 6.83971C78.4014 8.11003 77.8455 9.85274 77.8455 11.7423C77.8455 15.3551 79.7859 18.998 84.1137 18.998C85.8416 18.998 87.217 18.4177 88.0873 17.3155V18.6442H91.999V0.0493164L87.8947 2.04857V2.0468ZM85.0222 15.8894C82.8982 15.8894 81.9389 13.8619 81.9389 11.8432C81.9389 9.28304 83.0508 7.82695 84.9913 7.82695C87.6294 7.82695 88.0146 10.3269 88.0146 11.8237C88.0237 14.4422 86.9626 15.8894 85.0222 15.8894Z" fill="white"/>
<path d="M0 0H18.0563V4.41075H0V0Z" fill="white"/>
<path d="M11.6145 18.6357V8.33868L6.42908 5.7998V18.6375H11.6145V18.6357Z" fill="white"/>
</g>
<defs>
<clipPath id="clip0_6332_56277">
<rect width="92" height="19" fill="white"/>
</clipPath>
</defs>
</svg>
