<svg width="113" height="20" viewBox="0 0 113 20" fill="none" xmlns="http://www.w3.org/2000/svg">
<g clip-path="url(#clip0_192_11608)">
<path d="M13.8863 4.49808C13.8863 2.89189 12.7893 1.87836 11.3439 1.87836C11.0064 1.87836 10.1475 1.88941 9.84814 1.92255L8.84566 8.13686C9.02848 8.15343 9.34387 8.13686 9.51067 8.13686C11.8918 8.13686 13.8863 6.5859 13.8863 4.49808ZM31.6648 0.659915L29.6653 12.8615C29.5825 13.3597 29.577 13.5591 30.5242 13.5591L30.2856 15.1211H28.6407C29.5438 15.537 30.4242 16.1849 30.4242 17.0377C30.4242 18.6715 28.818 19.9728 24.6087 19.9728C16.8158 19.9728 11.6708 15.9966 9.90338 10.0198H8.5242L7.92602 13.7812C7.815 14.5008 7.82605 14.7339 9.10581 14.8168L9.98678 14.8775L9.62666 16.7162C8.35242 16.6384 6.94563 16.5715 5.54436 16.5776C4.27068 16.5776 2.93016 16.6439 1.66753 16.7162L1.96689 14.8775C2.2994 14.861 2.5264 14.861 2.74237 14.8383C2.94231 14.8217 3.1395 14.7809 3.3295 14.7168C3.6841 14.6058 3.97187 14.3788 4.0492 13.9192L5.94922 2.45997C5.40786 2.55525 4.87725 2.70381 4.36512 2.90349C3.94425 3.06919 3.48415 3.45141 3.48415 3.76182C3.48415 3.89493 3.51232 3.99435 3.56756 4.08328C3.63936 4.19374 3.72828 4.29372 3.72828 4.44285C3.72828 4.54779 3.6841 4.6091 3.62887 4.68145C3.35215 5.01396 2.73132 5.27908 2.14971 5.27908C1.9708 5.27915 1.79363 5.24397 1.62831 5.17556C1.46299 5.10714 1.31278 5.00682 1.18624 4.88033C1.0597 4.75385 0.959325 4.60368 0.89084 4.43839C0.822356 4.2731 0.787109 4.09593 0.787109 3.91702V3.90045C0.787109 1.75684 3.46814 0.897967 5.18479 0.560491C7.11482 0.207543 9.07151 0.0203554 11.0334 0.000976562C14.9937 0.000976562 17.868 1.23599 17.868 4.35999C17.868 6.93 15.9188 8.59142 13.8305 9.30007C15.4201 14.2578 19.3024 17.9794 24.2872 17.9794C26.1818 17.9794 26.8462 17.1708 26.8462 16.3788C26.8565 16.0559 26.7381 15.7421 26.5171 15.5064C26.296 15.2708 25.9904 15.1326 25.6675 15.1222L25.6112 15.1217H24.8247L25.124 13.5597C25.678 13.5597 26.2872 13.51 26.3811 12.9399L27.8045 4.13851C27.8266 3.98385 27.7658 3.91758 27.6051 3.91758H26.2812L26.5419 2.52183L31.5046 0.50029L31.6653 0.66654L31.6648 0.659915ZM103.39 13.5586L103.091 15.1206H97.752L98.0122 13.5586C98.8319 13.5586 98.9484 13.4868 99.0539 12.7836L99.6349 8.93995C99.7355 8.28101 99.3361 8.05897 98.9545 8.05897C98.179 8.05897 97.3764 8.86759 97.2373 9.79827L96.7556 12.9162C96.6838 13.3597 96.7556 13.5586 97.6753 13.5586L97.4317 15.1206H92.015L92.2917 13.5586C93.2715 13.5586 93.4378 13.415 93.5322 12.8168L94.1746 8.85654C94.2188 8.57927 94.1746 8.54116 93.9537 8.54116H92.7733L93.0169 7.17856L97.852 5.10123L97.9967 5.23986L97.7752 6.45831C98.6612 5.67179 99.6416 5.1178 100.755 5.1178C102.145 5.1178 103.076 6.42462 103.076 7.82092C103.076 8.1479 103.048 8.41302 102.975 8.87863L102.334 12.7781C102.223 13.4315 102.339 13.553 103.397 13.553L103.39 13.5586ZM83.8161 5.58342L82.897 7.53868C82.5465 7.39704 82.1726 7.32194 81.7946 7.31719H80.6987L79.9564 11.859C79.8233 12.6737 79.9779 12.8173 80.3994 12.8173C80.8534 12.8173 81.319 12.5843 82.1552 11.8204L82.8755 13.2377C81.884 14.2898 80.6214 15.3978 79.0152 15.3978C77.3091 15.3978 76.5557 14.423 76.5557 12.8775C76.5557 12.5506 76.612 12.107 76.6562 11.7977L77.3759 7.31664L76.1193 7.33873L76.4182 5.62208L77.6145 5.63865L77.8973 3.82202L81.1986 2.48151L81.4195 2.70299L80.9545 5.59943L83.8178 5.57734V5.58342H83.8161ZM77.2367 0.682005C76.8134 2.14784 76.4731 3.63634 76.2171 5.14045H74.2955C74.4728 4.5036 74.5281 4.10482 74.5336 3.75574C74.5507 2.92448 73.6035 2.39866 72.1972 2.39866C70.7573 2.39866 69.7935 3.13547 69.7763 4.06008C69.7603 4.93552 70.0923 5.30117 71.2003 6.08162L73.1163 7.4387C74.8998 8.70134 75.9741 9.88167 75.9404 11.9192C75.8802 15.3034 73.0108 17.0151 69.3389 17.0151C68.4806 17.0151 67.7658 16.877 67.1787 16.7383C66.6805 16.6163 66.1989 16.4611 65.678 16.4611C65.2866 16.4697 64.9031 16.5721 64.5595 16.7599L64.2607 16.5942C64.0181 14.9529 63.7224 13.3199 63.3742 11.6977L65.3792 11.2161C65.9056 13.6972 67.0572 14.8383 69.556 14.8383C71.1953 14.8383 72.0763 14.0413 72.0984 12.7615C72.1205 11.532 71.4836 11.0228 70.3198 10.2584C69.8074 9.93354 69.2997 9.60118 68.7971 9.26141C68.3113 8.9453 67.8569 8.58353 67.44 8.18104C67.0021 7.73419 66.6623 7.20101 66.442 6.61548C66.2218 6.02995 66.126 5.40494 66.1608 4.78032C66.205 2.12194 68.5866 0.238484 71.8156 0.238484C73.1666 0.238484 74.2199 0.57651 75.4378 0.64279C75.8421 0.65936 76.5237 0.570437 76.9556 0.459971L77.2328 0.681457L77.2367 0.682005ZM42.6811 2.29924C42.6811 3.55635 41.3185 4.65826 39.9006 4.65826C39.1804 4.65826 38.3441 4.35392 38.3441 3.34039C38.3441 1.83362 39.873 0.820088 41.1412 0.820088C41.9779 0.820641 42.6811 1.38016 42.6811 2.29924ZM42.3602 5.24042L41.1417 12.6395C41.0036 13.4707 40.9865 13.5586 42.1829 13.5586L41.9393 15.1206H36.3618L36.5999 13.5586C37.5195 13.5586 37.7852 13.3376 37.8631 12.8389L38.4833 8.79579C38.5165 8.56326 38.522 8.54116 38.2839 8.54116H37.0047L37.2433 7.17856L42.2226 5.10123L42.3602 5.24042ZM37.403 0.599158L35.4422 12.5787C35.298 13.4707 35.3925 13.5586 36.2839 13.5586L36.0404 15.115H30.6015L30.8451 13.5586C31.7979 13.5586 32.0359 13.3763 32.1414 12.7002L33.504 4.23737C33.5482 3.96066 33.5151 3.92199 33.3046 3.92199H32.0415L32.285 2.5373L37.2643 0.465491L37.403 0.604131V0.599158ZM109.732 8.15895C109.703 7.273 109.344 7.01838 108.829 7.01838C108.241 7.01838 107.406 7.73862 107.09 9.34425L109.732 8.15895ZM112.911 8.64058L106.83 11.4376C106.957 12.4787 107.538 13.1763 108.491 13.1763C109.488 13.1763 109.832 12.6168 109.832 12.3567C109.832 12.2437 109.797 12.1334 109.732 12.0413C109.654 11.9308 109.593 11.8646 109.593 11.7204C109.587 11.6323 109.615 11.5452 109.671 11.4768C109.845 11.2913 110.057 11.1443 110.291 11.0451C110.526 10.9459 110.779 10.8967 111.033 10.9007C111.743 10.9007 112.374 11.4326 112.374 12.2412C112.374 13.9971 110.651 15.4205 107.954 15.4205C105.296 15.4205 103.396 13.8088 103.396 10.7571C103.396 8.02694 105.833 5.08024 108.873 5.08024C111.421 5.07968 112.529 6.35889 112.911 8.64058ZM89.15 8.61849C89.15 7.51658 88.7904 7.01838 88.1365 7.01838C87.1837 7.01838 86.1536 9.03439 86.1536 11.8977C86.1536 12.9941 86.5248 13.4763 87.1726 13.4763C88.1807 13.4763 89.1555 11.1498 89.1555 8.61849M92.6115 9.42158C92.6115 12.4241 90.4519 15.437 87.018 15.437C84.4038 15.437 82.7363 13.9137 82.7363 10.8786C82.7363 7.78281 85.0738 5.04102 88.2972 5.04102C90.8059 5.04102 92.617 6.62511 92.617 9.41661M58.9589 16.661C58.9589 16.434 58.7485 16.2794 58.2607 16.2794C57.7018 16.2794 57.1367 16.3567 56.5607 16.3567C55.6842 16.3897 54.8126 16.2131 54.0183 15.8414C53.6305 16.1462 53.398 16.4953 53.398 16.999C53.398 17.6475 54.2453 18.1788 55.1815 18.1788C57.6581 18.1783 58.9589 17.2758 58.9589 16.661ZM59.519 7.92034C59.519 7.3669 59.3024 6.87919 58.854 6.87919C57.8349 6.87919 57.3969 8.76817 57.3969 9.89769C57.3969 10.6842 57.5631 11.0167 58.1006 11.0167C58.9975 11.0167 59.5184 8.95652 59.5184 7.91481M65.7609 6.28156C65.7609 6.9184 65.1958 7.69941 64.6529 7.69941C64.4756 7.69941 64.4143 7.57237 64.3204 7.4387C64.2603 7.3552 64.1749 7.29324 64.0768 7.26196C64.0006 7.233 63.9198 7.21785 63.8382 7.21722C63.2566 7.21722 62.8412 7.87615 62.8412 8.45831L62.8578 8.85709C62.8486 9.48767 62.6688 10.104 62.3375 10.6406C61.902 11.3235 61.3021 11.8862 60.5927 12.2772C59.8834 12.6682 59.0873 12.875 58.2773 12.8786C57.6611 12.9001 57.046 12.8119 56.4607 12.6179C56.3601 12.7274 56.3013 12.8688 56.2944 13.0173C56.2944 13.4266 56.6214 13.5155 57.1196 13.5155C58.1558 13.5155 59.0804 13.3603 60.0381 13.3603C61.678 13.3603 62.8573 14.1689 62.8573 15.6806C62.8573 18.3666 58.7584 20.001 54.9373 20.001C52.6667 20.001 50.4789 19.347 50.4789 17.4199C50.4789 16.4672 51.0329 15.7254 52.279 15.1211H47.7592L48.0199 13.5591C48.9285 13.537 49.0169 13.4713 49.0997 12.8952L49.6979 8.90184C49.7758 8.4086 49.4433 8.06008 49.0224 8.06008C48.2359 8.06008 47.4328 8.94602 47.3218 9.66074L46.8015 12.962C46.7346 13.3713 46.8236 13.5597 47.6819 13.5597L47.4383 15.1217H42.2602L42.5203 13.5597C43.4179 13.5597 43.4449 13.4271 43.5173 12.962L44.1823 8.84108C44.2265 8.56436 44.1823 8.54227 43.9829 8.54227H42.6982L42.9583 7.15756L47.9211 5.10233L48.0597 5.24097L47.8603 6.44285C48.8573 5.579 49.8763 5.10233 50.7794 5.10233C52.3635 5.10233 53.1384 6.58149 53.1384 7.93802C53.1384 8.0877 53.0997 8.45886 53.0832 8.60302L52.4021 12.8621C52.3193 13.3774 52.6789 13.5265 53.1776 13.5597C53.4267 12.613 54.1304 12.1203 54.9611 11.7823C54.6476 11.4607 54.4025 11.0789 54.2407 10.6599C54.0788 10.241 54.0035 9.79364 54.0194 9.34481C54.0194 6.64776 56.4507 5.00291 58.9208 5.00291C60.0453 5.00291 61.4411 5.3796 62.2165 6.55883C62.7766 5.57899 63.5792 5.00291 64.4148 5.00291C65.1627 5.00291 65.7554 5.47903 65.7554 6.27715M22.7424 8.61849C22.7424 7.51658 22.3767 7.01838 21.7233 7.01838C20.7705 7.01838 19.746 9.03439 19.746 11.8977C19.746 12.9941 20.1171 13.4818 20.765 13.4818C21.773 13.4818 22.7424 11.1554 22.7424 8.61849ZM26.2038 9.42158C26.2038 12.4241 24.0437 15.437 20.6043 15.437C17.9956 15.437 16.3232 13.9137 16.3232 10.8786C16.3232 7.78281 18.6606 5.04102 21.884 5.04102C24.3988 5.04102 26.2044 6.62511 26.2044 9.41661" fill="white" fill-opacity="0.5"/>
</g>
<defs>
<clipPath id="clip0_192_11608">
<rect width="112.124" height="20" fill="white" transform="translate(0.787109)"/>
</clipPath>
</defs>
</svg>
