<?xml version="1.0" encoding="UTF-8"?>
<svg xmlns="http://www.w3.org/2000/svg" width="159" height="30" viewBox="0 0 159 30" fill="none">
  <path d="M26.044 15L7.26099 25.5M26.044 15L7.19324 4.53828M26.044 15V8L13.522 1L7.19324 4.53828M26.044 15L26.044 22L13.522 29L7.26099 25.5M7.26099 25.5L7.19324 4.53828M7.26099 25.5L1 22L1 8L7.19324 4.53828" stroke="#FF2210" stroke-width="1.6" stroke-linejoin="round"></path>
  <path d="M47.371 25.4225C51.1377 25.4225 53.7149 23.31 53.7149 19.085V18.7275H51.5672V19.085C51.5672 22.0425 49.8821 23.4075 47.371 23.4075C44.8268 23.4075 43.1747 22.01 43.1747 19.085V10.9275H52.7898V8.94499H43.1747V3.25749H40.9609V19.085C40.9609 23.31 43.5712 25.4225 47.371 25.4225Z" fill="white"></path>
  <path d="M64.2791 25.4225C67.4511 25.4225 70.1605 23.895 71.3169 21.035V25H73.3655V17.07C73.3655 12 69.764 8.52249 64.6095 8.52249C59.4551 8.52249 55.8205 12.065 55.8205 17.07C55.8205 22.205 59.6864 25.4225 64.2791 25.4225ZM64.6095 23.4075C60.7107 23.4075 58.0673 20.6775 58.0673 16.9725C58.0673 13.2675 60.7107 10.5375 64.6095 10.5375C68.5084 10.5375 71.1517 13.2675 71.1517 16.9725C71.1517 20.6775 68.5084 23.4075 64.6095 23.4075Z" fill="white"></path>
  <path d="M85.3389 25.4225C90.5264 25.4225 94.1609 21.8475 94.1609 16.9075C94.1609 11.9675 90.4933 8.52249 85.7023 8.52249C82.5964 8.52249 80.0523 9.95249 78.8297 12.39V1.92499H76.616V16.875C76.616 22.0425 80.2835 25.4225 85.3389 25.4225ZM85.3719 23.4075C81.44 23.4075 78.8297 20.6775 78.8297 16.9725C78.8297 13.2675 81.44 10.5375 85.3719 10.5375C89.2708 10.5375 91.9141 13.2675 91.9141 16.9725C91.9141 20.6775 89.2708 23.4075 85.3719 23.4075Z" fill="white"></path>
  <path d="M96.7505 25H98.9643V16.615C98.9643 12.65 101.277 10.5375 104.813 10.5375C108.348 10.5375 110.661 12.65 110.661 16.615V25H112.875V16.615C112.875 11.285 109.637 8.52249 104.813 8.52249C99.9886 8.52249 96.7505 11.285 96.7505 16.615V25Z" fill="white"></path>
  <path d="M117.829 5.82499C118.787 5.82499 119.514 5.10999 119.514 4.16749C119.514 3.22499 118.787 2.50999 117.829 2.50999C116.871 2.50999 116.144 3.22499 116.144 4.16749C116.144 5.10999 116.871 5.82499 117.829 5.82499ZM116.739 25H118.952V8.94499H116.739V25Z" fill="white"></path>
  <path d="M122.79 25H125.004V16.615C125.004 12.65 127.317 10.5375 130.852 10.5375C134.388 10.5375 136.7 12.65 136.7 16.615V25H138.914V16.615C138.914 11.285 135.676 8.52249 130.852 8.52249C126.028 8.52249 122.79 11.285 122.79 16.615V25Z" fill="white"></path>
  <path d="M150.278 25.4225C154.078 25.4225 157.052 23.4725 158.307 20.515H155.895C154.838 22.3675 152.856 23.4075 150.278 23.4075C146.611 23.4075 144.067 21.035 143.769 17.6875H159.001V16.9725C159.001 12.0975 155.433 8.52249 150.278 8.52249C145.124 8.52249 141.489 12.0975 141.489 16.9725C141.489 21.8475 145.124 25.4225 150.278 25.4225ZM143.835 15.7375C144.331 12.585 146.875 10.5375 150.278 10.5375C153.583 10.5375 156.16 12.4875 156.688 15.7375H143.835Z" fill="white"></path>
</svg>
