<svg width="112" height="112" viewBox="0 0 112 112" fill="none" xmlns="http://www.w3.org/2000/svg">
<g clip-path="url(#clip0_2656_3782)">
<path d="M48.6697 46H45.6098V49.2034H48.6697V46ZM87.8697 62.3001V54.6488C87.8697 50.1761 85.0705 48.1808 78.7907 48.1808C73.5142 48.1808 70.365 50.5534 70.365 54.5274H73.4502C73.4502 52.1486 75.0975 51.0893 78.7907 51.0893C83.2525 51.0893 84.8356 52.0784 84.8356 54.8673C83.7454 55.0137 82.7106 55.1437 81.6992 55.2694C74.116 56.2176 69.5393 56.7906 69.5393 61.1789C69.5393 62.9 70.1985 64.1203 71.5555 64.9077C72.7697 65.6125 74.9332 66 77.6471 66C81.3024 66 84.345 65.1115 85.2175 63.7904C85.1387 64.9921 85.2175 65.7383 85.2175 65.7445H88C87.9957 65.7321 87.8697 64.3635 87.8697 62.3001ZM84.8356 58.6972C84.8356 60.5625 84.1742 61.8425 82.8129 62.6073C81.5966 63.2916 79.7681 63.6111 77.0626 63.6111C75.4047 63.6111 72.6246 63.2916 72.6246 61.1541C72.6246 60.1112 73.35 59.4743 75.1274 58.959C77.0435 58.4024 80.2632 57.9715 84.8379 57.4604V58.6972H84.8356ZM72.7782 61.1171H72.7017V61.1891H72.7782V61.1171ZM34.9842 46H23.9999V65.7445H27.0597V58.7199H34.9842C42.3861 58.7199 43.1862 54.2719 43.1862 52.361C43.184 50.4483 42.3837 46 34.9842 46ZM34.4316 55.7889H27.0597V48.9312H34.4337C38.2659 48.9312 39.9002 49.9556 39.9002 52.359C39.8982 54.7624 38.2637 55.7889 34.4316 55.7889ZM69.1425 48.3004H64.905L54.3453 56.4897V46H51.2856V65.7445H54.3453V57.4089L65.003 65.7445H69.4411L58.058 56.7328L69.1425 48.3004ZM48.6697 50.5884H45.6098V65.7445H48.6697V50.5884Z" fill="black"/>
</g>
<defs>
<clipPath id="clip0_2656_3782">
<rect width="64" height="20" fill="white" transform="translate(23.9999 46)"/>
</clipPath>
</defs>
</svg>
