<svg width="200" height="200" viewBox="0 0 200 200" fill="none" xmlns="http://www.w3.org/2000/svg">
<path d="M100.245 61.4806L35.5654 71.5864V65.6376L100.245 47.2178V61.4806Z" fill="#5B52FF"/>
<path d="M100.245 84.6466L35.5654 87.0297V81.0809L100.245 70.3838V84.6466Z" fill="#5B52FF"/>
<path d="M100.245 139.889L35.5654 129.783V135.732L100.245 154.152V139.889Z" fill="#5B52FF"/>
<path d="M100.245 116.72L35.5654 114.337V120.286L100.245 130.983V116.72Z" fill="#5B52FF"/>
<path d="M100.245 107.818L35.5654 103.661V97.7127L100.245 93.5557V107.818Z" fill="#5B52FF"/>
<path d="M100.245 61.4806L153.637 70.4038L154.442 67.6086L164.924 68.612V65.6376L100.245 47.2178V61.4806Z" fill="#9CA7FF"/>
<path d="M100.245 84.6466L148.307 86.4384L149.309 83.5894L164.924 84.0553V81.0809L100.245 70.3838V84.6466Z" fill="#9CA7FF"/>
<path d="M100.245 139.889L164.924 129.783V132.758L112.515 146.805L111.299 150.873L100.245 154.152V139.889Z" fill="#9CA7FF"/>
<path d="M100.245 116.72L164.924 114.337V117.311L137.754 120.071L136.376 124.819L100.245 130.983V116.72Z" fill="#9CA7FF"/>
<path d="M100.245 107.818L158.985 103.661L159.755 101.045L164.924 100.687V97.7127L100.245 93.5557V107.818Z" fill="#9CA7FF"/>
</svg>
