<svg width="1051" height="338" viewBox="0 0 1051 338" fill="none" xmlns="http://www.w3.org/2000/svg">
<path d="M676.042 244.742C672.087 240.047 668.686 235.277 667.982 234.285C667.908 234.21 667.801 234.21 667.726 234.285C667.033 235.277 663.622 240.047 659.667 244.742C625.713 288.089 665.019 317.349 665.019 317.349L665.349 317.574C665.648 322.087 666.372 328.586 666.372 328.586H669.304C669.304 328.586 670.04 322.13 670.328 317.574L670.658 317.317C670.658 317.317 709.996 288.1 676.042 244.753V244.742ZM667.844 316.688C667.844 316.688 666.085 315.183 665.605 314.415V314.34L667.726 267.141C667.726 266.992 667.95 266.992 667.95 267.141L670.072 314.34V314.415C669.592 315.183 667.833 316.688 667.833 316.688H667.844Z" fill="#023430"/>
<path d="M741.392 306.773L725.017 267.023L724.985 266.916H712.245V269.584H714.303C714.932 269.584 715.518 269.84 715.955 270.277C716.392 270.715 716.616 271.302 716.616 271.921L716.254 311.927C716.254 313.176 715.23 314.2 713.972 314.232L711.883 314.264V316.9H724.292V314.264L723.002 314.232C721.755 314.2 720.721 313.176 720.721 311.927V274.226L738.567 316.911C738.823 317.53 739.409 317.935 740.07 317.935C740.731 317.935 741.317 317.53 741.573 316.911L759.014 275.176L759.27 311.927C759.27 313.208 758.246 314.232 756.956 314.275H755.635V316.911H770.176V314.275H768.193C766.946 314.275 765.911 313.218 765.879 311.97L765.773 271.964C765.773 270.683 766.796 269.659 768.054 269.616L770.186 269.584V266.916H757.777L741.402 306.784H741.392V306.773Z" fill="#023430"/>
<path d="M855.589 313.88C855.184 313.474 854.96 312.919 854.96 312.258V292.484C854.96 288.717 853.862 285.772 851.645 283.669C849.47 281.567 846.453 280.5 842.701 280.5C837.434 280.5 833.276 282.645 830.366 286.849C830.334 286.924 830.217 286.956 830.11 286.956C830.004 286.956 829.929 286.881 829.929 286.775L828.564 281.503H826.283L820.43 284.865V286.711H821.944C822.648 286.711 823.234 286.892 823.639 287.266C824.044 287.639 824.268 288.183 824.268 288.962V312.247C824.268 312.909 824.044 313.463 823.639 313.869C823.234 314.274 822.68 314.499 822.019 314.499H820.548V317.188H834.023V314.499H832.552C831.891 314.499 831.336 314.274 830.931 313.869C830.526 313.463 830.302 312.909 830.302 312.247V296.902C830.302 294.949 830.739 292.985 831.549 291.075C832.392 289.197 833.65 287.607 835.302 286.391C836.954 285.174 838.948 284.587 841.229 284.587C843.809 284.587 845.76 285.398 846.975 287.02C848.191 288.642 848.82 290.744 848.82 293.252V312.29C848.82 312.951 848.596 313.506 848.191 313.912C847.786 314.317 847.231 314.541 846.57 314.541H845.099V317.23H858.574V314.541H857.103C856.549 314.541 856.037 314.36 855.589 313.912V313.88Z" fill="#023430"/>
<path d="M978.699 269.914C974.979 267.93 970.81 266.895 966.322 266.895H948.796V269.584H950.512C951.163 269.584 951.749 269.84 952.335 270.427C952.89 270.982 953.178 271.601 953.178 272.262V311.82C953.178 312.482 952.89 313.112 952.335 313.656C951.792 314.211 951.163 314.499 950.512 314.499H948.796V317.188H966.322C970.81 317.188 974.979 316.164 978.699 314.168C982.431 312.183 985.458 309.238 987.644 305.492C989.829 301.747 990.97 297.222 990.97 292.068C990.97 286.914 989.84 282.432 987.644 278.644C985.416 274.823 982.42 271.878 978.699 269.893V269.914ZM983.923 292.015C983.923 296.721 983.081 300.69 981.439 303.892C979.797 307.093 977.601 309.483 974.904 311.02C972.196 312.567 969.201 313.336 965.992 313.336H962.452C961.791 313.336 961.216 313.08 960.629 312.493C960.086 311.938 959.787 311.319 959.787 310.657V273.372C959.787 272.71 960.043 272.123 960.629 271.537C961.184 270.982 961.802 270.693 962.452 270.693H965.992C969.201 270.693 972.196 271.462 974.904 273.009C977.601 274.556 979.797 276.947 981.439 280.138C983.081 283.339 983.923 287.309 983.923 292.015Z" fill="#023430"/>
<path d="M1032.41 294.704C1030.79 292.826 1027.65 291.246 1023.98 290.403C1029.05 287.863 1031.67 284.299 1031.67 279.7C1031.67 277.203 1031.01 274.962 1029.68 273.041C1028.36 271.131 1026.48 269.584 1024.08 268.517C1021.69 267.449 1018.89 266.895 1015.72 266.895H995.884V269.584H997.462C998.123 269.584 998.709 269.84 999.306 270.427C999.861 270.982 1000.16 271.601 1000.16 272.262V311.82C1000.16 312.482 999.861 313.112 999.306 313.656C998.752 314.211 998.134 314.499 997.462 314.499H995.735V317.188H1017.27C1020.54 317.188 1023.6 316.633 1026.36 315.534C1029.12 314.435 1031.33 312.813 1032.92 310.679C1034.54 308.544 1035.35 305.941 1035.35 302.921C1035.32 299.687 1034.36 296.966 1032.41 294.682V294.704ZM1007.71 312.535C1007.15 311.98 1006.85 311.362 1006.85 310.7V292.943H1017.09C1020.7 292.943 1023.45 293.861 1025.37 295.696C1027.29 297.532 1028.24 299.922 1028.24 302.867C1028.24 304.628 1027.8 306.357 1026.99 307.936C1026.14 309.558 1024.89 310.839 1023.2 311.831C1021.53 312.824 1019.48 313.336 1017.09 313.336H1009.54C1008.88 313.368 1008.29 313.112 1007.7 312.525H1007.71V312.535ZM1006.9 289.144V273.372C1006.9 272.71 1007.15 272.123 1007.74 271.537C1008.29 270.982 1008.91 270.693 1009.58 270.693H1014.44C1017.94 270.693 1020.52 271.579 1022.13 273.265C1023.75 274.994 1024.56 277.203 1024.56 279.924C1024.56 282.645 1023.78 284.961 1022.28 286.647C1020.77 288.301 1018.48 289.144 1015.47 289.144H1006.9Z" fill="#023430"/>
<path d="M804.29 282.838C801.476 281.301 798.331 280.49 794.941 280.49C791.55 280.49 788.363 281.259 785.591 282.838C782.777 284.375 780.549 286.616 778.907 289.433C777.265 292.25 776.423 295.547 776.423 299.218C776.423 302.889 777.265 306.176 778.907 309.004C780.549 311.821 782.777 314.062 785.591 315.599C788.406 317.135 791.55 317.946 794.941 317.946C798.331 317.946 801.518 317.178 804.29 315.599C807.104 314.062 809.333 311.821 810.974 309.004C812.616 306.187 813.458 302.889 813.458 299.218C813.458 295.547 812.616 292.261 810.974 289.433C809.333 286.573 807.104 284.375 804.29 282.838ZM806.998 299.208C806.998 303.711 805.9 307.382 803.714 310.018C801.561 312.653 798.597 314.009 794.951 314.009C791.305 314.009 788.342 312.653 786.188 310.018C783.992 307.382 782.905 303.711 782.905 299.208C782.905 294.704 784.003 291.033 786.188 288.398C788.342 285.762 791.305 284.407 794.951 284.407C798.597 284.407 801.561 285.762 803.714 288.398C805.91 291.033 806.998 294.662 806.998 299.208Z" fill="#023430"/>
<path d="M933.754 282.838C930.939 281.301 927.794 280.49 924.404 280.49C921.014 280.49 917.827 281.259 915.055 282.838C912.24 284.375 910.012 286.616 908.37 289.433C906.729 292.25 905.887 295.547 905.887 299.218C905.887 302.889 906.729 306.176 908.37 309.004C910.012 311.821 912.24 314.062 915.055 315.599C917.869 317.135 921.014 317.946 924.404 317.946C927.794 317.946 930.982 317.178 933.754 315.599C936.568 314.062 938.796 311.821 940.438 309.004C942.08 306.187 942.922 302.889 942.922 299.218C942.922 295.547 942.08 292.261 940.438 289.433C938.796 286.573 936.525 284.375 933.754 282.838ZM936.461 299.208C936.461 303.711 935.363 307.382 933.178 310.018C931.024 312.653 928.061 314.009 924.415 314.009C920.769 314.009 917.805 312.653 915.641 310.018C913.445 307.382 912.358 303.711 912.358 299.208C912.358 294.704 913.456 291.033 915.641 288.398C917.795 285.762 920.758 284.407 924.415 284.407C928.071 284.407 931.024 285.762 933.178 288.398C935.331 291.033 936.461 294.662 936.461 299.208Z" fill="#023430"/>
<path d="M881.548 280.49C878.606 280.49 875.919 281.12 873.489 282.368C871.058 283.617 869.15 285.314 867.785 287.48C866.431 289.614 865.728 292.004 865.728 294.544C865.728 296.828 866.24 298.919 867.306 300.798C868.34 302.601 869.736 304.106 871.495 305.365L866.24 312.504C865.579 313.39 865.504 314.563 865.984 315.524C866.495 316.516 867.455 317.103 868.564 317.103H870.077C868.606 318.096 867.434 319.28 866.623 320.678C865.664 322.257 865.184 323.922 865.184 325.608C865.184 328.778 866.581 331.392 869.342 333.334C872.071 335.287 875.887 336.279 880.706 336.279C884.054 336.279 887.252 335.725 890.162 334.657C893.105 333.59 895.493 332.011 897.262 329.941C899.064 327.881 899.991 325.373 899.991 322.503C899.991 319.483 898.883 317.349 896.313 315.289C894.107 313.56 890.653 312.643 886.346 312.643H871.623L871.549 312.611C871.549 312.611 871.517 312.536 871.549 312.504L875.376 307.35C876.41 307.83 877.359 308.118 878.212 308.31C879.096 308.492 880.088 308.566 881.196 308.566C884.288 308.566 887.081 307.937 889.512 306.688C891.942 305.44 893.883 303.743 895.29 301.577C896.686 299.442 897.39 297.052 897.39 294.512C897.39 291.791 896.068 286.818 892.454 284.279C892.454 284.247 892.486 284.247 892.486 284.247L900.396 285.132V281.483H887.742C885.759 280.821 883.691 280.49 881.559 280.49H881.548ZM885.962 303.529C884.565 304.266 883.051 304.671 881.548 304.671C879.086 304.671 876.911 303.786 875.077 302.057C873.244 300.328 872.316 297.788 872.316 294.544C872.316 291.3 873.233 288.76 875.077 287.032C876.922 285.303 879.086 284.417 881.548 284.417C883.094 284.417 884.565 284.791 885.962 285.559C887.358 286.295 888.499 287.437 889.416 288.942C890.301 290.446 890.78 292.325 890.78 294.534C890.78 296.743 890.343 298.653 889.416 300.125C888.531 301.63 887.358 302.74 885.962 303.508V303.529ZM875.994 317.071H885.962C888.723 317.071 890.482 317.626 891.665 318.8C892.838 319.974 893.435 321.564 893.435 323.399C893.435 326.088 892.369 328.297 890.237 329.951C888.105 331.605 885.237 332.459 881.698 332.459C878.606 332.459 876.026 331.755 874.15 330.432C872.273 329.108 871.314 327.081 871.314 324.509C871.314 322.887 871.751 321.382 872.636 320.059C873.521 318.736 874.587 317.776 875.983 317.082L875.994 317.071Z" fill="#023430"/>
<path d="M1042.81 316.589C1042.09 316.195 1041.54 315.618 1041.11 314.925C1040.7 314.199 1040.49 313.441 1040.49 312.609C1040.49 311.777 1040.7 310.987 1041.11 310.293C1041.51 309.568 1042.09 309.034 1042.81 308.629C1043.55 308.234 1044.35 308.01 1045.25 308.01C1046.16 308.01 1046.96 308.223 1047.7 308.629C1048.43 309.024 1048.97 309.6 1049.41 310.293C1049.82 311.019 1050.03 311.777 1050.03 312.609C1050.03 313.441 1049.82 314.231 1049.41 314.925C1049.01 315.65 1048.43 316.195 1047.7 316.589C1046.97 316.984 1046.17 317.208 1045.25 317.208C1044.34 317.208 1043.55 316.995 1042.81 316.589ZM1047.29 316.045C1047.91 315.725 1048.35 315.213 1048.71 314.637C1049.04 314.018 1049.22 313.335 1049.22 312.577C1049.22 311.819 1049.04 311.136 1048.71 310.518C1048.38 309.899 1047.91 309.429 1047.29 309.109C1046.67 308.789 1046.01 308.607 1045.25 308.607C1044.5 308.607 1043.84 308.789 1043.22 309.109C1042.6 309.429 1042.16 309.941 1041.8 310.518C1041.47 311.136 1041.29 311.819 1041.29 312.577C1041.29 313.335 1041.47 314.018 1041.8 314.637C1042.13 315.256 1042.6 315.725 1043.22 316.045C1043.84 316.365 1044.5 316.547 1045.25 316.547C1046.01 316.547 1046.71 316.397 1047.29 316.045ZM1043.29 314.775V314.455L1043.37 314.423H1043.59C1043.67 314.423 1043.74 314.391 1043.77 314.348C1043.85 314.274 1043.85 314.242 1043.85 314.167V310.806C1043.85 310.731 1043.81 310.656 1043.77 310.624C1043.7 310.55 1043.67 310.55 1043.59 310.55H1043.37L1043.29 310.518V310.197L1043.37 310.165H1045.26C1045.81 310.165 1046.21 310.272 1046.54 310.528C1046.87 310.784 1047.01 311.104 1047.01 311.542C1047.01 311.862 1046.91 312.193 1046.65 312.406C1046.39 312.662 1046.11 312.801 1045.74 312.844L1046.18 312.993L1047.02 314.327C1047.1 314.434 1047.17 314.477 1047.28 314.477H1047.49L1047.52 314.509V314.829L1047.49 314.861H1046.36L1046.29 314.829L1045.13 312.876H1044.84V314.178C1044.84 314.252 1044.87 314.327 1044.91 314.359C1044.99 314.434 1045.02 314.434 1045.09 314.434H1045.31L1045.38 314.466V314.786L1045.31 314.818H1043.38L1043.3 314.786H1043.29V314.775ZM1045.15 312.428C1045.44 312.428 1045.69 312.353 1045.84 312.172C1045.99 312.022 1046.1 311.777 1046.1 311.489C1046.1 311.2 1046.02 310.987 1045.88 310.806C1045.73 310.624 1045.52 310.55 1045.26 310.55H1045.12C1045.04 310.55 1044.97 310.582 1044.93 310.624C1044.86 310.699 1044.86 310.731 1044.86 310.806V312.428H1045.15Z" fill="#023430"/>
<path d="M519.359 318.59V267.621H536.086C545.562 267.621 551.305 273.938 551.305 281.117C551.305 286.142 549.079 289.516 545.849 291.526C550.802 293.321 554.679 296.91 554.679 303.73C554.679 312.201 547.931 318.59 537.593 318.59H519.359ZM526.035 289.516H536.086C541.541 289.516 544.772 286.142 544.772 281.619C544.772 277.312 541.541 273.651 536.086 273.651H526.035V289.516ZM526.035 312.56H537.88C544.7 312.56 548.146 308.97 548.146 303.945C548.146 298.992 544.7 295.259 537.952 295.259H526.035V312.56ZM572.981 333.593H566.089L573.914 316.723L558.193 282.696H565.013L577.36 309.904L589.636 282.696H596.527L572.981 333.593Z" fill="#023430"/>
<path d="M32.2028 5.33389V5.79692C32.0605 6.18872 31.9537 6.75861 31.847 7.5066C31.7402 8.25458 31.7402 8.93133 31.7402 9.53684C31.7402 11.8876 32.0605 14.4878 32.6654 17.3729C33.3415 20.1867 34.5869 23.7129 36.4016 27.9515L86.7163 141.503L135.323 28.8776C136.462 26.0637 137.671 23.0006 138.952 19.6881C140.233 16.3399 140.874 12.9918 140.874 9.57247C140.874 8.64639 140.803 7.8984 140.66 7.29289C140.518 6.61614 140.34 6.11749 140.198 5.83254V5.36951H163.469V5.83254C162.046 7.25727 160.302 9.85741 158.239 13.5617C156.21 17.266 153.969 21.8608 151.549 27.3104L86.5028 171.885H77.429L15.7634 32.8668C14.3401 29.6256 12.81 26.4555 11.2088 23.428C9.67868 20.4004 8.25539 17.6578 6.90323 15.2358C5.55107 12.7425 4.34117 10.641 3.27367 8.96695C2.20618 7.29289 1.49456 6.22434 1.10315 5.79692V5.33389H32.2028ZM163.825 106.846C163.825 97.9059 165.497 89.6068 168.807 81.9489C172.223 74.2909 176.813 67.6659 182.649 62.0738C188.484 56.3749 195.352 51.9582 203.322 48.7882C211.293 45.6182 219.797 44.0154 228.871 44.0154C237.945 44.0154 246.2 45.547 254.064 48.5745C261.999 51.5308 268.902 55.7694 274.738 61.2902C280.645 66.8111 285.306 73.5429 288.686 81.4146C292.102 89.2862 293.81 98.1196 293.81 107.879C293.81 116 292.387 123.836 289.505 131.423C286.623 138.938 282.424 145.599 276.908 151.44C271.393 157.21 264.561 161.805 256.484 165.296C248.371 168.715 239.119 170.425 228.658 170.425C219.797 170.425 211.435 168.964 203.571 166.008C195.708 163.052 188.804 158.849 182.898 153.399C176.991 147.878 172.329 141.182 168.949 133.382C165.533 125.51 163.825 116.677 163.825 106.917V106.846ZM231.504 162.304C237.269 162.304 242.571 161.164 247.41 158.884C252.249 156.605 256.413 153.364 259.9 149.125C263.458 144.886 266.198 139.722 268.084 133.667C270.041 127.54 271.037 120.63 271.037 112.972C271.037 104.246 270.076 96.1962 268.19 88.752C266.376 81.3434 263.565 74.9321 259.793 69.5537C256.092 64.1041 251.431 59.8655 245.844 56.838C240.258 53.7392 233.71 52.172 226.202 52.172C220.438 52.172 215.136 53.2761 210.297 55.4845C205.457 57.6928 201.258 60.8628 197.7 65.0302C194.213 69.1975 191.509 74.3265 189.516 80.3816C187.523 86.4368 186.563 93.3467 186.563 101.076C186.563 109.731 187.524 117.781 189.409 125.296C191.367 132.705 194.213 139.187 197.914 144.744C201.685 150.194 206.383 154.503 212.005 157.709C217.591 160.808 224.103 162.375 231.54 162.375V162.304H231.504ZM369.318 121.485C369.318 128.288 369.389 134.237 369.532 139.33C369.674 144.423 369.887 148.804 370.101 152.509C370.421 156.142 370.741 159.205 371.133 161.698C371.595 164.192 372.093 166.257 372.627 167.825V168.288H346.296V167.825C346.829 166.222 347.292 164.192 347.648 161.698C348.11 159.205 348.431 156.142 348.68 152.509C349 148.804 349.214 144.388 349.356 139.33C349.498 134.237 349.569 128.288 349.569 121.485V113.649L308.684 59.6518C305.944 56.0187 303.347 53.098 300.856 50.8897C298.365 48.6101 296.479 47.1854 295.163 46.5799V46.1168H327.401C327.401 47.4703 327.899 49.6074 328.86 52.4925C329.856 55.3064 331.849 58.7613 334.874 62.8218L363.696 101.005L393.23 61.219C395.365 58.3339 396.931 55.4845 397.998 52.7062C399.137 49.8924 399.706 47.7197 399.706 46.1168H420.487V46.5799C418.601 47.8621 416.644 49.5006 414.58 51.4596C412.623 53.4186 410.31 56.2324 407.641 59.8655L369.247 111.904V121.45H369.318V121.485ZM499.695 129.891H470.73C466.852 129.891 463.186 129.927 459.699 129.998C456.212 129.998 453.045 130.034 450.163 130.105H443.473L439.274 138.974C437.46 142.607 435.894 145.777 434.613 148.519C433.332 151.155 432.265 153.506 431.446 155.572C430.628 157.602 430.023 159.383 429.632 160.915C429.24 162.339 429.062 163.728 429.062 165.011C429.062 165.83 429.098 166.471 429.169 166.934C429.24 167.326 429.347 167.611 429.525 167.86V168.323H409.527V167.86C410.061 167.326 410.879 166.186 412.018 164.441C413.157 162.624 414.437 160.416 415.896 157.851C417.426 155.287 418.992 152.366 420.665 149.089C422.408 145.848 424.116 142.464 425.789 138.974L472.118 43.2674H480.622L526.026 138.974C527.77 142.607 529.514 146.097 531.257 149.446C533.072 152.794 534.744 155.786 536.239 158.421C537.769 160.986 539.085 163.159 540.224 164.904C541.363 166.578 542.11 167.54 542.501 167.86V168.323H513.43C513.572 167.718 513.643 167.183 513.643 166.72V165.011C513.643 163.337 513.252 161.342 512.505 158.991C511.829 156.64 510.939 154.254 509.907 151.832C508.911 149.339 507.879 146.952 506.74 144.673C505.673 142.393 504.819 140.505 504.143 138.974L499.73 129.891H499.695ZM447.921 121.022H464.966C468.595 120.951 472.225 120.915 475.854 120.915H486.422C489.838 120.844 492.898 120.808 495.603 120.808L472.118 70.5866L447.921 121.058V121.022ZM667.968 154.575C667.968 155.572 667.861 156.391 667.612 157.068C667.469 157.745 667.042 158.315 666.366 158.778C660.993 162.553 654.695 165.581 647.507 167.86C640.391 170.069 632.029 171.173 622.421 171.173C611.604 171.173 601.712 169.606 592.78 166.507C583.92 163.408 576.305 159.098 569.972 153.542C563.602 147.95 558.656 141.218 555.098 133.417C551.611 125.617 549.867 116.962 549.867 107.487C549.867 99.3662 551.468 91.4946 554.635 83.8366C557.873 76.1787 562.535 69.4112 568.619 63.4986C574.669 57.5859 582.034 52.8487 590.645 49.2869C599.363 45.725 609.149 43.9441 620.037 43.9441C625.73 43.9441 631.104 44.3003 636.156 44.9771C641.245 45.5826 646.12 46.5799 650.817 47.9334L659.321 68.3783L658.182 69.1619C653.628 63.926 648.148 59.7943 641.707 56.7667C635.267 53.6679 627.901 52.1007 619.574 52.1007C612.742 52.1007 606.48 53.2049 600.715 55.4132C595.058 57.6216 590.076 60.8272 585.842 65.0658C581.678 69.2331 578.44 74.3978 576.092 80.5241C573.743 86.6505 572.569 93.6317 572.569 101.432C572.569 110.23 573.672 118.351 575.878 125.866C578.085 133.382 581.358 139.9 585.77 145.421C590.147 150.87 595.556 155.144 601.997 158.279C608.508 161.378 616.087 162.945 624.698 162.945C632.1 162.945 637.864 161.983 641.956 160.095C646.12 158.208 648.183 156.035 648.183 153.613V147.593C648.183 143.64 648.148 140.256 648.077 137.371C648.005 134.486 647.899 132.028 647.756 129.998C647.614 127.861 647.365 126.044 647.08 124.548C646.867 123.017 646.547 121.628 646.155 120.345V119.882H670.352V120.345C669.96 121.485 669.64 122.839 669.32 124.442C669 126.044 668.75 127.932 668.537 130.14C668.395 132.349 668.252 134.913 668.074 137.87C668.003 140.826 667.968 144.245 667.968 148.092V154.575ZM693.979 46.1525H716.788C724.58 46.0812 731.804 46.01 738.458 45.9388C745.112 45.7963 750.841 45.6182 755.609 45.4757C760.448 45.3332 763.615 45.0839 765.145 44.799L760.733 57.0873C758.705 56.553 756.392 56.0544 753.794 55.6269C751.517 55.2351 748.777 54.9146 745.503 54.594C742.336 54.2022 738.6 54.0241 734.366 54.0241C732.871 54.0241 731.128 54.0954 729.135 54.2378C727.178 54.3091 725.257 54.4159 723.442 54.594C721.307 54.7365 719.172 54.9146 716.966 55.057V99.9361C723.086 99.8649 728.637 99.7224 733.547 99.4731C738.458 99.2594 742.657 98.9388 746.144 98.547C750.236 98.2264 753.83 97.8346 756.926 97.3003L754.186 110.835C750.022 110.301 745.824 109.838 741.589 109.482C737.96 109.09 733.939 108.805 729.562 108.556C725.185 108.235 720.987 108.093 716.966 108.093V159.704C724.011 159.704 730.487 159.454 736.394 158.92C742.301 158.315 747.461 157.673 751.837 156.997C756.997 156.177 761.623 155.216 765.821 154.147L763.224 169.036C762.085 168.964 760.235 168.858 757.673 168.679C755.182 168.608 752.513 168.537 749.738 168.466C746.998 168.466 744.436 168.43 742.016 168.359H693.979V167.896C694.513 166.293 694.975 164.263 695.331 161.769C695.794 159.276 696.114 156.213 696.363 152.58C696.683 148.876 696.897 144.459 697.039 139.401C697.181 134.308 697.253 128.36 697.253 121.556V92.9193C697.253 86.1162 697.181 80.2036 697.039 75.1814C696.897 70.088 696.648 65.7425 696.363 62.1095C696.15 58.4052 695.794 55.3064 695.331 52.7775C694.94 50.2842 694.513 48.2183 693.979 46.6511V46.1881V46.1525ZM974.873 168.323V167.86C975.015 167.468 975.122 166.899 975.193 166.151C975.264 165.403 975.3 164.726 975.3 164.12C975.3 161.769 974.944 159.205 974.268 156.391C973.663 153.506 972.453 149.944 970.638 145.706L956.903 114.789C952.669 114.646 947.011 114.575 940.001 114.575H899.792C894.277 114.575 889.26 114.646 884.812 114.789L871.753 144.78C870.614 147.593 869.404 150.657 868.123 153.969C866.842 157.317 866.202 160.665 866.202 164.085C866.202 165.082 866.273 165.901 866.415 166.578C866.558 167.183 866.7 167.611 866.878 167.825V168.288H843.713V167.825C845.065 166.4 846.773 163.835 848.837 160.202C850.865 156.498 853.107 151.868 855.527 146.347L920.573 1.87891H929.646L991.312 140.755C992.735 143.996 994.23 147.202 995.724 150.3C997.326 153.328 998.785 156.071 1000.14 158.493C1001.49 160.915 1002.7 162.981 1003.77 164.619C1004.83 166.293 1005.55 167.362 1005.94 167.789V168.252H974.837V168.323H974.873ZM901.287 104.78H914.808C919.434 104.709 923.918 104.673 928.33 104.673C932.778 104.602 937.083 104.566 941.175 104.566C945.267 104.495 948.968 104.424 952.313 104.353L920.395 32.1901L889.046 104.816H901.322H901.287V104.78ZM1021.1 167.86C1021.56 166.257 1021.95 164.298 1022.34 161.948C1022.73 159.597 1023.05 156.676 1023.37 153.185C1023.69 149.695 1023.91 145.563 1024.05 140.79C1024.19 135.946 1024.26 130.283 1024.26 123.872V49.8924C1024.26 43.4455 1024.19 37.8534 1024.05 33.0805C1023.91 28.2365 1023.66 24.0691 1023.37 20.5785C1023.09 17.0167 1022.73 14.0604 1022.34 11.7096C1021.95 9.35875 1021.56 7.39974 1021.1 5.79692V5.33389H1048.25V5.79692C1047.78 7.39974 1047.32 9.35875 1046.89 11.7096C1046.5 14.0604 1046.18 17.0167 1045.86 20.5785C1045.65 24.0691 1045.4 28.2365 1045.19 33.0805C1045.04 37.8534 1044.97 43.4455 1044.97 49.8924V123.872C1044.97 130.319 1045.04 135.946 1045.19 140.79C1045.4 145.563 1045.65 149.695 1045.86 153.185C1046.15 156.676 1046.5 159.597 1046.89 161.948C1047.36 164.298 1047.82 166.257 1048.25 167.86V168.323H1021.1V167.86Z" fill="#023430"/>
<path d="M32.2027 5.33212H33.3058V4.22795H32.2027V5.33212ZM32.2027 5.79515L33.1991 6.18696L33.2703 6.00887V5.79515H32.1672H32.2027ZM86.7162 141.501L85.7199 141.928L86.7162 144.208L87.7125 141.928L86.7162 141.501ZM140.198 5.79515H139.095V6.04448L139.201 6.2582L140.162 5.75954H140.198V5.79515ZM140.198 5.33212V4.22795H139.095V5.33212H140.198ZM163.469 5.33212H164.572V4.22795H163.469V5.33212ZM163.469 5.79515L164.252 6.57876L164.572 6.2582V5.79515H163.469ZM86.5027 171.848V172.952H87.2143L87.4991 172.311L86.5027 171.848ZM77.3934 171.848L76.3971 172.275L76.6817 172.916H77.3934V171.812V171.848ZM1.10307 5.79515H0V6.18696L0.249108 6.50752L1.10307 5.79515ZM1.10307 5.33212V4.22795H0V5.33212H1.10307ZM31.1353 5.33212V5.79515H33.3058V5.33212H31.1353ZM31.2064 5.36774C30.9929 5.90201 30.8862 6.57876 30.7794 7.36236L32.95 7.57607C33.0211 6.8637 33.1279 6.40067 33.2347 6.15134L31.2064 5.33212V5.36774ZM30.7794 7.39798C30.7083 8.18158 30.6727 8.89394 30.6727 9.53507H32.8432C32.8432 8.96518 32.8432 8.32406 32.95 7.61169L30.7794 7.39798ZM30.6727 9.53507C30.6727 11.9927 30.993 14.6641 31.5979 17.5848L33.7328 17.1218C33.1279 14.3079 32.8432 11.779 32.8432 9.49946H30.6727V9.53507ZM31.5979 17.6204C32.3096 20.5055 33.5905 24.103 35.4052 28.3772L37.3979 27.5223C35.5831 23.3194 34.3734 19.8288 33.6973 17.1218L31.5623 17.6204H31.5979ZM35.4408 28.3772L85.7555 141.928L87.7482 141.038L37.4335 27.4867L35.4408 28.3772ZM87.7125 141.928L136.319 29.3032L134.327 28.4484L85.7199 141.073L87.7125 141.928ZM136.319 29.2676C137.458 26.4538 138.668 23.3906 139.949 20.0425L137.92 19.2589C136.639 22.5714 135.43 25.6346 134.291 28.4484L136.319 29.2676ZM139.984 20.0425C141.301 16.5875 141.977 13.0969 141.977 9.53507H139.806C139.806 12.812 139.201 16.0532 137.956 19.2589L139.984 20.0425ZM141.977 9.53507C141.977 8.57338 141.906 7.71854 141.728 7.00618L139.628 7.54045C139.735 8.03911 139.806 8.68023 139.806 9.53507H141.977ZM141.728 7.0418C141.585 6.32943 141.408 5.75954 141.194 5.2965L139.237 6.2582C139.237 6.2582 139.45 6.82809 139.593 7.46922L141.728 7.00618V7.0418ZM141.301 5.79515V5.33212H139.13V5.79515H141.301ZM140.198 6.43629H163.469V4.26357H140.198V6.43629ZM162.402 5.33212V5.79515H164.572V5.33212H162.402ZM162.722 5.01155C161.156 6.57876 159.377 9.25013 157.313 12.9901L159.235 14.0586C161.263 10.3543 162.935 7.89664 164.288 6.57876L162.757 5.04717H162.722V5.01155ZM157.313 12.9901C155.249 16.73 153.008 21.3604 150.588 26.81L152.581 27.7004C155 22.2508 157.207 17.6917 159.235 14.023L157.313 12.9544V12.9901ZM150.552 26.81L85.5064 171.385L87.4991 172.275L152.545 27.7004L150.552 26.81ZM86.5027 170.744H77.429V172.916H86.5027V170.744ZM78.3898 171.385L16.724 32.3664L14.7314 33.2569L76.3971 172.275L78.3898 171.385ZM16.7597 32.402C15.3007 29.1251 13.7706 25.9551 12.1694 22.8919L10.248 23.8893C11.8136 26.8812 13.3437 30.0156 14.767 33.2569L16.7597 32.3664V32.402ZM12.205 22.9276C10.6749 19.9 9.2516 17.1574 7.86386 14.6997L5.97795 15.7683C7.33011 18.1903 8.75341 20.8973 10.2835 23.8893L12.2406 22.9276H12.205ZM7.86386 14.6997C6.51169 12.1708 5.26629 10.0693 4.19879 8.39529L2.3485 9.5707C3.38042 11.2091 4.59017 13.275 5.94233 15.7683L7.86386 14.7354V14.6997ZM4.19879 8.39529C3.13129 6.75685 2.38403 5.61707 1.95703 5.08279L0.284618 6.4719C0.604867 6.86371 1.28101 7.86101 2.3485 9.53507L4.19879 8.35968V8.39529ZM2.20614 5.79515V5.33212H0.0355094V5.79515H2.20614ZM1.10307 6.43629H32.2027V4.26357H1.10307V6.43629ZM259.864 149.123L259.046 148.411L259.9 149.123H259.864ZM164.893 106.844C164.893 98.0466 166.529 89.89 169.803 82.3745L167.81 81.5197C164.43 89.3201 162.722 97.7616 162.722 106.844H164.893ZM169.803 82.3745C173.148 74.859 177.703 68.3409 183.431 62.8201L181.937 61.2529C175.994 66.9518 171.297 73.7193 167.846 81.484L169.839 82.3745H169.803ZM183.431 62.8201C189.16 57.228 195.921 52.8826 203.749 49.7481L202.931 47.7179C194.854 50.9592 187.844 55.4471 181.901 61.2529L183.431 62.8201ZM203.749 49.7481C211.578 46.6137 219.94 45.0465 228.907 45.0465V42.8738C219.691 42.8738 211.044 44.4766 202.967 47.7179L203.785 49.7481H203.749ZM228.871 45.0821C237.66 45.0821 245.951 46.5781 253.673 49.5701L254.455 47.5398C246.449 44.441 237.909 42.9094 228.871 42.9094V45.0821ZM253.708 49.5344C261.537 52.4551 268.297 56.6225 273.99 62.0365L275.485 60.4693C269.543 54.8416 262.533 50.4961 254.455 47.5042L253.708 49.5344ZM273.99 62.0365C279.791 67.4504 284.345 74.0398 287.69 81.8046L289.683 80.9498C286.231 72.9357 281.499 66.0969 275.45 60.4693L273.955 62.0721H273.99V62.0365ZM287.726 81.8046C291.071 89.5338 292.743 98.2247 292.743 107.842H294.913C294.913 97.9397 293.17 88.9639 289.718 80.9142L287.726 81.769V81.8046ZM292.743 107.842C292.743 115.82 291.32 123.514 288.508 130.993L290.537 131.777C293.455 124.084 294.913 116.105 294.913 107.877H292.743V107.842ZM288.508 130.993C285.697 138.366 281.57 144.92 276.126 150.655L277.691 152.151C283.313 146.202 287.583 139.435 290.537 131.777L288.508 130.993ZM276.126 150.619C270.717 156.247 264.027 160.806 256.057 164.225L256.911 166.22C265.13 162.694 272.069 157.992 277.691 152.115L276.126 150.619ZM256.057 164.225C248.122 167.573 238.977 169.248 228.658 169.248V171.42C239.226 171.42 248.655 169.711 256.911 166.22L256.057 164.225ZM228.658 169.283C219.94 169.283 211.684 167.823 203.963 164.938L203.18 166.968C211.186 169.96 219.691 171.456 228.658 171.456V169.283ZM203.927 164.902C196.17 161.981 189.409 157.85 183.609 152.507L182.115 154.11C188.128 159.666 195.138 163.94 203.144 166.932L203.927 164.902ZM183.645 152.507C177.845 147.093 173.29 140.539 169.945 132.846L167.953 133.736C171.404 141.679 176.172 148.446 182.186 154.11L183.68 152.507H183.645ZM169.945 132.881C166.6 125.152 164.928 116.461 164.928 106.844H162.757C162.757 116.746 164.501 125.722 167.953 133.772L169.945 132.917V132.881ZM231.504 163.371C237.411 163.371 242.855 162.195 247.873 159.844L246.947 157.885C242.25 160.094 237.126 161.198 231.504 161.198V163.371ZM247.837 159.88C252.819 157.529 257.124 154.181 260.718 149.8L259.046 148.411C255.665 152.543 251.644 155.677 246.947 157.885L247.873 159.844H247.837V159.88ZM260.718 149.8C264.383 145.419 267.159 140.147 269.116 133.95L267.052 133.309C265.202 139.257 262.533 144.279 259.081 148.375L260.754 149.764L260.718 149.8ZM269.08 133.985C271.073 127.717 272.069 120.7 272.069 112.971H269.899C269.899 120.522 268.938 127.325 267.016 133.309L269.08 133.985ZM272.105 112.971C272.105 104.173 271.144 96.0163 269.222 88.5009L267.123 89.0351C268.973 96.3725 269.934 104.351 269.934 112.971H272.105ZM269.222 88.5009C267.372 80.9498 264.525 74.4316 260.647 68.9108L258.868 70.1574C262.568 75.3933 265.308 81.6978 267.087 88.9995L269.222 88.4652V88.5009ZM260.682 68.9464C256.875 63.3543 252.107 58.9733 246.342 55.8745L245.31 57.7979C250.755 60.7542 255.274 64.8503 258.903 70.1931L260.718 68.982H260.682V68.9464ZM246.342 55.8745C240.542 52.6688 233.817 51.066 226.167 51.066V53.2387C233.497 53.2387 239.866 54.7703 245.275 57.7623L246.342 55.8389V55.8745ZM226.167 51.066C220.26 51.066 214.816 52.2058 209.834 54.4498L210.724 56.4444C215.421 54.3073 220.545 53.2387 226.167 53.2387V51.066ZM209.798 54.4498C204.817 56.7293 200.476 60.0062 196.811 64.2804L198.483 65.7051C201.935 61.6447 206.027 58.5815 210.724 56.4444L209.834 54.4498H209.798ZM196.811 64.316C193.217 68.5902 190.441 73.8617 188.449 80.0237L190.512 80.7004C192.434 74.7522 195.103 69.7656 198.483 65.7051L196.811 64.316ZM188.449 80.0237C186.456 86.2213 185.459 93.2381 185.459 101.039H187.63C187.63 93.4162 188.591 86.6131 190.512 80.7004L188.449 80.0237ZM185.424 101.039C185.424 109.765 186.385 117.922 188.306 125.508L190.406 124.974C188.555 117.565 187.595 109.587 187.595 101.039H185.424ZM188.306 125.508C190.299 133.024 193.181 139.613 196.953 145.276L198.768 144.065C195.138 138.651 192.327 132.276 190.406 124.974L188.306 125.544V125.508ZM196.989 145.312C200.867 150.904 205.671 155.321 211.435 158.598L212.503 156.71C207.059 153.611 202.468 149.408 198.768 144.065L196.989 145.312ZM211.435 158.598C217.235 161.803 223.925 163.406 231.504 163.406V161.233C224.245 161.233 217.911 159.702 212.503 156.71L211.435 158.633V158.598ZM372.627 167.858H373.73V167.68L373.659 167.502L372.627 167.858ZM372.627 168.321V169.426H373.73V168.321H372.627ZM346.296 168.321H345.192V169.426H346.296V168.321ZM346.296 167.858L345.264 167.502L345.192 167.68V167.858H346.296ZM349.569 113.647H350.672V113.291L350.459 113.006L349.605 113.683H349.569V113.647ZM308.72 59.65L307.83 60.2912L308.684 59.65H308.72ZM300.856 50.9236L300.109 51.7428L300.82 50.9236H300.856ZM295.198 46.5781H294.095V47.2549L294.736 47.5398L295.198 46.5425V46.5781ZM295.198 46.1507V45.0465H294.095V46.1507H295.198ZM327.437 46.1507H328.54V45.0465H327.437V46.1507ZM334.945 62.8557L334.055 63.4968L334.909 62.8557H334.945ZM363.767 101.039L362.913 101.68L363.803 102.855L364.657 101.68L363.767 101.039ZM398.069 52.7401L397.073 52.3127L398.105 52.7401H398.069ZM399.777 46.1507V45.0465H398.674V46.1507H399.777ZM420.558 46.1507H421.661V45.0465H420.558V46.1507ZM420.558 46.5781L421.163 47.4686L421.625 47.148V46.5781H420.522H420.558ZM414.651 51.4578L413.904 50.6742L414.687 51.4578H414.651ZM369.318 111.938L368.428 111.297L368.215 111.582V111.938H369.318ZM368.251 121.483C368.251 128.322 368.322 134.27 368.464 139.364L370.635 139.293C370.492 134.235 370.421 128.286 370.421 121.483H368.251ZM368.464 139.364C368.606 144.457 368.82 148.838 369.033 152.578L371.204 152.436C370.99 148.731 370.777 144.35 370.635 139.293L368.464 139.364ZM369.033 152.614C369.354 156.282 369.674 159.346 370.065 161.91L372.236 161.59C371.844 159.132 371.524 156.069 371.239 152.471L369.069 152.649L369.033 152.614ZM370.065 161.91C370.528 164.439 371.026 166.541 371.595 168.215L373.659 167.538C373.161 166.006 372.663 164.012 372.236 161.554L370.101 161.946H370.065V161.91ZM371.524 167.858V168.321H373.695V167.858H371.524ZM372.627 167.217H346.296V169.39H372.627V167.217ZM347.363 168.321V167.858H345.192V168.321H347.363ZM347.328 168.215C347.897 166.541 348.359 164.439 348.751 161.91L346.58 161.59C346.224 164.047 345.762 166.042 345.264 167.538L347.328 168.215ZM348.715 161.91C349.178 159.346 349.534 156.247 349.747 152.578L347.577 152.436C347.363 156.033 347.007 159.061 346.58 161.518L348.715 161.91ZM349.747 152.614C350.067 148.874 350.281 144.457 350.423 139.364L348.253 139.293C348.11 144.35 347.861 148.731 347.577 152.436L349.747 152.614ZM350.459 139.364C350.601 134.27 350.672 128.322 350.672 121.483H348.502C348.502 128.286 348.431 134.235 348.288 139.293L350.459 139.364ZM350.672 121.483V113.647H348.502V121.483H350.672ZM350.459 112.971L309.574 58.9733L307.83 60.2912L348.715 114.289L350.459 112.971ZM309.574 59.0089C306.834 55.3402 304.165 52.3483 301.603 50.1043L300.18 51.7428C302.6 53.8799 305.161 56.7293 307.866 60.3268L309.609 59.0089H309.574ZM301.603 50.1043C299.112 47.8247 297.12 46.2932 295.661 45.6164L294.736 47.5754C295.874 48.1097 297.653 49.4276 300.144 51.7071L301.603 50.1043ZM296.266 46.5781V46.1151H294.095V46.5781H296.266ZM295.198 47.2192H327.437V45.0465H295.198V47.2192ZM326.333 46.1507C326.333 47.7179 326.867 49.9975 327.863 52.8826L329.927 52.1702C328.931 49.2851 328.504 47.3261 328.504 46.1507H326.333ZM327.899 52.8469C328.931 55.8032 331.03 59.3651 334.055 63.4612L335.798 62.1789C332.809 58.1184 330.853 54.7703 329.927 52.1346L327.863 52.8469H327.899ZM334.055 63.4968L362.913 101.68L364.657 100.362L335.798 62.1789L334.055 63.4968ZM364.657 101.68L394.191 61.894L392.447 60.5761L362.913 100.362L364.657 101.68ZM394.191 61.894C396.361 58.9377 397.998 56.017 399.101 53.0963L397.073 52.3127C396.041 55.0197 394.511 57.7623 392.447 60.5761L394.191 61.8584V61.894ZM399.065 53.1319C400.204 50.2824 400.845 47.9316 400.845 46.1151H398.674C398.674 47.5042 398.176 49.5344 397.037 52.3127L399.065 53.1319ZM399.777 47.2192H420.558V45.0465H399.777V47.2192ZM419.455 46.1507V46.6137H421.625V46.1507H419.455ZM419.917 45.6877C417.96 47.0055 415.932 48.6796 413.868 50.6742L415.363 52.2414C417.355 50.318 419.277 48.7152 421.127 47.4686L419.917 45.652V45.6877ZM413.868 50.7098C411.84 52.7401 409.491 55.5895 406.823 59.2582L408.566 60.5405C411.199 56.9074 413.477 54.1648 415.398 52.2414L413.868 50.7098ZM406.823 59.2226L368.428 111.261L370.172 112.543L408.566 60.5049L406.823 59.2226ZM368.251 111.938V121.483H370.421V111.938H368.251ZM499.695 129.889L500.655 129.426L500.371 128.821H499.695V129.925V129.889ZM443.473 130.139V129.034H442.797L442.513 129.676L443.509 130.139H443.473ZM439.274 139.008L440.235 139.506L439.239 139.008H439.274ZM429.525 167.858H430.628V167.538L430.45 167.253L429.525 167.858ZM429.525 168.321V169.426H430.628V168.321H429.525ZM409.527 168.321H408.424V169.426H409.527V168.321ZM409.527 167.858L408.744 167.075L408.424 167.395V167.858H409.527ZM415.896 157.85L414.971 157.28L415.932 157.85H415.896ZM472.082 43.3012V42.1971H471.406L471.121 42.8026L472.118 43.2656H472.082V43.3012ZM480.622 43.3012L481.619 42.8382L481.334 42.2327H480.658V43.3368H480.622V43.3012ZM536.239 158.42L535.278 158.954L536.203 158.42H536.239ZM540.224 164.902L539.299 165.508L540.188 164.902H540.224ZM542.501 167.858H543.604V167.324L543.177 167.004L542.501 167.858ZM542.501 168.321V169.426H543.604V168.321H542.501ZM513.43 168.321L512.362 168.072L512.042 169.426H513.43V168.321ZM506.74 144.671L505.744 145.134L506.705 144.671H506.74ZM447.921 121.02L446.925 120.557L446.178 122.125H447.921V121.02ZM495.603 120.807V121.911H497.311L496.599 120.344L495.603 120.807ZM472.082 70.5848L473.078 70.1218L472.118 68.0203L471.121 70.0862L472.118 70.5492H472.082V70.5848ZM499.695 128.821H491.973V130.993H499.695V128.821ZM491.973 128.821H481.974V130.993H491.973V128.821ZM481.974 128.821H470.73V130.993H481.974V128.821ZM470.73 128.821C466.852 128.821 463.186 128.856 459.699 128.928V131.1C463.222 131.029 466.887 130.993 470.73 130.993V128.821ZM459.735 128.928C456.248 128.928 453.045 128.963 450.163 129.034L450.234 131.207C453.116 131.136 456.283 131.1 459.735 131.1V128.928ZM450.163 129.034H443.473V131.207H450.163V129.034ZM442.513 129.676L438.314 138.545L440.271 139.471L444.47 130.602L442.513 129.676ZM438.314 138.509C436.499 142.142 434.933 145.348 433.652 148.09L435.61 149.016C436.89 146.309 438.456 143.139 440.235 139.506L438.278 138.545H438.314V138.509ZM433.652 148.055C432.371 150.726 431.304 153.077 430.45 155.178L432.478 155.998C433.297 153.967 434.364 151.652 435.645 149.016L433.688 148.055H433.652ZM430.45 155.178C429.596 157.244 428.991 159.096 428.599 160.664L430.699 161.198C431.055 159.737 431.66 158.028 432.478 155.998L430.45 155.178ZM428.564 160.664C428.172 162.195 427.959 163.655 427.959 165.045H430.13C430.13 163.869 430.308 162.587 430.663 161.233L428.564 160.664ZM427.959 165.009C427.959 165.864 427.995 166.576 428.101 167.11L430.236 166.754C430.165 166.398 430.13 165.828 430.13 165.009H427.959ZM428.101 167.182C428.208 167.645 428.35 168.108 428.599 168.5L430.414 167.289C430.414 167.289 430.308 167.075 430.236 166.754L428.101 167.182ZM428.422 167.858V168.321H430.592V167.858H428.422ZM429.525 167.217H409.527V169.39H429.525V167.217ZM410.63 168.321V167.858H408.46V168.321H410.63ZM410.31 168.642C410.915 168.037 411.804 166.79 412.943 165.045L411.128 163.869C409.99 165.614 409.207 166.683 408.78 167.11L410.31 168.642ZM412.943 165.045C414.082 163.192 415.398 160.984 416.821 158.42L414.9 157.351C413.477 159.916 412.196 162.088 411.057 163.905L412.907 165.045H412.943ZM416.821 158.42C418.352 155.819 419.953 152.899 421.625 149.622L419.668 148.625C417.996 151.866 416.43 154.751 414.936 157.315L416.821 158.42ZM421.625 149.622C423.369 146.345 425.077 142.961 426.749 139.471L424.792 138.545C423.12 142 421.447 145.383 419.704 148.625L421.625 149.657V149.622ZM426.749 139.471L473.078 43.7643L471.121 42.8026L424.792 138.509L426.749 139.471ZM472.082 44.3698H480.586V42.1971H472.082V44.3698ZM479.626 43.7643L525.03 139.471L526.987 138.545L481.583 42.8382L479.626 43.7643ZM525.03 139.471C526.774 143.104 528.517 146.63 530.261 149.978L532.182 148.981C530.439 145.668 528.695 142.178 526.987 138.545L525.03 139.471ZM530.296 149.978C532.111 153.326 533.783 156.318 535.313 158.989L537.199 157.921C535.705 155.285 534.032 152.293 532.218 148.945L530.296 149.978ZM535.313 158.989C536.844 161.59 538.16 163.762 539.299 165.508L541.114 164.332C539.975 162.623 538.658 160.45 537.164 157.885L535.278 158.989H535.313ZM539.334 165.508C539.904 166.362 540.402 167.039 540.793 167.538C541.185 168.037 541.505 168.464 541.825 168.678L543.177 166.968C543.177 166.968 542.893 166.683 542.501 166.184C542.146 165.721 541.683 165.08 541.114 164.261L539.299 165.508H539.334ZM541.398 167.858V168.321H543.569V167.858H541.398ZM542.501 167.217H513.43V169.39H542.501V167.217ZM514.497 168.571C514.675 167.894 514.746 167.289 514.746 166.719H512.576C512.576 167.075 512.505 167.502 512.398 168.037L514.497 168.571ZM514.746 166.647V166.576V166.505V166.434V166.362V166.291V166.22V166.149V166.078V166.006V165.935V165.864V165.793V165.721V165.65V165.579V165.508V165.436V165.365V165.294V165.223V165.151V165.08V165.009V164.938V164.866V164.795V164.724V164.653V164.582H512.576V164.653V164.724V164.795V164.866V164.938V165.009V165.08V165.151V165.223V165.294V165.365V165.436V165.508V165.579V165.65V165.721V165.793V165.864V165.935V166.006V166.078V166.149V166.22V166.291V166.362V166.434V166.505V166.576V166.647H514.746ZM514.746 165.009C514.746 163.192 514.319 161.055 513.572 158.633L511.508 159.31C512.256 161.59 512.576 163.477 512.576 165.009H514.746ZM513.572 158.705C512.861 156.318 511.971 153.86 510.903 151.403L508.911 152.293C509.943 154.68 510.797 157.03 511.473 159.31L513.572 158.705ZM510.903 151.438C509.907 148.91 508.84 146.487 507.701 144.172L505.744 145.134C506.847 147.378 507.914 149.729 508.875 152.222L510.903 151.438ZM507.701 144.208C506.634 141.928 505.779 140.041 505.103 138.545L503.111 139.435C503.787 140.967 504.676 142.854 505.744 145.134L507.736 144.208H507.701ZM505.103 138.509L500.691 129.426L498.734 130.388L503.146 139.471L505.103 138.509ZM447.921 122.125H454.86V119.952H447.921V122.125ZM454.824 122.125H464.93V119.952H454.824V122.125ZM464.966 122.125C468.595 122.053 472.225 122.018 475.854 122.018V119.845C472.225 119.845 468.56 119.845 464.93 119.952V122.125H464.966ZM475.854 122.018H486.422V119.845H475.854V122.018ZM486.422 122.018C489.838 121.946 492.863 121.911 495.603 121.911V119.738C492.863 119.738 489.803 119.738 486.387 119.845V122.018H486.422ZM496.599 120.344L473.078 70.1218L471.121 71.0479L494.642 121.27L496.599 120.344ZM471.121 70.0862L446.925 120.557L448.882 121.519L473.078 71.0479L471.121 70.0862ZM667.612 157.066L666.58 156.71V156.852L667.647 157.102H667.612V157.066ZM666.366 158.776L665.762 157.885L666.402 158.776H666.366ZM650.817 47.9672L651.813 47.5398L651.599 47.0412L651.101 46.8987L650.781 47.9316H650.817V47.9672ZM659.321 68.4121L659.961 69.3026L660.673 68.8039L660.353 67.9847L659.357 68.4121H659.321ZM658.182 69.1957L657.364 69.9081L658.004 70.6561L658.823 70.0862L658.182 69.1957ZM646.155 120.344H645.052V120.664L646.155 120.344ZM646.155 119.881V118.776H645.052V119.881H646.155ZM670.352 119.881H671.455V118.776H670.352V119.881ZM670.352 120.344L671.384 120.7L671.455 120.522V120.344H670.352ZM668.537 130.139L667.469 130.032L668.573 130.139H668.537ZM666.865 154.573C666.865 155.463 666.758 156.176 666.58 156.746L668.644 157.422C668.928 156.603 669.035 155.641 669.035 154.573H666.865ZM666.544 156.817C666.473 157.173 666.26 157.529 665.762 157.85L666.971 159.666C667.861 159.096 668.466 158.277 668.679 157.28L666.544 156.817ZM665.762 157.885C660.495 161.59 654.304 164.582 647.223 166.826L647.863 168.891C655.158 166.576 661.527 163.513 667.007 159.666L665.762 157.885ZM647.187 166.826C640.213 168.998 631.958 170.067 622.421 170.067V172.239C632.1 172.239 640.604 171.135 647.827 168.891L647.187 166.79V166.826ZM622.421 170.067C611.711 170.067 601.925 168.535 593.136 165.472L592.425 167.538C601.498 170.672 611.497 172.275 622.421 172.275V170.102V170.067ZM593.172 165.472C584.418 162.409 576.946 158.135 570.719 152.721L569.296 154.359C575.772 159.987 583.493 164.368 592.46 167.538L593.172 165.472ZM570.683 152.721C564.456 147.2 559.581 140.646 556.094 132.952L554.101 133.843C557.731 141.786 562.784 148.625 569.26 154.323L570.719 152.685H570.683V152.721ZM556.094 132.988C552.678 125.33 550.97 116.853 550.97 107.521H548.8C548.8 117.138 550.579 125.936 554.101 133.879L556.094 132.988ZM550.97 107.521C550.97 99.5782 552.536 91.8134 555.667 84.2979L553.639 83.4431C550.401 91.2078 548.8 99.2576 548.8 107.485H550.97V107.521ZM555.632 84.2979C558.834 76.7824 563.389 70.1218 569.367 64.316L567.837 62.7488C561.681 68.7683 556.948 75.6426 553.639 83.4431L555.632 84.2979ZM569.367 64.316C575.309 58.5102 582.532 53.8443 591.037 50.3537L590.218 48.3234C581.465 51.9209 574.028 56.7293 567.837 62.7488L569.367 64.316ZM591.037 50.318C599.577 46.8274 609.255 45.0465 620.037 45.0465V42.8738C609.006 42.8738 599.079 44.6903 590.218 48.2878L591.037 50.318ZM620.037 45.0821C625.659 45.0821 630.997 45.4027 636.014 46.0795L636.299 43.9067C631.175 43.23 625.766 42.8738 620.037 42.8738V45.0465V45.0821ZM636.049 46.0795C641.067 46.685 645.906 47.6467 650.532 49.0002L651.137 46.8987C646.369 45.5096 641.458 44.5123 636.299 43.9067L636.049 46.0795ZM649.82 48.359L658.325 68.8039L660.353 67.9491L651.848 47.5042L649.82 48.359ZM658.716 67.5217L657.577 68.3053L658.823 70.0862L659.961 69.3026L658.716 67.5217ZM659.036 68.4834C654.41 63.1406 648.788 58.902 642.206 55.8389L641.28 57.7979C647.579 60.7542 652.951 64.8147 657.399 69.9081L659.036 68.4834ZM642.206 55.8389C635.587 52.6332 628.043 51.066 619.574 51.066V53.2387C627.759 53.2387 634.982 54.7703 641.245 57.7979L642.206 55.8389ZM619.61 51.066C612.671 51.066 606.266 52.1702 600.36 54.4498L601.142 56.48C606.765 54.3429 612.92 53.2387 619.61 53.2387V51.066ZM600.36 54.4498C594.56 56.6937 589.471 60.0062 585.095 64.3516L586.625 65.8832C590.752 61.7515 595.592 58.6171 601.107 56.48L600.324 54.4498H600.36ZM585.095 64.3516C580.825 68.6258 577.48 73.933 575.095 80.2018L577.124 80.9854C579.437 74.9659 582.604 69.9437 586.625 65.9189L585.095 64.3873V64.3516ZM575.095 80.1662C572.676 86.435 571.502 93.5587 571.502 101.466H573.672C573.672 93.7724 574.811 86.9337 577.124 80.9498L575.095 80.1662ZM571.502 101.502C571.502 110.37 572.605 118.634 574.847 126.256L576.946 125.651C574.775 118.278 573.708 110.228 573.708 101.537H571.502V101.502ZM574.847 126.221C577.088 133.843 580.433 140.504 584.916 146.131L586.625 144.778C582.319 139.364 579.116 132.988 576.946 125.615L574.847 126.221ZM584.916 146.167C589.4 151.759 594.951 156.14 601.534 159.31L602.495 157.351C596.196 154.323 590.93 150.121 586.625 144.813L584.916 146.167ZM601.534 159.31C608.224 162.516 615.945 164.083 624.698 164.083V161.91C616.194 161.91 608.793 160.379 602.459 157.351L601.534 159.31ZM624.698 164.083C632.171 164.083 638.113 163.121 642.419 161.127L641.494 159.132C637.615 160.913 632.029 161.875 624.698 161.875V164.047V164.083ZM642.419 161.127C646.618 159.203 649.322 156.781 649.322 153.647H647.151C647.151 155.356 645.657 157.244 641.565 159.132L642.455 161.127H642.419ZM649.287 153.647V147.627H647.116V153.647H649.287ZM649.287 147.627C649.287 143.674 649.251 140.254 649.18 137.369L647.009 137.44C647.08 140.29 647.116 143.709 647.116 147.627H649.287ZM649.18 137.369C649.109 134.484 649.002 131.991 648.824 129.925L646.653 130.103C646.796 132.133 646.902 134.555 646.974 137.44L649.144 137.369H649.18ZM648.824 129.925C648.682 127.788 648.432 125.9 648.112 124.333L645.977 124.76C646.262 126.221 646.475 128.002 646.653 130.067L648.824 129.925ZM648.148 124.404C647.899 122.837 647.614 121.412 647.223 120.059L645.123 120.664C645.479 121.911 645.764 123.264 646.013 124.725L648.183 124.404H648.148ZM647.258 120.344V119.881H645.088V120.344H647.258ZM646.155 120.985H670.352V118.812H646.155V120.985ZM669.249 119.881V120.344H671.419V119.881H669.249ZM669.32 120.023C668.928 121.234 668.573 122.623 668.252 124.262L670.387 124.653C670.672 123.086 671.028 121.768 671.384 120.7L669.32 120.023ZM668.252 124.226C667.932 125.864 667.683 127.788 667.434 129.996L669.605 130.21C669.818 128.037 670.103 126.185 670.387 124.618L668.252 124.226ZM667.434 130.067C667.292 132.276 667.114 134.84 666.971 137.832L669.142 137.939C669.284 134.983 669.427 132.418 669.605 130.245L667.434 130.103V130.067ZM666.971 137.832C666.9 140.789 666.865 144.208 666.865 148.09H669.035C669.035 144.243 669.071 140.824 669.142 137.903L666.971 137.832ZM666.865 148.09V154.573H669.035V148.09H666.865ZM693.979 46.1507V45.0465H692.876V46.1507H693.979ZM755.609 45.4383V44.3342H755.574V45.4383H755.609ZM765.145 44.7616L766.177 45.1178L766.818 43.3012L764.932 43.693L765.145 44.7616ZM760.733 57.0499L760.448 58.1184L761.409 58.3678L761.729 57.4417L760.698 57.0855L760.733 57.0499ZM745.503 54.5566L745.361 55.6252L745.468 54.5566H745.503ZM729.171 54.2004V55.3046H729.242L729.171 54.2004ZM723.477 54.5566L723.549 55.6608L723.442 54.5566H723.477ZM717.001 54.984L716.93 53.8799L715.934 53.9511V54.984H717.037H717.001ZM717.001 99.8987H715.898V101.003H717.001V99.8987ZM746.179 98.5452L746.108 97.441H746.073L746.179 98.5452ZM756.997 97.263L758.064 97.4767L758.385 95.9095L756.819 96.1944L756.997 97.263ZM754.257 110.798L754.115 111.866L755.111 112.009L755.324 111.012L754.257 110.798ZM717.001 108.091V106.987H715.898V108.091H717.001ZM717.001 159.666H715.898V160.77H717.001V159.666ZM765.857 154.11L766.925 154.288L767.209 152.614L765.572 153.041L765.857 154.11ZM763.224 168.998L763.153 170.102L764.114 170.174L764.291 169.212L763.224 169.034V168.998ZM757.673 168.642L757.744 167.538V168.642H757.673ZM693.979 168.321H692.876V169.426H693.979V168.321ZM693.979 167.858L692.947 167.502L692.876 167.68V167.858H693.979ZM696.363 62.0365L695.26 62.1077L696.327 62.0365H696.363ZM693.979 46.5781H692.876V46.7562L692.947 46.9343L693.979 46.5781ZM693.979 47.2192H716.788V45.0465H693.979V47.2192ZM716.788 47.2192C724.58 47.148 731.804 47.0768 738.494 47.0055V44.8328C731.804 44.904 724.58 44.9753 716.788 45.0465V47.2192ZM738.494 47.0055C745.148 46.8631 750.877 46.685 755.645 46.5425L755.574 44.3698C750.805 44.5123 745.112 44.6903 738.422 44.8328V47.0055H738.494ZM755.645 46.5425C760.484 46.4 763.758 46.1507 765.359 45.8301L764.932 43.693C763.509 43.978 760.448 44.1917 755.574 44.3698L755.645 46.5425ZM764.149 44.4054L759.737 56.6937L761.801 57.4417L766.213 45.1534L764.149 44.4054ZM761.018 55.9813C758.954 55.4471 756.605 54.9484 754.008 54.4854L753.616 56.6225C756.178 57.0855 758.456 57.5485 760.448 58.0828L760.982 55.9813H761.018ZM753.972 54.4854C751.659 54.0936 748.884 53.773 745.61 53.4524L745.397 55.6252C748.635 55.9101 751.375 56.2663 753.616 56.6225L753.972 54.4854ZM745.646 53.4524C742.408 53.0606 738.671 52.8826 734.401 52.8826V55.0553C738.6 55.0553 742.265 55.2334 745.397 55.6252L745.646 53.4524ZM734.401 52.8826C732.836 52.8826 731.092 52.9538 729.1 53.0963L729.277 55.269C731.235 55.1265 732.943 55.0553 734.401 55.0553V52.8826ZM729.135 53.0963C727.143 53.1675 725.257 53.2744 723.406 53.4524L723.584 55.6252C725.399 55.4827 727.249 55.3758 729.206 55.3046L729.135 53.1319V53.0963ZM723.406 53.4524C721.271 53.5949 719.136 53.773 716.93 53.9155L717.072 56.0882C719.279 55.9457 721.414 55.7676 723.549 55.6252L723.406 53.4524ZM715.934 54.984V99.8631H718.104V54.984H715.934ZM717.037 100.967C723.193 100.896 728.708 100.754 733.654 100.504L733.548 98.3315C728.637 98.5452 723.122 98.7233 717.001 98.7945V100.967H717.037ZM733.654 100.54C738.6 100.326 742.799 100.006 746.322 99.6138L746.073 97.441C742.621 97.8328 738.458 98.1178 733.548 98.3315L733.654 100.504V100.54ZM746.286 99.6138C750.414 99.2932 754.043 98.9014 757.175 98.3671L756.819 96.23C753.759 96.7643 750.2 97.1561 746.144 97.4767L746.286 99.6494V99.6138ZM755.929 97.0492L753.19 110.584L755.324 111.012L758.064 97.4767L755.929 97.0492ZM754.399 109.729C750.236 109.195 746.002 108.732 741.767 108.376L741.589 110.549C745.824 110.94 749.987 111.368 754.15 111.902L754.435 109.729H754.399ZM741.767 108.34C738.102 107.948 734.081 107.663 729.669 107.414L729.562 109.587C733.939 109.801 737.924 110.121 741.554 110.477L741.767 108.305V108.34ZM729.704 107.45C725.292 107.129 721.058 106.987 717.037 106.987V109.159C721.022 109.159 725.185 109.302 729.562 109.623L729.704 107.45ZM715.934 108.091V159.702H718.104V108.091H715.934ZM717.001 160.77C724.082 160.77 730.559 160.521 736.501 159.987L736.287 157.814C730.416 158.348 723.976 158.598 716.966 158.598V160.77H717.001ZM736.537 159.951C742.443 159.346 747.638 158.705 752.051 158.028L751.73 155.855C747.354 156.532 742.23 157.173 736.359 157.778L736.572 159.951H736.537ZM752.051 158.028C757.21 157.173 761.907 156.247 766.106 155.178L765.572 153.077C761.445 154.145 756.819 155.071 751.695 155.891L752.051 158.028ZM764.754 153.932L762.156 168.82L764.291 169.212L766.889 154.323L764.754 153.932ZM763.295 167.894C762.156 167.823 760.306 167.716 757.708 167.538L757.566 169.711C760.128 169.853 761.978 169.96 763.117 170.067L763.259 167.894H763.295ZM757.708 167.573C755.218 167.502 752.549 167.431 749.738 167.36L749.667 169.532C752.478 169.604 755.111 169.675 757.602 169.746L757.673 167.573H757.708ZM749.702 167.324C746.998 167.324 744.436 167.289 742.016 167.217L741.945 169.39C744.365 169.461 746.962 169.497 749.702 169.497V167.324ZM741.981 167.217H736.999V169.39H741.981V167.217ZM736.999 167.217H693.979V169.39H736.999V167.217ZM695.046 168.321V167.858H692.876V168.321H695.046ZM695.011 168.215C695.58 166.541 696.043 164.439 696.434 161.91L694.264 161.59C693.872 164.047 693.445 166.042 692.947 167.538L695.011 168.215ZM696.399 161.91C696.861 159.346 697.217 156.247 697.43 152.578L695.26 152.436C695.046 156.033 694.691 159.061 694.264 161.518L696.399 161.91ZM697.43 152.614C697.715 148.874 697.964 144.457 698.107 139.364L695.936 139.293C695.794 144.35 695.545 148.731 695.26 152.436L697.43 152.614ZM698.107 139.364C698.249 134.27 698.32 128.322 698.32 121.483H696.15C696.15 128.286 696.078 134.235 695.936 139.293L698.107 139.364ZM698.356 121.483V92.8463H696.185V121.483H698.356ZM698.356 92.8463C698.356 86.0076 698.285 80.0949 698.142 75.0728L695.972 75.144C696.114 80.1306 696.185 86.0432 696.185 92.8463H698.356ZM698.107 75.0728C697.964 69.9793 697.715 65.5983 697.43 61.9296L695.26 62.1077C695.545 65.7051 695.794 70.0506 695.936 75.1084L698.107 75.0371V75.0728ZM697.43 61.9652C697.217 58.2253 696.861 55.0909 696.399 52.5264L694.264 52.9182C694.691 55.3758 695.046 58.439 695.26 62.1077L697.43 61.9652ZM696.399 52.562C696.007 50.0331 695.545 47.9316 694.975 46.2575L692.912 46.9343C693.41 48.4303 693.872 50.4249 694.228 52.8826L696.399 52.562ZM695.046 46.5781V46.1151H692.876V46.5781H695.046ZM974.873 168.321H973.77V169.426H974.873V168.321ZM974.873 167.858L973.876 167.467L973.805 167.645V167.858H974.908H974.873ZM956.939 114.787L957.935 114.36L957.65 113.754H956.974V114.823L956.939 114.787ZM884.847 114.787V113.683H884.136L883.851 114.324L884.847 114.752V114.787ZM866.878 167.858H867.981V167.538L867.803 167.253L866.878 167.858ZM866.878 168.321V169.426H867.981V168.321H866.878ZM843.749 168.321H842.645V169.426H843.749V168.321ZM843.749 167.858L842.966 167.11L842.681 167.431V167.858H843.784H843.749ZM920.608 1.91276V0.808594H919.897L919.612 1.44972L920.608 1.91276ZM929.682 1.91276L930.678 1.48534L930.394 0.844213H929.682V1.94838V1.91276ZM995.76 150.37L994.764 150.833L995.724 150.37H995.76ZM1005.97 167.858H1007.08V167.467L1006.83 167.146L1005.97 167.858ZM1005.97 168.321V169.426H1007.08V168.321H1005.97ZM952.277 104.315V105.42H953.95L953.274 103.888L952.277 104.315ZM920.359 32.1527L921.356 31.7253L920.359 29.4457L919.363 31.7253L920.359 32.1527ZM889.046 104.778L888.05 104.351L887.409 105.883H889.082V104.778H889.046ZM975.976 168.321V167.858H973.805V168.321H975.976ZM975.905 168.25C976.118 167.716 976.225 167.039 976.332 166.256L974.161 166.042C974.09 166.754 973.983 167.217 973.876 167.467L975.905 168.286V168.25ZM976.296 166.256C976.367 165.472 976.403 164.76 976.403 164.119H974.232C974.232 164.688 974.197 165.33 974.125 166.042L976.296 166.256ZM976.438 164.119C976.438 161.661 976.083 158.989 975.371 156.14L973.236 156.639C973.912 159.381 974.232 161.875 974.232 164.119H976.438ZM975.371 156.14C974.73 153.148 973.521 149.515 971.67 145.241L969.678 146.096C971.492 150.299 972.667 153.789 973.236 156.567L975.371 156.104V156.14ZM971.67 145.241L957.935 114.324L955.942 115.215L969.678 146.131L971.67 145.241ZM956.974 113.683C952.704 113.541 947.047 113.469 940.001 113.469V115.642C947.047 115.642 952.669 115.713 956.868 115.856L956.939 113.683H956.974ZM940.001 113.469H917.192V115.642H940.001V113.469ZM917.192 113.469H899.828V115.642H917.192V113.469ZM899.828 113.469C894.277 113.469 889.295 113.541 884.812 113.683L884.883 115.856C889.331 115.713 894.312 115.642 899.828 115.642V113.469ZM883.851 114.36L870.792 144.35L872.785 145.205L885.844 115.215L883.851 114.36ZM870.756 144.386C869.618 147.2 868.408 150.263 867.127 153.611L869.155 154.395C870.436 151.082 871.646 148.019 872.785 145.205L870.756 144.386ZM867.127 153.611C865.81 157.066 865.134 160.557 865.134 164.119H867.305C867.305 160.842 867.91 157.6 869.155 154.395L867.127 153.611ZM865.134 164.119C865.134 165.151 865.205 166.078 865.383 166.861L867.518 166.398C867.376 165.828 867.305 165.08 867.305 164.119H865.134ZM865.383 166.861C865.526 167.467 865.703 168.037 865.988 168.464L867.803 167.253C867.803 167.253 867.767 167.11 867.732 167.039C867.661 166.861 867.625 166.647 867.554 166.362L865.454 166.897H865.383V166.861ZM865.81 167.858V168.321H867.981V167.858H865.81ZM866.878 167.217H843.713V169.39H866.878V167.217ZM844.816 168.321V167.858H842.645V168.321H844.816ZM844.531 168.606C845.99 167.075 847.734 164.439 849.798 160.77L847.912 159.702C845.884 163.335 844.211 165.757 842.966 167.11L844.567 168.606H844.531ZM849.798 160.77C851.862 157.03 854.103 152.364 856.559 146.808L854.566 145.918C852.146 151.438 849.94 156.033 847.912 159.702L849.833 160.77H849.798ZM856.523 146.844L921.605 2.3758L919.612 1.48534L854.566 145.953L856.559 146.844H856.523ZM920.608 3.01693H929.682V0.844213H920.608V3.01693ZM928.686 2.3758L990.351 141.252L992.344 140.361L930.678 1.48534L928.686 2.3758ZM990.351 141.252C991.81 144.528 993.269 147.734 994.799 150.833L996.756 149.871C995.262 146.772 993.767 143.602 992.344 140.361L990.351 141.252ZM994.799 150.868C996.4 153.896 997.859 156.639 999.247 159.096L1001.13 158.028C999.781 155.606 998.322 152.899 996.721 149.871L994.799 150.868ZM999.247 159.061C1000.6 161.483 1001.84 163.549 1002.91 165.258L1004.76 164.083C1003.73 162.444 1002.52 160.414 1001.17 157.992L999.283 159.061H999.247ZM1002.91 165.258C1003.98 166.897 1004.73 168.037 1005.15 168.571L1006.83 167.182C1006.51 166.79 1005.83 165.793 1004.76 164.119L1002.91 165.294V165.258ZM1004.9 167.858V168.321H1007.08V167.858H1004.9ZM1005.97 167.217H974.873V169.39H1005.97V167.217ZM901.287 105.883H914.808V103.71H901.287V105.883ZM914.844 105.883C919.47 105.811 923.953 105.776 928.33 105.776V103.603C923.918 103.603 919.434 103.603 914.808 103.71V105.883H914.844ZM928.33 105.776C932.778 105.704 937.048 105.669 941.14 105.669V103.496C937.048 103.496 932.778 103.496 928.294 103.603V105.776H928.33ZM941.175 105.633C945.267 105.562 948.968 105.491 952.313 105.42V103.247C948.933 103.318 945.232 103.389 941.14 103.461V105.633H941.175ZM953.274 103.888L921.356 31.7253L919.363 32.6157L951.281 104.778L953.274 103.888ZM919.363 31.7253L888.014 104.351L890.007 105.206L921.356 32.5801L919.363 31.7253ZM889.046 105.883H901.322V103.71H889.046V105.883ZM1021.1 167.858L1020.03 167.573V167.858H1021.1ZM1021.1 5.79515H1019.99V6.0801L1021.1 5.79515ZM1021.1 5.33212V4.22795H1019.99V5.33212H1021.1ZM1048.21 5.33212H1049.31V4.22795H1048.21V5.33212ZM1048.21 5.79515L1049.28 6.0801V5.79515H1048.21ZM1048.21 167.858H1049.31V167.573L1048.21 167.858ZM1048.21 168.321V169.426H1049.31V168.321H1048.21ZM1021.1 168.321H1019.99V169.426H1021.1V168.321ZM1022.13 168.143C1022.59 166.505 1023.02 164.475 1023.41 162.124L1021.27 161.768C1020.88 164.083 1020.49 166.006 1020.06 167.538L1022.16 168.143H1022.13ZM1023.41 162.124C1023.8 159.737 1024.16 156.781 1024.44 153.291L1022.27 153.112C1021.98 156.567 1021.63 159.488 1021.27 161.768L1023.41 162.124ZM1024.44 153.291C1024.76 149.764 1024.97 145.633 1025.12 140.86L1022.95 140.789C1022.8 145.561 1022.55 149.657 1022.27 153.112L1024.44 153.291ZM1025.12 140.86C1025.26 135.98 1025.33 130.352 1025.33 123.905H1023.16C1023.16 130.352 1023.09 135.98 1022.95 140.824L1025.12 140.895V140.86ZM1025.37 123.87V49.8906H1023.19V123.87H1025.37ZM1025.37 49.8906C1025.37 43.4437 1025.29 37.816 1025.15 33.0432L1022.98 33.1144C1023.12 37.8873 1023.19 43.4793 1023.19 49.8906H1025.37ZM1025.12 33.0432C1024.97 28.1635 1024.72 23.9961 1024.44 20.4699L1022.27 20.648C1022.55 24.103 1022.8 28.2703 1022.95 33.0788L1025.12 33.0075V33.0432ZM1024.44 20.4699C1024.16 16.9081 1023.8 13.9161 1023.41 11.5297L1021.27 11.8859C1021.66 14.2011 1021.98 17.1218 1022.27 20.6836L1024.44 20.5055V20.4699ZM1023.41 11.5297C1023.02 9.14328 1022.59 7.14865 1022.13 5.51021L1020.03 6.11572C1020.45 7.64731 1020.88 9.57069 1021.24 11.8859L1023.37 11.5297H1023.41ZM1022.2 5.79515V5.33212H1020.03V5.79515H1022.2ZM1021.1 6.43629H1048.25V4.26357H1021.1V6.43629ZM1047.14 5.33212V5.79515H1049.31V5.33212H1047.14ZM1047.18 5.47459C1046.72 7.11303 1046.25 9.10767 1045.79 11.4941L1047.92 11.9215C1048.39 9.60632 1048.81 7.64731 1049.28 6.11572L1047.18 5.51021V5.47459ZM1045.79 11.5297C1045.4 13.9161 1045.08 16.9081 1044.76 20.4699L1046.93 20.648C1047.21 17.0862 1047.57 14.1655 1047.92 11.8503L1045.79 11.4941V11.5297ZM1044.76 20.5055C1044.54 23.9961 1044.3 28.1635 1044.08 33.0432L1046.25 33.15C1046.47 28.3059 1046.72 24.1386 1046.93 20.6836L1044.76 20.5411V20.5055ZM1044.08 33.0432C1043.94 37.816 1043.87 43.4437 1043.87 49.8906H1046.04C1046.04 43.4437 1046.11 37.8516 1046.25 33.1144L1044.08 33.0432ZM1043.83 49.8906V123.87H1046V49.8906H1043.83ZM1043.83 123.87C1043.83 130.317 1043.9 135.98 1044.05 140.824L1046.22 140.753C1046.07 135.909 1046 130.281 1046 123.834H1043.83V123.87ZM1044.08 140.86C1044.3 145.633 1044.54 149.764 1044.76 153.255L1046.93 153.112C1046.72 149.622 1046.47 145.526 1046.25 140.753L1044.08 140.86ZM1044.76 153.291C1045.08 156.781 1045.4 159.737 1045.79 162.124L1047.92 161.768C1047.57 159.452 1047.21 156.567 1046.93 153.112L1044.76 153.291ZM1045.79 162.159C1046.25 164.51 1046.72 166.541 1047.18 168.179L1049.28 167.573C1048.85 166.006 1048.39 164.083 1047.92 161.768L1045.79 162.195V162.159ZM1047.14 167.858V168.321H1049.31V167.858H1047.14ZM1048.21 167.217H1021.06V169.39H1048.21V167.217ZM1022.2 168.321V167.858H1020.03V168.321H1022.2Z" fill="#023430"/>
</svg>
